<?xml version="1.0" encoding="UTF-8"?> <svg xmlns="http://www.w3.org/2000/svg" id="Layer_1" viewBox="0 0 250 250"><path d="M124.3634,99.7281c-.5199-.4731-1.0186-.3487-1.5865-.0365-.6256,.3461-1.2212,.4064-1.6865-.3788-.1724-.2917-.6378-.4949-1-.5647-1.7891-.3455-3.5904-.6372-5.3885-.9404-.3263-.0545-.6949,0-.9788-.1333-.2571-.1244-.5622-.4192-.5987-.6737-.0391-.2731,.1423-.6558,.3506-.8647,.4987-.5006,1.1699-.6128,1.8494-.5641,.7468,.0513,1.4904,.1391,2.2301,.2423,4.0288,.5647,8.0782,.9801,12.0455,1.9391,2.841,.6885,5.5635,1.6654,8.1622,3.0064,1.182,.6103,2.4026,1.141,3.5904,1.7385,1.0878,.5494,1.5833,1.3083,1.3994,2.1058-.2391,1.0224-.9974,1.5173-1.9404,1.7147-.7282,.1513-1.4962,.3-2.2212,.2179-1.0487-.1147-1.9372,.1942-2.8737,.5705-1.6231,.6558-3.3391,.9712-5.0711,1.2353-3.8558,.5917-7.7058,1.2378-11.5468,1.9237-1.0545,.1878-2.0756,.5763-3.1032,.9103-.4442,.1423-1.1154-.2641-1.3083,.3423-.1391,.434,.0058,.9833,.0968,1.4686,2.5955,13.766,5.1705,27.5346,7.8173,41.2884,.8827,4.5846,1.9462,9.1327,2.9494,13.6897,.1846,.8404,.4231,.9891,1.2058,.8891,2.8013-.3609,5.5968-.7429,8.3981-1.1045,.8519-.109,1.5897-.4397,2.2244-1.0224,1.2872-1.1833,2.5712-2.3667,3.8801-3.5256,.4353-.3853,.5045-.8192,.3987-1.3442-.4289-2.1237-.8096-4.2596-1.2846-6.3744-1.934-8.6288-3.5019-17.3218-4.6596-26.0904-.3385-2.5641-.6346-5.134-.9667-7.6949-.1301-.9827-.1667-1.9904-.8827-2.8122-.3718-.4282-.1994-.959,.0936-1.3897,.2327-.3397,.5045-.6705,.8128-.9404,2.2878-1.9846,4.8231-3.5686,7.7423-4.4122,2.3846-.6885,4.7596-.5519,7.0744,.425,1.3115,.5526,1.8917,1.5628,1.9006,2.934,.0064,1.3321-.066,2.6673-.0545,3.9987,.0064,.6891,.3506,.8923,.9731,.5769,2.1032-1.059,4.2917-1.8327,6.6609-1.8814,.9846-.0212,1.9763,.1276,2.9551,.2763,.5045,.0756,.8006,.6038,.7705,1.1314-.0147,.2494-.0782,.4949-.1058,.7436-.2929,2.8308-.3596,5.659,.1,8.4801,.0545,.3282,.0968,.6615,.1269,.9923,.0846,.9712-.0699,1.2231-.9218,1.484-.3962,.1212-.8006,.2276-1.2058,.3122-3.6205,.7436-6.9596,2.1814-10.1147,4.0929-.7006,.425-1.4897,.7468-2.2814,.9558-1.4532,.3853-2.2814-.1878-2.3782-1.6718-.0994-1.4955-.0513-2.9974-.0756-4.4961-.0058-.3494-.3654-.5647-.6981-.3974-1.9487,.9615-3.7346,2.1603-5.3154,3.6679-.541,.516-.6769,1.0558-.5256,1.7929,.5526,2.6949,1.0179,5.407,1.5679,8.1045,1.0487,5.1455,2.1276,10.2859,3.2006,15.4282,.1026,.4885,.1994,.9833,.341,1.4596,.2962,1.0013,.8404,1.8263,1.8558,2.1904,2.6776,.959,5.0859,2.4519,7.5788,3.775,1.3205,.7006,2.6718,1.3468,3.9859,2.0596,.4231,.2308,.825,.5461,1.1455,.9077,.2897,.3244,.3353,.7949-.0179,1.1282-.3538,.3372-.7494,.6558-1.1756,.8865-2.2936,1.2346-4.7353,2.1115-7.3224,2.309-5.7961,.4455-11.6013,.7763-17.4064,1.0949-1.6558,.091-3.3205-.0391-4.9827-.0365-.6558,0-.8404,.2795-.7282,.9712,.0545,.3308,.1058,.6615,.1872,.9833,1.5474,5.9712,3.0917,11.9449,5.2519,17.734,.7282,1.9545,1.4449,3.9115,2.5962,5.6712,.1359,.209,.2538,.434,.3442,.6641,.3987,1.0013,.1026,2.0423-.7494,2.6705-.7372,.5429-1.7558,.5583-2.5718,.0301-.7218-.4673-1.1872-1.1346-1.5679-1.8994-.4019-.8038-.8769-1.5718-1.3212-2.3577-1.0904,.1122-1.6468,1.0289-2.3596,1.6596-3.3699,2.9769-6.6814,6.0141-10.0333,9.0115-4.9647,4.4391-9.9179,8.8929-14.9218,13.2865-3.8833,3.4071-7.6365,6.9449-11.2449,10.6436-.5224,.5372-1.0577,1.0648-1.5321,1.6442-.9731,1.1833-.8795,1.5782,.4654,2.1756,.6827,.3032,1.384,.5673,2.0577,.8891,.4686,.2212,.9128,.3551,1.4295,.1756,.5622-.1936,.9885,.0673,1.2391,.5461,.3051,.5891,.8763,.7346,1.4019,.959,.5808,.2487,.7679,.1308,.9462-.5551,.0635-.2397,.0545-.5705,.2083-.6949,.2205-.1788,.6045-.3397,.8372-.2641,.2449,.082,.4686,.4308,.5564,.7103,.0603,.1853-.1545,.4462-.209,.6827-.057,.2545-.7526,.3308-.2596,.6949,.2083,.1545,.6737,.1545,.9154,.0244,.6288-.334,1.1397-.2885,1.4962,.3154,.3353,.5673,.8276,.7647,1.4231,.8737,.5744,.1064,.9853,.0398,1.0487-.6583,.0154-.1545,.0936-.3583,.2083-.434,.1936-.1276,.4929-.291,.6558-.2186,.266,.1154,.5263,.3731,.6532,.6346,.0872,.182-.1,.4852-.0667,.7186,.0301,.2128,.2385,.5949,.2897,.5827,1.1667-.2821,2.025,.6859,3.0859,.7346,.3808,.018,.7974-.1154,1.1513-.2827,.9788-.4577,.9731-.4821,1.5923,.2006,.0545,.0603,.0724,.1487,.118,.2212,.3115,.5006,.8397,.4615,1.3205,.5218,.6256,.0763,.7827-.3731,1.0455-.8282,.441-.7673,1.2269-.725,1.4205,.1096,.1872,.8096,.5468,1.0679,1.3026,1.1833,1.1449,.1756,2.2692,.591,3.4359,.2455,.5378-.1609,.9641,.0846,1.4353,.2276,.8885,.2699,1.7737,.4397,2.6231-.1699,.4019-.2853,.7763-.0577,1.1359,.1788,.9128,.6006,1.8192,.7128,2.7173-.0609,.3532-.3032,.7462-.3301,1.1205-.0115,.9519,.8096,1.9013,.9128,2.8744,.0211,.3474-.3186,.7429-.3372,1.1147-.0186,.9487,.8103,1.8917,.9314,2.8622,.0308,.3442-.3186,.7192-.3218,1.1211-.0487,.3321,.2244,.6859,.4365,1.0603,.5731,1.0122,.3705,1.6564-.8071,2.4904-.716,.7583,.0853,1.4865,.9622,2.3026,.5282,1.109-.5859,2.1821-.4038,3.3244-.3308,.8885,.0577,1.7981-.2429,2.7013-.334,.6199-.0635,.8827-.3365,.8038-.9615-.0212-.1577-.0122-.3641,.0756-.4795,.1391-.1853,.3686-.4462,.5346-.4308,.2872,.0301,.6077,.1974,.8071,.4064,.1449,.1519,.0756,.4885,.1814,.7038,.0878,.1853,.2872,.4462,.4378,.4462,.8372,0,1.5987-.0635,1.9981-1.0737,.2865-.7256,.7917-.7891,1.3442-.182,.4628,.5064,.8859,.6673,1.5141,.5365,3.8167-.8006,7.6609-1.4987,11.45-2.4122,3.3878-.816,6.7782-1.6955,10.0603-2.8519,4.0038-1.4109,7.8295-3.2891,11.0961-6.0801,.9917-.8468,1.7442-1.9904,2.5327-3.0583,.4474-.607,.2872-1.0442-.3808-1.4417-3.9256-2.3423-7.8327-4.7205-11.7917-7.0058-3.8891-2.2417-7.866-4.3295-11.7462-6.5897-5.3878-3.1372-10.716-6.3808-16.0827-9.5609-1.2872-.7615-2.6378-1.4135-3.9224-2.1782-1.8558-1.1045-3.684-2.2577-5.509-3.4103-.275-.1731-.5199-.4218-.7224-.6769-.3321-.4154-.4141-.9103-.2051-1.4109,.2141-.5218,.7006-.6885,1.1936-.7827,.2327-.0455,.5045-.009,.7314,.0731,.4679,.1635,.9577,.3186,1.3654,.5885,4.1038,2.7154,8.6128,4.6846,12.8795,7.1,9.1897,5.2006,18.4494,10.2705,27.6538,15.4436,2.6077,1.4654,5.1282,3.0859,7.6788,4.6545,.8641,.5308,1.5167,1.2192,1.943,2.1994,.943,2.1724,.7224,4.075-1.0609,5.6801-1.1724,1.0558-2.3994,2.0513-3.6263,3.0462-1.1603,.9436-2.3808,1.8147-3.5173,2.782-1.2147,1.0378-2.5808,1.8147-3.9891,2.5365-4.2455,2.1756-8.7904,3.4987-13.3776,4.682-7.1711,1.8506-14.4513,3.1372-21.8096,3.8865-3.6321,.3705-7.2949,.4551-10.9455,.6372-3.3994,.1699-6.7994,.3551-10.1987,.4276-3.1551,.0673-6.316,.1128-9.459-.3064-.4891-.0667-1.009-.1244-1.4897-.0359-3.9885,.734-7.9596,.2635-11.9032-.2827-4.2006-.582-8.4103-1.0135-12.6314-1.3744-.5776-.0487-1.1545-.1455-1.7321-.2122-3.5442-.4218-7.0861-.868-10.6339-1.259-7.4279-.8224-14.8406-1.684-22.0419-3.8564-1.8978-.5737-3.9315-.6769-5.8353-1.2288-2.4629-.716-4.8623-1.6474-7.2768-2.5244-1.4324-.5218-2.5535-1.5385-3.6958-2.5032-2.1395-1.8115-1.5442-5.4006,.2508-6.5814,1.1785-.7737,2.3541-1.5711,3.6142-2.1936,1.2601-.6218,2.6019-1.0923,3.9406-1.5321,6.1587-2.0237,12.4292-3.6468,18.742-5.0885,2.7439-.625,5.5603-.916,8.3465-1.35,1.3115-.2032,2.6231-.4276,3.9437-.5551,4.2156-.3974,8.4344-.7436,12.653-1.1256,3.5596-.325,7.1256-.4827,10.6974-.3853,1.1756,.0333,2.0397-.3673,2.8981-1.1199,4.8833-4.2808,9.8032-8.5167,14.6987-12.7795,2.4474-2.1333,4.8744-4.2904,7.3096-6.4385,.5622-.4949,1.1122-1.0045,1.6711-1.5019,.4295-.3821,.4808-.8468,.3083-1.3622-.1058-.316-.2173-.6314-.3231-.9468-1.7923-5.3827-3.2641-10.8532-4.5968-16.366-.0571-.2429-.1628-.4795-.184-.725-.1147-1.3654-.7558-2.109-2.2032-2.1301-.8487-.0154-1.6077-.3763-2.109-1.1436-.3026-.4647-.3628-1.0167,.0237-1.3776,.4776-.4462,1.0096-.8436,1.5686-1.1808,1.0942-.6551,1.1513-.7128,.8974-1.966-.1147-.5705-.2718-1.1346-.3955-1.7051-2.2423-10.2641-4.1404-20.5987-6.0077-30.9359-1.2904-7.1391-2.6263-14.266-3.9468-21.3993-.0603-.325-.0936-.6769-.2417-.959-.0904-.1699-.3865-.343-.5744-.3276-.3199,.0269-.6346,.1853-.9365,.3186-3.5782,1.584-7.0385,3.3801-10.2955,5.5673-1.8647,1.2532-3.7442,2.482-5.6667,3.6442-2.2846,1.3808-4.7051,2.4635-7.2763,3.2071-2.3453,.6763-4.512,.5397-6.7119-.7039-1.653-.9346-3.0733-1.9513-3.8711-3.7109-.5228-1.1558-.7948-2.3667-.7948-3.6378,0-.7494,.0303-1.5019,.0091-2.2513-.0121-.4064-.3022-.5949-.6739-.4853-2.3843,.7128-4.8079,1.3224-6.6392,3.216-.7101,.734-1.3689,.725-2.2302,.1699-.692-.4462-.8159-.9679-.4261-1.7019,.6195-1.1686,1.6983-1.8635,2.8044-2.3731,.9036-.4154,1.4989-.8583,1.7346-1.8538,.1088-.4673,.7857-.6071,1.2208-.1878,.4412,.4244,.825,.4641,1.3297,.3032,1.2631-.4064,2.5112-.8859,3.8015-1.1923,.825-.1942,1.109-.5071,.9368-1.3532-.0665-.3276,.6316-.6647,.9549-.5128,.2206,.1032,.4563,.2186,.6225,.3885,.3354,.3519,.556,.834,1.1725,.7763,.5772-.0571,1.1696-.0269,1.6137-.5064,.1662-.182,.3446-.3641,.55-.4949,.4503-.2878,1.1453-.2878,1.3538,.143,.3989,.8192,1.1574,1.15,1.7799,1.6808,.4231,.3609,.8706,.8615,.9943,1.3776,.2295,.9647,.7705,1.3321,1.6744,1.5051,.4955,.0936,.725,.7096,.6314,1.2077-.091,.4885-.5231,.9038-1.0308,.9218-.2385,.0096-.4801-.1058-.7218-.1365-.641-.0788-.7801,.0244-.7436,.5583,.0179,.2462,.1237,.4885,.1301,.7346,.0147,.7372-.2571,1.0712-.9854,1.1801-.3233,.0487-.6739-.0577-.9851,.0212-.1783,.0455-.3626,.2974-.4261,.4949-.0726,.2244-.006,.4942-.0121,.7429-.0181,.534-.1662,1.0077-.7615,1.1353-.686,.1481-.8733,.7308-1.0879,1.2558-.1329,.325,.0363,.6372,.3929,.7949,.9035,.4038,1.2329,.2487,1.5503-.7282,.0755-.2333,.1299-.4853,.2508-.6949,.3083-.534,1.0456-.6853,1.5168-.3122,.1904,.1513,.3385,.3551,.4987,.5397,.6045,.7039,.6737,.7526,1.3782,.4006,.6647-.3308,1.257-.9282,1.9494-1.0558,1.0936-.2064,1.5019-.7917,1.7282-1.7872,.1179-.516,.6436-.7096,1.2115-.5519,.3147,.0846,.6442,.1878,.9583,.1667,.1538-.009,.4019-.2821,.4051-.4397,.0026-.225-.1846-.4494-.2814-.6769-.1782-.425-.1115-.8103,.2115-1.1436,.4019-.4128,.8795-.4429,1.366-.2186,.2147,.1,.3596,.3397,.5679,.4673,.1878,.1154,.4353,.2519,.6224,.2122,.2147-.0455,.4205-.2487,.5776-.4276,.0481-.0545-.0276-.2974-.1147-.3853-.2327-.234-.5532-.3917-.7494-.6468-.3481-.4519-.1846-1.2436,.2654-1.5622,.4808-.3397,1.2301-.2551,1.5596,.2308,.1782,.2635,.266,.5974,.3628,.907,.1385,.4551,.4135,.4308,.7404,.2397,.4288-.2519,.8551-.5128,1.284-.7679,.5654-.3397,1.1244-.6827,1.6955-1.0103,.4353-.2519,.7526-.534,.9788-1.0468,.55-1.2442,.6103-1.2199,2.0461-.8801,.0814,.0186,.1603,.0455,.2417,.0609,.384,.0731,.6468-.1878,.5167-.5372-.0846-.2301-.266-.4333-.3295-.6673-.1814-.6705,.0724-1.168,.6769-1.4077,.4385-.1731,1.0519-.0064,1.3359,.3853,.0936,.1301,.1295,.3032,.2083,.4462,.1513,.2699,.3295,.7705,.4686,.7615,.5558-.0397,1.2506-.0731,1.6135-.4128,.6526-.6071,1.209-1.3865,.9763-2.4211-.2359-1.0558-.4263-2.1237-.716-3.1615-.0635-.2218-.4596-.382-.7314-.5006-.2179-.0942-.5019-.0333-.7256-.1186-.8673-.3333-1.0212-1.4135-.3019-2.0147,.0635-.0513,.1359-.0936,.2051-.1333,.3359-.191,.8885-.1333,.907-.6859,.0212-.6673-.0122-1.3314-.6436-1.7897-.3269-.2365-.7045-.5038-.8647-.8468-.2385-.5128-.5013-.8282-1.0936-.7917-.5955,.0365-1.0577,.1756-1.4718,.725-.8038,1.0622-1.1904,1.0436-2.1788,.2032-1.0276-.8769-1.5654-.8949-2.5532-.0846-.7359,.6006-1.484,.6038-2.2455,.009-.9699-.7583-1.5808-.734-2.5718,.0968-.9641,.8103-1.3596,.8256-2.2032-.2391-.4199-.5314-.8699-.7135-1.4712-.7468-.4506-.0244-.8128,.0878-.9731,.5673-.0513,.1577-.1147,.316-.1994,.4583-.2936,.5128-.7526,.5949-1.2814,.4795-.4718-.1032-.7679-.4308-.6981-.8801,.1269-.8128-.1333-1.2801-.9429-1.441-.2417-.0487-.4808-.1333-.716-.2186-.9147-.3276-1.2936,.0141-1.1365,1.0256,.0365,.2429,.1724,.5583,.0724,.7218-.6314,1.0231,.0122,1.8878,.2692,2.8038l-.0609-.0667c.0276,.6308-.0058,1.2744,.1,1.8904,.1,.5673,.3929,1.0282,1.0756,1.1224,.8827,.1244,1.1609,.7404,1.1423,1.5654-.0058,.3218,.0423,.6404,.0635,.9622l.091-.091c-.6532,.0756-1.3026,.1724-1.9583,.2244-.4109,.0333-.5622,.2308-.5776,.6192-.009,.2455-.0417,.5032-.1295,.7308-.1692,.4429-.5654,.5885-.9944,.616-.4744,.0333-1.0304-.3455-1.1574-.7859-.1239-.4308-.0151-.825,.3203-1.1314,.1208-.1096,.2689-.2006,.4201-.2551,.4956-.1756,.6467-.4917,.3565-.9372-.6406-.9891-1.1392-2.0359-1.2753-3.2224-.0725-.6314-.4291-.8256-1.0153-.8038-.2388,.009-.5017-.0609-.7162-.1705-.4624-.2365-.6286-1.1712-.2629-1.5468,.2206-.2276,.5016-.4647,.7978-.5436,.5681-.1545,.8552-.4551,.8401-1.0468-.0121-.5853,.0423-1.2013-.7222-1.3923-.0816-.0212-.1602-.0455-.2357-.0763-.5017-.191-.8733-.5244-.8764-1.0859,0-.6673,.3536-1.0923,1.0456-1.1558,.8159-.0763,.831-.6769,.8371-1.2776,.006-.6282-.1028-1.1654-.8975-1.2199-.5803-.0423-.8824-.4218-.967-.9647-.0876-.5615,.1753-.9615,.6588-1.2231,.1451-.0756,.3173-.0968,.4594-.1789,.825-.4763,.8794-1.984,.0483-2.4481-.4201-.234-.9972-.225-1.0426-.8801-.0483-.6769,.266-1.1013,.9126-1.3019,.3868-.118,.4744-.4032,.3687-.7795-.4533-1.5994-1.3085-2.8494-2.898-3.5256-1.381-.5859-2.7318-1.2167-4.2912-.707-.2206,.0731-.5379,.0699-.7313-.0397-1.8162-1.0282-3.5628,.334-5.3488,.1429-.0786-.009-.2569,.2064-.2569,.3186,0,.3276,.1088,.6551,.0937,.9801-.0242,.5609-.3898,.9679-.8794,1.0468-.544,.0878-1.0033-.0609-1.239-.5859-.1329-.2974-.1481-.6494-.275-.9526-.0483-.1212-.281-.2788-.3747-.2487-.6165,.1878-1.2178,.4276-1.8253,.6462-.4472,1.2468-1.2299,1.4231-2.339,.8038-.3233-.182-.689,.1551-.5983,.4827,.1118,.3974,.3263,.7795,.3656,1.1801,.0393,.4308-.2024,.7949-.6104,1.0045-.4381,.2276-1.0486,.1032-1.3206-.3372-.1692-.2699-.1753-.643-.3415-.916-.0967-.1609-.42-.3551-.5409-.3032-.6074,.2609-1.2178,.5462-1.7618,.9224-1.9612,1.3622-2.0005,1.5712-.5379,3.4705,.4201,.5462,.3656,1.0135,.2357,1.6173-.1329,.616,.1874,.8769,.8854,.7282,.6196-.1333,1.1604-.2333,1.4899,.4429,.281,.5795,.0574,1.0987-.8764,1.484-.6013,.2455-.7646,.5308-.6285,1.0949,.1753,.7346,.4079,1.3994,1.0969,1.8756,.2508,.1724,.4412,.816,.3173,1.0859-.3868,.8314-.278,1.5962-.0332,2.409,.1662,.5583,.2992,1.1288,.3898,1.7051,.139,.8833,.4201,1.484,1.4626,1.6936,.828,.1667,1.1423,1.2923,.5077,1.7744-1.1756,.8923-1.0517,1.8936-.3324,2.7827,.6255,.7737,.553,1.4897,.4714,2.3269-.0393,.4128,.2448,.534,.6497,.3949,.3052-.1064,.6437-.2096,.9519-.1795,.4292,.0429,.7495,.316,.8703,.7679,.133,.5064-.0876,1.0859-.4986,1.2955-.0725,.0365-.1602,.0487-.2357,.0821-.4079,.1789-1.1393-.1186-1.1725,.6038-.0363,.8038-.1209,1.7141,.9458,2.0628,.2267,.0731,.4503,.2244,.6195,.3949,.3264,.3276,.4503,.8795,.139,1.1224-.9972,.7827-.7767,1.7109-.5651,2.7154,1.2662,5.9532,2.5052,11.9122,3.7683,17.8647,2.0096,9.4635,4.2156,18.8756,6.9988,28.1449,.8401,2.7942,1.7467,5.5673,2.6231,8.35,.2266,.716,.4653,1.4256,.6678,2.1481,.0876,.3154,.1269,.6551,.136,.9827,.0151,.6859-.4533,1.2987-1.1029,1.5019-.4865,.1519-1.2209-.0724-1.5352-.5731-.3505-.5615-.6708-1.1564-.8975-1.775-.6346-1.7205-1.2541-3.4468-1.8101-5.1917-2.8406-8.9019-5.1524-17.9468-6.9837-27.1096-2.3873-11.9365-4.6779-23.891-7.0229-35.8333-.964-4.909-1.9371-9.8179-3.3422-14.6244-.5379-1.8353-1.2088-3.6321-1.8585-5.4308-.1753-.4859-.4261-.9801-.1058-1.4231,1.1091-1.5295,2.1274-3.0705,3.992-3.9417,5.101-2.3846,10.3622-4.0654,16.0192-4.266,2.1667-.0788,4.3244,.0974,6.3733,.9077,1.5019,.5942,2.5897,1.55,3.4872,3.0064,1.4203,2.3,2.0217,4.7179,2.1185,7.3429,.0423,1.168,.0936,2.3359,.1814,3.4981,.1359,1.7929,.8885,2.7397,2.641,3.1404,1.1269,.2577,2.2904,.4494,3.4449,.4763,2.741,.0731,5.4821,.0276,8.2256,.0365,2.3269,.0058,4.6506,.0179,6.9776,.0333,.9885,.0058,1.2237-.2276,1.0397-1.1654-.6558-3.3558-1.3147-6.7083-2.0038-10.0577-3.1096-15.107-6.1737-30.2231-9.3737-45.3087-1.4019-6.6022-3.0974-13.1408-4.6506-19.7127-.1724-.7281-.3295-1.4624-.4474-2.2028-.2385-1.5019,.1058-2.8338,1.3538-3.7835,1.5865-1.2076,3.1519-2.4576,4.8321-3.5226,4.4513-2.8217,9.2987-4.7969,14.2878-6.4232C118.9325,1.18,127.0857-.1884,135.4774,.0209c3.6571,.091,7.2859,.3125,10.8583,1.2683,2.0212,.5401,3.6378,1.6202,5.0038,3.1009,1.1788,1.2774,1.5321,2.9279,1.6141,4.6331,.1205,2.5214-.3538,4.9851-.7256,7.4579-.2353,1.5656-.5077,3.1282-.716,4.6969-.0846,.625,.1724,.9406,.7615,1.0922,2.2936,.5887,4.6147,.5522,6.932,.2337,3.1397-.4308,6.1622-1.3381,9.1205-2.4667,3.3449-1.2744,6.5244-2.9067,9.7211-4.5026,1.6353-.8162,3.291-1.5899,4.9622-2.3272,1.5385-.6797,3.1821-.9406,4.8532-1.0043,.9609-.0395,1.3026,.2943,1.1154,1.1469-.7314,3.3467-.9397,6.7631-1.3269,10.1552-.2538,2.2301-.2897,4.4966-.3083,6.7449-.0269,3.2526-.0603,6.5143,.109,9.7608,.4109,7.8038,1.8038,15.4042,5.2461,22.501,.6526,1.3472,1.4295,2.6338,2.1936,3.9204,.3782,.634,.3481,1.2436,.1904,1.9173-.1481,.6308-.5256,1.0224-1.0756,1.2865-2.3929,1.1468-4.7929,2.2814-7.1801,3.4436-3.1397,1.5295-6.207,3.1981-9.132,5.1186-4.0346,2.6455-8.0205,5.3673-12.1122,7.9192-3.1,1.9359-6.2795,3.759-9.5186,5.4462-3.6385,1.8929-7.525,3.0917-11.6378,3.4256-1.5865,.1276-3.1397-.0455-4.6929-.425-.9609-.2365-1.6378-.7404-2.1699-1.5321-.707-1.0558-1.1333-2.2244-1.4231-3.45-.5564-2.3577-.9609-4.7455-1.0006-7.1724-.0538-3.3378-.0571-6.6724-.0782-10.0096-.0032-.5006,.0301-1.0013,.009-1.4987-.0154-.3737-.2449-.6436-.6256-.5949-.5712,.0699-1.1423,.1974-1.7013,.3455-4.2942,1.1353-8.2622,3.0192-12.0212,5.3679-2.8981,1.8109-5.6058,3.8833-8.1987,6.1077-.5045,.4333-1.0032,.8795-1.4474,1.3744-1.8429,2.0603-1.7468,1.8596-1.2147,4.4449,.6013,2.9397,1.2212,5.8769,1.7468,8.832,.1782,1.0103,.5256,1.6872,1.5801,1.9327,.4019,.0942,.4353,.6526,.2212,.8167-1.3603,1.025-1.0885,2.0936-.1577,3.1859,.4417,.5186,.3628,1.0404,.2481,1.6353-.1513,.7981-.0904,.825,.6615,.6795,.2423-.0455,.4808-.1519,.7224-.1609,.4987-.0179,.9885,.3827,1.1,.8436,.1359,.5673-.2295,1.232-.8096,1.3564-.3115,.0667-.6558-.0212-.982,0-.1301,.009-.3692,.1423-.3596,.1846,.1173,.6372,.2596,1.2718,.4289,1.8994,.0122,.0429,.2994,.0795,.4019,.0186,.5045-.2853,1.0968-.5128,1.4564-.9346,.6346-.7462,1.2692-.9282,2.1731-.5615,.4109,.1673,.7282-.2878,.5833-.7615-.0942-.3122-.2872-.6038-.3359-.9192-.0756-.4974,.3295-.9981,.8103-1.0981,.6314-.134,1.2083,.2032,1.3141,.8192,.0545,.3212-.0423,.6731,.0308,.9891,.0359,.1577,.2897,.3455,.4654,.3699,.2327,.0333,.4833-.1032,.7282-.1301,.7096-.0821,1.1391-.3096,1.375-1.1442,.3173-1.1256,1.2205-1.2289,2.0821-.4186,.9609,.907,1.6558,1.0013,2.6711,.0212,.5833-.5641,1.1814-.7795,1.7558-.4397,1.1301,.6705,2.1968,.5429,3.3359,.1487,.2846-.1,.7288-.1609,.9282-.0122,.9519,.7192,1.7135,.2519,2.4872-.2885,.2019-.1423,.4109-.2878,.5679-.4731,.0635-.0763,.0545-.3154-.0179-.3853-.1756-.1699-.3872-.3186-.6109-.4186-1.5891-.7045-3.1788-1.4051-4.7808-2.0788-.4769-.2-.9609-.2154-1.3295,.2853-.1417,.1942-.3321,.3795-.5378,.5006-.7404,.434-1.7346,.1731-1.7923-.6218-.0872-1.232-.8276-1.4897-1.7583-1.6538-.6526-.1154-1.3147-.1756-1.9705-.2577l.0756,.0333-.0058-.0122h.0001Zm-43.4858,18.4384c.4684-.5763,.5439-1.0712,.0574-1.775-.7374-1.0712-.55-1.4654,.6285-2.0481,.0725-.0365,.1692-.0276,.2387-.0635,.0635-.0333,.1058-.1032,.1572-.1583-.0967-.091-.1934-.2577-.2871-.2577-.4865,.0122-1.0093-.0365-1.4445,.1333-.4774,.1885-.9065,.3705-1.4233,.234-.3082-.0788-.7192-.2609-.9247-.1333-.5167,.3212-.006,.7039,.0816,1.0647,.136,.5615-.0514,.9891-.5742,1.2199-.3233,.1423-.5923,.2878-.6044,.6827-.0272,.825-.1541,1.6506,.4472,2.3846,.2418,.2942,.3657,.7224,.4503,1.1077,.2749,1.2346,.2659,1.2378,1.2057,.4218,.1874-.1609,.3566-.3974,.5742-.4615,.7434-.2244,1.0275-.7615,1.1605-1.4622,.0604-.325,.2055-.6314,.3112-.9468l-.0513,.0577s-.003,0-.003,0ZM134.8006,3.9015c-9.1353,.1214-17.7263,1.8387-26.0487,4.9486-3.8224,1.4291-7.5154,3.1343-10.9276,5.3978-.8974,.5977-1.7462,1.2743-2.6135,1.9176-.6558,.4885-1.0186,1.068-.6744,1.9297,.1545,.3823,.2115,.804,.3083,1.2106,1.4353,5.9954,2.9705,11.9726,4.282,17.9953,2.8891,13.2743,5.666,26.5729,8.4917,39.8591,.1724,.8167,.366,1.6263,.5622,2.4365,.0788,.3154,.5231,.4372,.8006,.2122,.5199-.4154,1.0218-.8526,1.5353-1.2769,3.6538-3.0404,7.5006-5.7981,11.7103-8.0224,2.8013-1.4776,5.7263-2.6487,8.7481-3.5833,4.7327-1.4622,9.6192-1.7686,14.5205-1.875,1.1269-.0244,2.2603,.3551,3.3936,.516,.3173,.0455,.65-.0487,.9731-.0308,.2147,.0122,.5346,.0397,.6192,.1763,.4865,.8006,1.4058,.8282,2.0974,1.2532,1.0609,.6519,1.6558,1.5654,1.8737,2.8,.3987,2.2853-.2417,4.2936-1.5109,6.1442-2.5929,3.7808-5.3096,7.4673-8.3404,10.9077-.3808,.434-.8038,.8526-1.2724,1.1801-.9487,.6647-2.1308,.1186-2.1096-1.0679,.0154-.7795-.0513-1.2712-.8128-1.5474-.1359-.0481-.2385-.2212-.3295-.3545-.2564-.3827-.1718-1.0353,.1878-1.3808,.3353-.325,.7615-.3763,1.1423-.1731,.2776,.1487,.4679,.4551,.7103,.6737,.3263,.2974,.6282,.1423,.8128-.1487,.1026-.1609,.1147-.4763,.0237-.6404-.157-.2821-.4712-.4699-.6404-.7494-.2571-.4218-.1147-.9436,.3231-1.341,.3449-.3154,.7192-.3551,1.1276-.091,.2776,.1788,.5801,.4583,.8609,.4462,.2237-.009,.6013-.3827,.6109-.6038,.009-.2853-.3269-.5641-.4327-.8737-.2538-.7404,.1968-1.3865,.9462-1.3506,.3205,.0154,.6288,.2006,.9519,.2615,.2929,.0545,.7135-.3218,.6712-.5859-.0397-.2429-.1756-.4673-.209-.7103-.1237-.8615,.1724-1.2769,.9705-1.3801,.1596-.0212,.3321,.0391,.4955,.0244,.7641-.0731,.8788-.1276,.9-.859,.0186-.6006-.0814-1.3109,.6199-1.4564,1.3327-.2788,1.6558-1.2558,1.8436-2.3545,.0513-.2942-.118-.625-.1846-.9372-.2269,.0814-.4532,.1667-.6827,.2423-.9038,.3064-1.2692,.3186-1.466-.3-.4353-1.3776-1.5019-1.3718-2.5833-1.3962-.1269,0-.3237,.2917-.3782,.4795-.0872,.3038,.0064,.6923-.1481,.9346-.1538,.2429-.5167,.4827-.7885,.4827-.2692,0-.5865-.2583-.7891-.4859-.1417-.1603-.2141-.4885-.157-.7006,.1994-.7494-.2417-.8583-.7917-.8737-.4141-.0122-.8308,.0122-1.2449,.0154-.5744,.0058-.9462,.1699-.8494,.8737,.0821,.5974-.3231,.9192-.8276,1.0737-.4083,.1276-.8192-.2333-1.0276-.8526-.0513-.1545-.0301-.3308-.0513-.4974-.0667-.4705-.475-.4673-.75-.3942-.2654,.0724-.6526,.3333-.6827,.5519-.0936,.7372-.0814,1.4686,.6192,2.0301,.4564,.3667,.3718,.8795-.0301,1.3045-.1147,.1212-.2385,.2333-.3596,.3462-.5679,.5244-.4231,1.2192-.4442,1.875-.0212,.6128,.4654,.7917,.8494,1.107,.6224,.5096,.6378,1.1077,.0122,1.6692-.375,.3365-.825,.5577-.8192,1.1468,.0064,.5827,.0635,1.0859,.5353,1.5776,.9641,1.0013,1.0276,1.25,.266,2.0692-.5532,.5949-.6256,1.1436-.4506,1.7994,.1269,.4705,.4141,.8949,.5712,1.3622,.1,.2974,.2237,.7006,.1026,.9404-.4622,.9256-.0513,1.8147,.0487,2.6974,.1269,1.0955,.8372,1.7718,1.9006,2.0635,.982,.2699,1.9615,.2609,2.9615,.109,3.0615-.4609,6.0256-1.2833,8.7699-2.7096,2.8737-1.4923,5.7141-3.0673,8.4583-4.7814,3.9462-2.4699,7.8115-5.0699,11.6763-7.6641,5.4731-3.6744,11.2814-6.6936,17.3763-9.1756,.725-.2942,.8218-.582,.3295-1.3192-2.2936-3.4379-3.7199-7.2549-4.7961-11.2114-1.3385-4.9335-1.9487-9.9822-2.0724-15.0795-.1789-7.3456,.1147-14.673,1.2359-21.9519,.0756-.4915,.1205-.9983,.0872-1.4898-.009-.1456-.3474-.4004-.5013-.3792-.3987,.0576-.7981,.2063-1.1667,.3853-1.8647,.9163-3.7231,1.8417-5.5756,2.7823-3.4115,1.7325-6.8929,3.292-10.5372,4.4814-5.1282,1.6748-10.3256,2.4697-15.6929,1.3441-.1603-.0334-.3532-.0819-.4897-.0273-.2115,.0849-.4801,.2154-.5615,.4005-.1667,.3732-.2603,.7888-.3205,1.1954-.4865,3.383-.9853,6.7661-1.4327,10.1521-.4558,3.4741-.8038,6.9572-.7494,10.4708,.0333,2.1846,.3417,4.3145,1.0122,6.396,.384,1.1894,.7314,2.3909,1.0731,3.5924,.2058,.7282,.3231,1.4594,.0635,2.2119-.1603,.4673-.7224,.7161-1.2026,.5097-.7224-.3125-1.1846-.8951-1.6141-1.514-1.9365-2.8065-3.0154-5.9195-3.2545-9.3208-.2115-3.0038-.1269-6.0106,.2295-8.9931,.8103-6.7904,1.8923-13.5383,3.1429-20.2588,.5955-3.1949,1.1577-6.4051,1.4808-9.6333,.3353-3.3436-.5833-4.2447-3.4449-5.5949-.2962-.1396-.6346-.1972-.9519-.2943-2.0006-.6038-4.034-.9588-6.1378-.8435-1.4109,.0789-2.8224,.1214-3.9885,.1699l.0026,.003h0Z" fill="#19132d"></path><path d="M57.6085,205.0935c-7.0881-.4154-14.346,.0122-21.5706-.682-2.7346-.2635-5.4844-.3788-8.2129-.6846-1.4764-.1635-2.9407-.5276-4.3808-.9122-.7064-.1878-1.4037-.5487-2.007-.9724-1.628-1.1487-1.6644-3.1878-.0788-4.4333,.5093-.4032,1.1399-.7269,1.7675-.8936,4.0989-1.0942,8.1796-2.2519,12.436-2.6455,3.729-.3455,7.4429-.8487,11.1719-1.2,1.4006-.1333,2.8256-.0699,4.2383-.0301,.6094,.0148,1.1308-.0423,1.619-.4519,4.0897-3.4147,8.2098-6.7961,12.2814-10.2353,1.6523-1.3974,3.2045-2.9122,4.8204-4.3545,.4305-.3821,.8974-.7513,1.4097-.9968,.2122-.1032,.67,.0423,.864,.2333,.1971,.191,.3122,.5878,.2759,.8724-.0394,.3032-.2487,.6244-.4699,.8577-.57,.6058-1.1824,1.1724-1.7887,1.7423-2.7953,2.6211-5.5783,5.2513-8.3918,7.8481-2.6315,2.4269-5.3024,4.8115-7.9461,7.2237-1.2794,1.1667-1.2551,1.3481,.2365,2.3301,.1395,.091,.288,.1699,.4365,.2423,.4336,.2154,.5457-.009,.5973-.4058,.0303-.2365,.1-.5667,.2667-.6641,.2426-.1423,.6579-.2449,.8701-.1301,.2213,.1244,.4275,.5487,.3881,.8-.0424,.2756-.379,.5032-.5821,.7577-.2001,.2513-.0454,.5814,.2486,.709,.3547,.1545,.6033,.0154,.9217-.1212,1.0369-.4423,1.0672-.4276,1.531,.7365,.1334,.3333,.2395,.6179,.6397,.609,.4851-.009,1.0278,.0846,1.2885-.4968,.1364-.3,.2062-.6333,.3669-.9186,.2304-.409,.6488-.5603,1.0671-.418,.2759,.0968,.5367,.3545,.7034,.6058,.1213,.182,.1091,.4731,.1031,.7154-.0091,.4058,.1606,.6244,.5699,.6032,.6428-.0333,1.0338,.2545,1.4492,.7603,.8277,1.0058,1.2157,.9423,2.0949-.0788,.6851-.7968,1.2854-.8179,1.6887,.0942,.2728,.6179,.576,.9571,1.2309,1.0211,.4578,.0455,.8034-.0244,.9489-.5398,.0879-.3122,.2122-.6269,.3911-.8936,.2668-.4,1.0308-.3154,1.2763,.1147,.0394,.0731,.0819,.1429,.1152,.2186,.5639,1.3846,.5699,1.3846,1.7644,1.3359,.5033-.0211,.7458-.2455,.7004-.7667-.0152-.1603,0-.3391,.0606-.4878,.1334-.3359,.3942-.5545,.764-.4667,.2213,.0545,.476,.1974,.5912,.3788,.1183,.1878,.1092,.4699,.1031,.709-.0091,.3878,.1183,.6365,.5336,.6519,.4153,.0148,.8337,.0333,1.246,.0122,.4608-.0244,.7974-.2032,.7034-.7609-.0122-.0814-.0122-.1667,0-.2481,.0637-.4699,.3365-.8122,.7973-.7487,.2577,.0365,.4972,.3635,.6943,.6032,.0879,.109,.0637,.318,.0667,.4846,.0061,.418,.2516,.5603,.6245,.5667,.864,.018,1.6129-.0064,1.8857-1.1301,.1667-.6942,1.0247-.809,1.3065-.191,.3731,.8147,.8827,.9,1.5859,.7365,2.1071-.491,4.2353-.9122,6.309-1.5186,4.6596-1.3603,9.0103-3.4449,13.2032-5.8692,.2788-.1603,.5423-.3814,.7545-.6244,.4006-.4545,.3609-1.2212-.118-1.5692-.7397-.5333-1.4981-1.0545-2.2981-1.4846-2.7833-1.5032-5.6211-2.909-8.3737-4.4635-2.3891-1.3487-4.7263-2.8-7.0276-4.2968-2.6526-1.7244-5.269-3.5026-8.1521-4.8423-.4335-.2-.8186-.5481-1.1612-.891-.3547-.3513-.0364-1.1391,.4669-1.1481,.4821-.009,.9974,.0301,1.4492,.191,2.204,.7724,4.3325,1.7333,6.2998,2.9993,4.4872,2.8853,9.0891,5.5577,13.825,8.009,1.6186,.8365,3.2192,1.7391,4.5532,3.0423,.4641,.4513,1.1519,.6667,1.6551,1.0878,.434,.3635,.8462,.8147,1.1006,1.3147,.4795,.9423,.2365,1.9731-.5365,2.7365-2.0827,2.0635-4.4077,3.7782-7.0545,5.075-8.7955,4.3122-18.0752,6.2301-27.8404,5.5301-4.584-.3269-9.1497-.1878-13.7245,0-.5003,.0211-.9974,.0577-1.6432,.0968v.0096h0ZM199.2101,106.8217c-.1058,1.0167-.1327,1.5205-.2173,2.0115-.2141,1.2346,.4314,1.5019,1.4577,1.1167,1.6263-.6128,3.2256-1.3135,4.7859-2.0814,2.7583-1.359,5.559-2.6026,8.507-3.4885,2.4083-.7256,4.8647-1.0045,7.375-.8135,.8423,.0641,1.6327,.2609,2.3481,.7282,.4647,.3032,.5731,.8917,.1808,1.2558-.4827,.4462-.9776,.8981-1.5295,1.2442-2.734,1.7109-4.7167,4.1712-6.6692,6.6654-.4404,.5609-.3468,1.1372,.3019,1.4558,.9596,.4705,1.9493,.9532,2.9814,1.1833,1.8558,.4186,3.7538,.6494,5.634,.9769,.8994,.1551,1.8103,.2821,2.6769,.5494,.7,.2154,1.391,.5519,1.9885,.9769,.3712,.2609,.7571,.7763,.7756,1.1923,.0269,.5731-.6372,.6519-1.1019,.7551-1.4513,.325-2.9058,.6673-4.3692,.9224-3.066,.534-5.8904,1.7019-8.5641,3.2494-3.1628,1.8295-6.2679,3.7558-9.4365,5.5731-1.5814,.907-3.2077,1.7532-4.8859,2.4603-1.1314,.4795-2.366,.7583-3.5821,.9647-1.5929,.2673-3.1442,.109-4.4359-1.059-.2385-.2154-.5461-.4064-.8506-.4788-1.6237-.3949-2.2423-1.6474-2.5231-3.0885-.1718-.8859-.1058-1.8237-.1205-2.7365-.0064-.3308,.075-.6615,.0936-.9955,.0327-.6218-.3321-.8949-.9596-.6519-1.3917,.5397-2.7949,1.059-4.1404,1.6987-1.5692,.7494-3.1051,1.584-4.6115,2.4577-.709,.4122-1.3756,.9404-1.9641,1.5135-1.3487,1.3167-1.391,1.3564-.9987,3.2891,1.3487,6.6103,2.7096,13.2211,4.1397,19.8167,.9904,4.5596,2.1128,9.0891,3.1449,13.6372,.184,.8038,.2686,1.6442,.2897,2.4692,.0148,.707-.507,1.2987-1.1231,1.4897-.7269,.2218-1.584-.0731-1.9128-.7769-.2776-.5942-.4615-1.2468-.6006-1.8929-1.15-5.4641-2.2692-10.9308-3.4192-16.3949-1.4244-6.7679-2.7308-13.5609-3.6994-20.4115-.9237-6.5192-1.8256-13.0423-2.7462-19.5622-.1269-.907-.2026-1.8321-.4558-2.7058-.3442-1.1801,.0455-2.3058,.1026-3.4526,.0179-.3731,.3019-.7859,.5705-1.0833,.4404-.491,.9295-.9615,1.4692-1.3378,4.907-3.4314,10.2692-5.7429,16.2237-6.5532,.6545-.0878,1.3244-.1333,1.9821-.109,1.1109,.0423,2.0852,.4218,2.8942,1.25,.5128,.5282,1.0833,1.0378,1.7141,1.4019,1.6359,.9372,2.568,2.3449,2.8942,4.1558,.2199,1.2231,.3077,2.4699,.3923,3.2038l-.0064,.009h0Zm-2.4173-.1878c0-.3276,.0276-.8314-.0026-1.3288-.1481-2.4179-.8545-4.4353-3.5852-4.9782-.0782-.0154-.1538-.0641-.2231-.1128-1.1109-.7795-2.3724-.7731-3.5974-.5308-6.0897,1.2077-11.8083,3.2404-16.5519,7.5026-.6308,.5673-.7212,1.0077-.5372,1.7019,.534,2.0115,1.1378,4.0109,1.5603,6.0468,.8782,4.241,1.6538,8.5038,2.4712,12.757,.1635,.8494,.4801,1.0103,1.1231,.5462,.3378-.2429,.6635-.4974,.9865-.7615,3.8564-3.1551,8.2833-5.2,12.9885-6.659,1.3333-.4128,2.7519-.5917,4.1461-.7404,.6244-.0667,1.3006,.1513,1.9282,.3333,.3955,.1154,.6397,.4462,.7301,.9135,.3019,1.5654,.1391,2.9032-1.2519,3.9801-.7006,.5436-1.2167,1.3532-1.7353,2.0994-.5346,.7679-.7397,1.6718-.7096,2.6122,.0301,.9378,.607,1.5538,1.5481,1.6353,.9994,.0885,1.9705-.0179,2.9423-.3212,1.8378-.5737,3.5308-1.4442,5.1789-2.409,2.5801-1.5077,5.1237-3.0763,7.7071-4.5814,3.0872-1.7987,6.2436-3.4583,9.7141-4.4173,.3135-.0846,.6032-.2545,.8962-.4032,.0603-.0301,.1115-.1397,.1115-.2122,0-.0429-.1058-.1096-.175-.1244-.6487-.134-1.3006-.2429-1.9462-.3885-1.2917-.291-2.6013-.534-3.8628-.9256-1.2795-.3974-2.4231-1.0827-3.2654-2.184-.8628-1.1321-.875-1.9904-.0148-3.1673,1.1372-1.5532,2.4532-2.9308,3.9679-4.1199,.8481-.6673,1.6962-1.3353,2.5256-2.0237,.1-.0821,.1513-.3244,.1058-.4519-.0359-.1-.2532-.1942-.3859-.1885-1.9167,.0885-3.8058,.4006-5.5981,1.059-2.7218,.9981-5.4019,2.1115-8.0904,3.2006-1.8532,.7526-3.709,1.4378-5.743,1.4654-1.5628,.0212-1.6115,.0667-1.9071,1.6051-.1083,.5699-.175,1.1526-.2263,1.7353-.109,1.2468-.1872,2.4936-.2987,3.7404-.0269,.3006,.0333,.7647-.4314,.7282-.2808-.0244-.6551-.2423-.7846-.4853-.3077-.5737-.6609-1.1981-.7032-1.8231-.0968-1.4897-.1481-2.9917,.2442-4.4724,.4923-1.8564,.791-3.7494,.7545-5.8551l-.0032,.0032h0Zm-4.6711,20.2596c.018,.134,.0936,.7039,.1808,1.2712,.0096,.0551,.0968,.1186,.1603,.1365,.0692,.0186,.1994,.0154,.2173-.0237,.9718-1.8846,2.6013-3.1859,4.0314-4.6635,.1449-.1513,.1513-.4397,.2205-.6673-.284-.0846-.5763-.2667-.8481-.2365-.5673,.0635-1.1288,.2276-1.6865,.3641-2.0013,.4885-2.2,.7429-2.2724,2.8788-.0064,.1641,0,.3308,0,.9404h-.0032Z" fill="#19132d"></path><path d="M174.2999,198.0729c-3.8064,.0494-8.1231-.4013-12.4346-.9622-4.384-.5731-8.7801-1.0641-13.1551-1.7109-3.3955-.4994-6.691-1.4038-9.8077-2.9212-1.1949-.582-2.0699-1.3731-2.5417-2.6301-.2276-.607-.1974-1.1526,.1917-1.6641,.6692-.8712,1.3776-1.6039,2.5417-1.9038,2.016-.5211,3.9737-1.266,5.9712-1.8609,4.332-1.2872,8.7404-2.2224,13.225-2.7833,.909-.1135,1.8237-.2051,2.7423-.2513,1.2038-.0583,2.2494-.4109,3.2314-1.1679,3.5878-2.759,7.2237-5.4532,10.8353-8.1782,1.0038-.7577,1.9795-1.5513,2.9949-2.2929,.3282-.2391,.7237-.4602,1.1128-.5122,.2526-.034,.6051,.2026,.7968,.4199,.1032,.1167,.0545,.5244-.0731,.6744-.3224,.3769-.7115,.7051-1.1038,1.0115-1.7814,1.3981-3.6058,2.7378-5.3538,4.175-3.2314,2.6609-6.4026,5.4013-9.6372,8.059-1.0949,.9013-2.3167,1.6429-3.475,2.468-.5474,.3891-1.0859,.7878-1.6115,1.2013-.6596,.5211-.7417,1.0917-.1609,1.7045,.5712,.6038,1.207,1.1647,1.8788,1.6526,.3038,.2205,.784,.3218,1.1641,.2756,.5686-.0673,.9455,.0244,1.2282,.5609,.35,.6622,1.034,.8154,1.6936,.9199,.3372,.0519,.6263-.0429,.6506-.5154,.0154-.3154,.0974-.6679,.2673-.9224,.1006-.15,.4833-.2635,.6417-.1872,.2615,.1257,.5776,.3955,.6199,.6468,.0487,.2821-.225,.6038-.2763,.9231-.0276,.1686,.1731,.5301,.182,.5269,1.0917-.3583,2.025-.0583,2.9673,.5365,.3987,.2513,.9308,.1103,1.4045-.2051,1.1282-.7481,1.1461-.7147,1.9308,.159,.1609,.1808,.3135,.3897,.5109,.5154,.459,.2942,1.1615,.1224,1.5173-.3494,.1-.132,.1276-.316,.2308-.4449,.6083-.766,1.3378-.7051,1.6327,.2885,.2519,.8429,.6962,1.0545,1.4346,1.0423,.4474-.0064,.8122-.0859,.8487-.6596,.0147-.2417,.1154-.493,.234-.7077,.2429-.4417,1.0032-.4352,1.2558,.0154,.1154,.2083,.2032,.4686,.1974,.7051-.0154,.5667,.3071,.7141,.7692,.7353,.2494,.0096,.5013,.0064,.7506,.0064,.5628,0,.9609-.15,.9397-.8462-.0064-.2237,.1333-.4692,.2551-.6776,.1494-.2577,.6872-.3186,.891-.1013,.1609,.175,.3314,.3801,.4013,.6013,.1186,.3827,.0455,.8859,.6507,.8795,.5808-.0058,1.1974,.0429,1.6019-.4968,.1462-.1929,.1673-.4782,.3013-.6833,.3436-.5269,.8083-.5853,1.2462-.184,1.0551,.9654,1.4596,1.1404,2.4628,.4571,.6231-.4231,1.0942-.4878,1.8122-.4231,.8814,.0827,1.8115-.1257,2.6961-.3218,4.6641-1.0365,9.1423-2.6519,13.5231-4.5526,.6109-.2667,1.2282-.5423,1.8667-.7141,.2583-.0705,.5898,.1353,.8878,.2115-.0885,.3096-.0885,.6897-.2737,.9167-1.0308,1.2628-2.3897,2.0904-3.8333,2.7833-3.4115,1.634-6.9865,2.7987-10.6622,3.6173-2.7699,.6192-5.5756,1.0577-8.3667,1.5782-.493,.0923-.991,.166-1.4686,.3096-3.15,.9692-6.3782,1.2788-9.6526,1.2513-.9186-.0096-1.8397,0-3.3051,0l.0032,.0026h0Zm14.1519-29.4801c.1724,.0429,.5891,.0961,.9602,.2538,2.159,.9135,4.1269,2.1673,6.0173,3.5673,2.6898,1.9936,5.3801,3.9814,8.0942,5.9385,1.6968,1.2231,3.4718,2.3321,5.1417,3.5859,1.0622,.7987,2.0224,1.7462,2.9795,2.6814,.184,.1795,.275,.675,.1692,.9038-.2051,.4397-.6705,.4494-1.075,.2449-1.2615-.6346-2.6051-1.1583-3.7526-1.966-3.7558-2.6506-7.466-5.3756-11.1436-8.1436-2.2705-1.7096-4.3718-3.6474-7.0917-4.6506-.4769-.1769-.8397-.7776-1.1718-1.2449-.2686-.3808,.1724-1.1179,.8756-1.1737l-.0032,.0032h0Zm-56.9859,41.0121c-1.3385,.0583-2.6442-.1263-3.8654-.7019-.5942-.2776-1.1615-.6724-1.6596-1.1154-.6513-.582-.7769-1.4455-.4378-2.1564,.3423-.7115,1.0923-1.0865,1.8782-.893,.3154,.0776,.6244,.2199,.9212,.3686,1.5609,.7699,3.1545,.7859,4.8224,.4365,2.116-.4462,4.0936-1.2833,6.0737-2.1436,.8282-.359,1.7045-.6244,2.5808-.8115,.4833-.1038,.9635,.1263,1.2545,.6436,.309,.5461,.3391,1.2218-.0628,1.7365-.3667,.4654-.7744,.9436-1.2577,1.2449-3.1718,1.9724-6.5506,3.259-10.2474,3.3981v-.0064h0Zm-57.187-30.0147c1.3551,.091,2.7698-.2981,4.1696-.8154,.8417-.3135,1.6715-.7058,2.6176-.5237,.5074,.0974,.8566,.734,.5492,1.157-.2925,.4013-.5999,.8468-1.0029,1.0942-2.1131,1.2949-4.3786,1.8686-6.826,1.3705-.2388-.0506-.4835-.1038-.7133-.1853-.5999-.2167-.9939-.7808-.9551-1.3359,.0388-.5641,.5283-.9026,1.2864-.8712,.2447,.009,.4865,.0622,.8746,.1128v-.0032h0Z" fill="#19132d"></path><path d="M182.9531,174.9999c-.8994-.2481-1.8077-.4686-2.6878-.7667-.3045-.1038-.5737-.3744-.7994-.6224-.3071-.3365-.3853-.7545-.2006-1.1917,.1942-.4526,.6269-.7231,1.025-.591,2.2647,.7545,4.5776,.4686,6.8833,.4308,.2474-.0032,.5449,.0346,.7333,.1699,.15,.1103,.2878,.5,.2128,.5974-.2474,.3269-.5513,.6692-.9115,.8487-1.3224,.6507-2.7263,1.0244-4.2551,1.125h0Zm-49.9436-71.1833c0,.7045-.5718,1.3083-1.2429,1.3115-.659,0-1.3115-.6263-1.3179-1.2647-.0064-.632,.6372-1.2865,1.2808-1.2987,.7205-.016,1.2801,.5321,1.2833,1.2519h-.0032Zm-60.9532,1.3141c.8046-.0378,1.3442,.3147,1.3411,.8769,0,.5692-.5207,1.0263-1.1865,1.0429-.6974,.0167-1.3096-.3904-1.3727-.9192-.0631-.5167,.486-.9673,1.2181-1.0026v.0019Zm21.6424-.6462c-.5237,.0429-1.0628-.4429-1.0705-.9667-.0077-.4333,.4263-.9038,.8776-.9494,.5263-.0558,1.0404,.4205,1.0455,.9692,.0051,.4808-.3814,.909-.85,.9468h-.0026Zm.8468,8.7609c-.0429,.5032-.4474,.8718-.9353,.8564-.5462-.0147-1.0314-.5378-.9782-1.0506,.0462-.441,.5237-.8744,.9635-.8718,.5385,.0026,.9981,.5205,.9526,1.066h-.0026Zm-20.2853-20.2916c.5251-.0699,1.0476,.5603,1.0601,1.2814,.01,.6141-.3876,1.2006-.8526,1.2712-.5151,.0776-1.0601-.5731-1.0701-1.2776-.01-.5872,.4126-1.2109,.8651-1.2712l-.0025-.0038Zm-7.9167,1.3744c-.047,.6532-.6777,1.2289-1.2917,1.182-.6106-.0468-1.2347-.6699-1.2683-1.2622-.0403-.7301,.7381-1.4167,1.4528-1.2827,.6576,.1205,1.1508,.7333,1.1072,1.366v-.0032h0Zm60.4738,10.159c-.4519-.0269-.8532-.4776-.8558-.9596-.0026-.5564,.4981-1.009,1.059-.9596,.4641,.0417,.8365,.4577,.8628,.9596,.0269,.5244-.4929,.9917-1.0635,.957l-.0026,.0026h0Zm-51.4969-.6404c-.0072,.625-.4015,1.2141-.8562,1.2763-.5176,.0692-1.0763-.6019-1.0667-1.2763,.0097-.6846,.5732-1.3526,1.0739-1.2769,.4523,.0692,.8562,.6782,.8489,1.2801v-.0032h0Zm-8.9944-.1083c-.1354,.4833-.8157,.8263-1.4554,.7333-.6431-.0923-1.1474-.5782-1.0831-1.0442,.0644-.4705,.7277-.8987,1.3369-.8609,.7412,.0449,1.3504,.6385,1.1981,1.1744,0,0,.0034-.0026,.0034-.0026Zm8.0889-20.4006c.4843,.0603,.903,.659,.9056,1.2949,.0025,.7301-.5953,1.3891-1.1276,1.2449-.4767-.1314-.8476-.7974-.7895-1.4199,.0606-.6423,.5424-1.1776,1.0115-1.1199h0Zm-8.0759,1.4173c-.0675,.6141-.6717,1.1519-1.2758,1.1423-.6919-.0103-1.3467-.7474-1.2759-1.4314,.0642-.6045,.6852-1.1519,1.2826-1.1321,.729,.0231,1.3501,.7173,1.2691,1.4212h0Zm30.7763,21.4077c-.0442,.5045-.6391,.9083-1.3083,.8878-.6327-.0179-1.2276-.4686-1.2545-.9494-.0308-.593,.6558-1.0481,1.4538-.9628,.6827,.0724,1.1532,.5096,1.1058,1.0244h.0032Zm-19.2333-.1115c.023,.5083-.3624,.9462-.8754,.9955-.5871,.0571-1.072-.4224-1.0439-1.0288,.0255-.5186,.4467-.9051,.9674-.8891,.5003,.0154,.9316,.4327,.9545,.9224h-.0026Zm39.5102-1.5692c-.4923,.0526-.9519-.3083-1.0333-.8141-.0821-.5006,.2449-.9846,.732-1.0872,.5391-.1128,1.1487,.3583,1.1769,.9096,.0256,.4635-.3981,.9417-.8782,.9917h.0026Zm-14.3987-1.9122c.6404,.0449,1.1833,.5019,1.1731,.9865-.0103,.5038-.5731,.9308-1.2308,.9308-.7564,0-1.4276-.5519-1.3224-1.0917,.0917-.4769,.7494-.8711,1.3801-.8282v.0026h0Zm-30.8383-21.8006c.5901-.0064,1.1802,.6013,1.2363,1.2756,.0632,.7288-.3934,1.2423-1.1345,1.2859-.8429,.0468-1.4858-.5538-1.419-1.3327,.0527-.6346,.6814-1.2218,1.3172-1.2288Zm13.0056,21.2776c-.2917-.432-.3013-.8853-.0186-1.3109,.3205-.4808,.759-.7737,1.3244-.732,.5974,.0455,1.0833,.725,1.0295,1.409-.0481,.6026-.4513,1.0385-.9853,1.1327-.5808,.1013-.9942-.2301-1.4135-.575l.0635,.0763Zm-7.2763-.6872c-.0103,.6712-.4322,1.2045-.9513,1.2045-.5396,0-.9309-.4782-.9692-1.1872-.0435-.7885,.4756-1.4699,1.0408-1.3667,.4935,.0897,.8874,.6955,.8771,1.3526l.0026-.0032h0Zm-15.5008-10.9667c.6419-.0788,1.2734,.4256,1.3781,1.0994,.1151,.7564-.2687,1.3321-.9629,1.4372-.8268,.1295-1.5524-.4154-1.5804-1.1846-.0209-.6538,.5129-1.2776,1.1653-1.3558v.0038h0Zm11.0086,10.8398c.0565,.7635-.3671,1.2667-1.1083,1.325-.7801,.0615-1.3165-.3288-1.433-1.0372-.1306-.791,.4729-1.5173,1.2636-1.5205,.6459-.0032,1.2283,.5583,1.2777,1.2327h0Zm23.7229,.0961c0,.7032-.5122,1.2212-1.2244,1.2353-.7224,.0135-1.2545-.4397-1.3327-1.143-.0846-.7513,.6141-1.482,1.3532-1.4173,.6308,.0551,1.2038,.6833,1.2038,1.3212,0,0,0,.0038,0,.0038Zm-30.7706,11.866c-.0344,.4474-.7127,.9301-1.2807,.907-.6507-.0256-1.3461-.659-1.2772-1.157,.0516-.3603,.6162-.7385,1.1429-.7641,.7333-.0327,1.4528,.4801,1.415,1.0141Zm39.0834-10.6308c-.7032-.0308-1.2301-.5462-1.2609-1.2327-.0269-.6282,.5577-1.284,1.1827-1.3288,.7442-.0513,1.4167,.6353,1.3795,1.4077-.034,.6833-.5981,1.1814-1.3013,1.1506v.0032Zm9.5051-2.5577c.6224-.0692,1.2718,.4436,1.391,1.0936,.1256,.7019-.2994,1.3353-.9692,1.4417-.8436,.1378-1.5237-.3718-1.5712-1.1763-.0378-.6301,.5199-1.2904,1.1526-1.3628l-.0032,.0038h0Zm-17.8179,10.9725c-.0103,.6853-.5596,1.2077-1.2615,1.2006-.7128-.0071-1.2487-.4981-1.2994-1.1904-.0577-.7577,.6583-1.4532,1.4006-1.3667,.6513,.0763,1.1705,.6853,1.1603,1.3564Zm27.1808-10.9788c.2987,.3147,.6513,.5821,.8801,.9558,.2917,.4737,.1154,1.2026-.2942,1.4468-.3853,.2295-.7846,.2295-1.1417-.0968-.3846-.3558-.4654-1.0295-.141-1.4885,.2115-.3,.5032-.5263,.7571-.7853l-.0628-.0321h.0026Zm-56.0275,1.291c.0179,.6628-.385,1.2327-.8983,1.2705-.5519,.041-.9497-.3917-1.0164-1.0994-.0744-.8032,.3978-1.5141,.9728-1.459,.48,.0442,.924,.6526,.942,1.2878Zm-1.0818-10.9013c.4787-.0615,.9574,.4276,1.0629,1.0904,.1055,.6667-.229,1.3301-.7283,1.4423-.6434,.1474-1.1375-.3417-1.1735-1.1654-.0309-.6699,.3603-1.3058,.839-1.3705v.0032h0Zm2.5458,12.1743c.5422-.0128,1.0598,.6019,1.099,1.2987,.0319,.5853-.4023,1.2263-.8562,1.2628-.5765,.0462-1.0451-.5122-1.0647-1.2756-.0172-.6641,.3729-1.2756,.8218-1.2859Zm-5.9506-1.2455c0,.7615-.4571,1.2314-1.2109,1.2455-.7223,.0135-1.2806-.4596-1.347-1.1442-.0767-.7859,.5653-1.4468,1.3784-1.4192,.649,.0212,1.176,.6122,1.176,1.3179h.0035Zm41.766,3.816c.6878,.0436,1.1859,.4545,1.1827,.9763,0,.4859-.593,.9353-1.2404,.9404-.7686,.0077-1.409-.5295-1.3141-1.1032,.0808-.4987,.691-.8603,1.3686-.816l.0032,.0026Zm-32.1552-13.2628c-.0524,.709-.5803,1.1263-1.3564,1.0724-.6887-.0474-1.2235-.618-1.2026-1.2833,.021-.6244,.6467-1.259,1.2655-1.2756,.7586-.0237,1.3564,.6615,1.2935,1.4865Zm23.727,11.7154c-.0583-.4955,.4474-.9654,1.0897-1.0179,.7519-.0622,1.4962,.4378,1.4692,.9878-.0205,.4577-.6628,.925-1.2712,.9301-.6526,.0051-1.2333-.4-1.2878-.9Zm-28.8514,2.4506c.0205,.5032-.3566,.9359-.8747,1.0058-.5695,.075-1.0723-.4147-1.0466-1.0186,.0231-.5231,.4335-.907,.9568-.8968,.5028,.0135,.944,.4276,.9646,.9096Zm9.6152-14.3641c.023,.6615-.3778,1.2353-.891,1.2731-.5438,.0372-.9549-.4006-1.0238-1.0897-.074-.7609,.4263-1.5179,.9702-1.4705,.4672,.0442,.9217,.6622,.9421,1.2872h.0025Zm44.1272,10.8936c.659-.0404,1.2731,.3308,1.3724,.8276,.0994,.5122-.3327,.9808-.9917,1.0763-.7474,.1077-1.5192-.3461-1.5571-.9154-.0308-.4769,.5314-.9487,1.1801-.9885h-.0039Zm-49.8313-7.0532c.8489,.0321,1.3139,.4833,1.2012,1.1628-.0704,.4301-.5496,.7455-1.1554,.7583-.8384,.0186-1.4478-.4462-1.3879-1.0603,.0494-.5218,.62-.8897,1.3422-.8609h0Zm5.7038,1.0186c-.0229,.5179-.4457,.9109-.9679,.9032-.5017-.0077-.927-.4218-.9526-.9269-.0306-.6128,.4585-1.066,1.0672-.9872,.5196,.068,.8788,.4897,.8533,1.0109Zm-15.251,10.5173c-.8038,.0263-1.4511-.4506-1.4128-1.0449,.0313-.5,.6299-.8968,1.3188-.8763,.7412,.0237,1.211,.3737,1.2422,.9308,.0313,.5321-.4732,.9699-1.1483,.9904h0Zm11.6978-7.0513c-.4903-.0212-.9115-.4519-.932-.9519-.0229-.5827,.5056-1.0455,1.1005-.9596,.5056,.0724,.8529,.516,.8197,1.0481-.0332,.5109-.4622,.8878-.9882,.8635Zm15.7333,3.509c.0205,.4737-.5545,.9417-1.1981,.9769-.7737,.0423-1.4141-.4481-1.3622-1.0391,.0442-.5109,.6327-.9141,1.2904-.8795,.6468,.0327,1.2494,.4808,1.2699,.9442v-.0026h0Zm-22.7922-7.9949c.5048-.0051,.9558,.3904,.9942,.8782,.0513,.6077-.4176,1.0821-1.0326,1.0423-.5048-.0314-.8942-.4635-.8865-.9853,.0077-.5397,.3946-.9301,.9224-.9353h.0026Zm15.0856,10.7936c-.0688,.5103-.5615,.8359-1.0859,.7224-.5456-.1192-.8608-.5295-.8185-1.0641,.0424-.5288,.4582-.8731,1.0171-.8333,.6357,.0423,.98,.5,.8873,1.175h0Zm8.5675-1.1743c.5487-.0442,.9801,.284,1.0519,.8006,.075,.5314-.2449,1.0109-.7269,1.1019-.5756,.1071-1.1404-.3231-1.1827-.9038-.0372-.5135,.341-.9545,.8603-.9987h-.0026Zm-10.4772-10.9378c.0345,.6519-.5069,1.2532-1.1758,1.3135-.6654,.0603-1.2723-.4244-1.3723-1.0962-.1172-.7923,.4965-1.5045,1.2654-1.4609,.6413,.0365,1.2517,.625,1.2827,1.2436h0Zm20.2938,12.8551c-.5179,.0314-.9635-.3237-1.0468-.8359-.1019-.6173,.3327-1.1032,.9686-1.0846,.5558,.0154,.9256,.3763,.9391,.9224,.016,.541-.3513,.9667-.8609,.9981Zm-21.5284-4.4795c.6594,.0481,1.243,.4981,1.236,.9583-.0069,.5654-.7734,1.0455-1.5156,.9455-.6526-.0872-1.1049-.5429-1.0427-1.0532,.0621-.5128,.6594-.8981,1.3188-.8526l.0035,.0019Zm-16.7063-16.6724c.8099,.0083,1.351,.4897,1.2672,1.1346-.0558,.4391-.5201,.7654-1.1171,.7872-.8448,.0295-1.4941-.4256-1.4347-1.009,.0524-.525,.6074-.918,1.2846-.9103v-.0026Zm12.812,22.6404c-.0276,.5936-.3821,1.0705-.7968,1.0776-.7063,.0141-1.2216-.7365-1.1085-1.6038,.0654-.4942,.5128-.9705,.9024-.9603,.5781,.0179,1.0406,.7045,1.0029,1.4865Zm12.1849-1.3795c.5429-.0141,1.0929-.0859,1.6327-.0321,.5359,.0538,.9103,.618,.9276,1.225,.0173,.5897-.3712,1.1077-.9244,1.2256-.732,.1532-1.3917-.157-1.5122-.8327-.0962-.5462-.0205-1.125-.0237-1.693l-.1032,.1071h.0032Zm7.0442,1.3474c-.041,.6827-.4833,1.168-1.0096,1.1038-.4981-.0609-.9071-.65-.9096-1.3071,0-.7827,.534-1.3647,1.1346-1.2327,.5058,.1109,.8282,.7039,.7846,1.4359Zm3.7449,1.1064c-.6936-.05-1.1801-.5923-1.1769-1.316,0-.7244,.5141-1.2449,1.2218-1.2449,.7936,0,1.4147,.6776,1.3353,1.4622-.0654,.6526-.6865,1.1481-1.3801,1.0987h0Zm5.8737-1.1814c-.0205,.6987-.5821,1.2154-1.2801,1.1833-.6571-.0288-1.232-.5885-1.2801-1.2442-.0577-.7731,.6301-1.3936,1.4513-1.3115,.6846,.0718,1.1327,.6276,1.109,1.3724Zm3.525-1.3788c.5096,.0173,.9128,.541,.959,1.2353,.0519,.7756-.4596,1.4058-1.0724,1.3205-.5122-.0711-.8711-.6513-.8455-1.3596,.0231-.7051,.4346-1.2141,.959-1.1962Zm-40.407,2.5635c.5051,0,.9635,.5545,.9843,1.2019,.0259,.7865-.4611,1.4205-1.0491,1.3577-.5284-.0551-.8806-.5853-.8729-1.309,.0078-.6442,.4611-1.2474,.9377-1.2506h0Zm20.216,1.3346c0,.6994-.5154,1.2154-1.2346,1.2295-.7327,.0135-1.2481-.4333-1.3231-1.15-.0814-.7654,.6071-1.4788,1.357-1.4096,.634,.059,1.1974,.6827,1.2006,1.3301h0Zm-13.0155-20.5692c-.6173,.0506-1.102-.3897-1.0867-.9878,.0128-.4885,.4617-.9314,.9464-.9314,.4974,0,.926,.3974,.9719,.9077,.0485,.5365-.3061,.9686-.8316,1.0115Zm16.5014,21.1538c-.541-.0397-.9218-.4372-.9218-.9551,0-.5833,.5647-1.0538,1.1404-.9494,.5224,.0942,.8103,.4917,.7808,1.0776-.0295,.5494-.416,.8711-.9994,.8269h0Zm-3.4878,8.6468c.0372,.5064-.4705,.9269-1.1686,.9686-.7244,.0442-1.2731-.2756-1.3782-.8-.1218-.6019,.4942-1.1391,1.2769-1.1186,.6397,.0179,1.2327,.4622,1.2667,.9474,0,0,.0032,.0026,.0032,.0026Zm-7.0498-30.7051c-.021,.534-.5482,.9135-1.264,.9083-.831-.0083-1.3862-.4942-1.2885-1.1199,.0803-.5154,.6809-.8577,1.3967-.7962,.7018,.0615,1.1732,.4731,1.1558,1.0077h0Zm40.385,11.8699c.0071,.7333-.4865,1.2179-1.2391,1.2179-.7635,0-1.275-.45-1.3218-1.1667-.0545-.8026,.616-1.4705,1.3904-1.391,.6628,.0692,1.1635,.6436,1.1705,1.3397h0Zm-20.1968,8.2718c.5442,0,.925,.3596,.9628,.9115,.0397,.5827-.2763,.9692-.8231,1.0058-.6436,.0449-1.1122-.3833-1.0962-.9929,.016-.5064,.4474-.9244,.9564-.9269v.0026Zm.9628-8.2077c-.016,.7301-.3994,1.1833-.9679,1.1526-.5577-.0314-.941-.5263-.9519-1.2256-.0103-.6647,.3968-1.2769,.8878-1.3327,.5923-.0654,1.0532,.5609,1.0346,1.4058h-.0026Zm-11.5391,11.6776c.0519,.4853-.4718,.9532-1.1269,1.0083-.6891,.0577-1.2929-.2801-1.4135-.7859-.1378-.5904,.4551-1.1404,1.2205-1.1308,.6378,.0077,1.2686,.4429,1.3167,.9083h.0032Zm1.9269-11.7397c.0026,.7378-.3635,1.216-.9269,1.216-.5692,0-.9596-.4609-.9942-1.1673-.0372-.7936,.4756-1.4763,1.0474-1.3891,.5026,.0756,.8686,.6372,.8712,1.3404h.0026Zm7.6673,11.9936c-.1513,.5109-.784,.8359-1.4513,.7462-.7705-.1051-1.259-.6936-1.0321-1.2462,.1962-.4782,.9391-.7763,1.5551-.6211,.6667,.1654,1.066,.6506,.925,1.1237l.0032-.0026h0Zm-7.6692,2.1346c-.0269,.7154-.4391,1.2199-.9647,1.1891-.5923-.0346-1.0314-.7429-.9455-1.5205,.075-.6705,.5494-1.1237,1.0795-1.0301,.5333,.0936,.8603,.6256,.8308,1.3615Zm-3.2199,1.191c.7885,.0173,1.3853,.7179,1.2885,1.5109-.0801,.6436-.7224,1.1167-1.4205,1.0455-.6981-.0711-1.1596-.6224-1.1321-1.3545,.0244-.7186,.5519-1.2199,1.2641-1.2019h0Zm-22.4192-17.5795c-.0204,.5135-.5778,.9147-1.2644,.9122-.6662-.0026-1.2338-.4019-1.2951-.9096-.068-.575,.622-1.0692,1.4072-1.0083,.6832,.0532,1.1726,.4814,1.1488,1.0058h.0034Zm3.4795-13.1917c-.489-.034-.9047-.6154-.9152-1.2814-.0104-.6994,.387-1.2712,.889-1.2814,.604-.0103,1.0799,.6423,1.0303,1.4058-.0444,.659-.5047,1.1904-1.0041,1.157Zm-11.1755,1.0814c-.0419,.5333-.5083,.9-1.0637,.8353-.5554-.0641-.9196-.5199-.8463-1.0615,.076-.5769,.5004-.9167,1.0533-.8442,.5449,.0705,.9012,.5122,.8567,1.0705h0Zm9.6185-.1211c.0181,.5109-.3801,.9359-.8997,.9628-.5197,.0269-.9619-.3397-1.0162-.8423-.0672-.618,.3853-1.1103,.9929-1.0782,.5015,.0269,.9049,.4442,.923,.9551v.0026Zm3.7528-.9577c.772-.0244,1.2937,.3141,1.3678,.8923,.0775,.5878-.3948,1.0071-1.1598,1.0288-.7685,.0186-1.3395-.3442-1.3924-.884-.0529-.5506,.4759-1.0128,1.1809-1.0372h.0035Zm-2.5268,7.0532c.6892,.0071,1.2706,.5237,1.3333,1.1782,.0731,.7679-.5988,1.4391-1.3785,1.3788-.6544-.05-1.1871-.641-1.1801-1.3083,.007-.6885,.5639-1.2583,1.2219-1.2519,0,0,.0035,.0032,.0035,.0032Zm7.5306-5.1353c-.5149,.0455-.9785-.3058-1.0528-.7994-.0769-.5179,.2613-1.0141,.7505-1.1026,.5866-.1071,1.104,.2949,1.1578,.9013,.0461,.5147-.3279,.9494-.8556,.9981v.0026h0Zm-10.6803,20.5058c.0304,.6885-.484,1.2558-1.1777,1.2917-.6531,.0321-1.2657-.4686-1.3706-1.1211-.1218-.7526,.5415-1.4724,1.3233-1.4404,.6735,.0282,1.1912,.5673,1.2251,1.2699h0Zm.001-18.8596c-.0171,.5308-.5308,.9135-1.2431,.9218-.6918,.0077-1.2465-.3641-1.3151-.8788-.0753-.5744,.613-1.0917,1.387-1.041,.6883,.0436,1.1849,.4692,1.1712,.9981h0Zm4.4874,.0506c-.0353,.5641-.4699,.9282-1.0348,.8635-.5785-.0647-.9235-.4692-.8854-1.0391,.0381-.5455,.4862-.9205,1.043-.8718,.5404,.0455,.9098,.4885,.8746,1.05l.0027-.0026Zm-9.6203,.0019c-.0349,.5532-.4781,.9224-1.0341,.8628-.564-.0615-.9212-.4795-.881-1.0404,.0376-.5423,.4942-.925,1.0421-.8711,.5346,.0513,.9106,.5013,.8756,1.0487h-.0027Zm16.6716,18.7737c.0289-.7686,.5565-1.2622,1.3227-1.2372,.7662,.0295,1.2758,.575,1.2396,1.3218-.0362,.75-.5927,1.2699-1.3263,1.2404-.7589-.0295-1.2613-.5712-1.2324-1.325h-.0036Zm-7.9081-1.2372c.4871,.0109,.83,.4455,.8545,1.0814,.0381,.9391-.3892,1.5494-1.0395,1.4763-.5633-.0622-.928-.6397-.8763-1.3923,.0517-.7346,.4545-1.1801,1.0586-1.1654,0,0,.0028,0,.0028,0Zm-8.7622-13.1064c-.0609,.5551-.6262,1.0103-1.1306,.9128-.4348-.0859-.8001-.5551-.7885-1.0077,.0174-.5494,.5566-.9788,1.1219-.8904,.4435,.0686,.8436,.5615,.7972,.9853h0Zm2.5617,2.4212c.0575,.575-.2991,.9859-.9174,1.0628-.4687,.0571-.8914-.2603-.9777-.734-.1093-.5974,.1955-1.0577,.7706-1.1641,.5751-.1071,1.0669,.2603,1.1244,.8353Zm-2.5581,2.6846c.0057,.5853-.4369,.9929-1.0194,.9449-.5083-.0397-.8595-.3705-.8995-.8487-.0485-.5776,.3284-1.016,.9195-1.0667,.5568-.0481,.9965,.3763,.9994,.9673v.0032Zm8.6796-.9724c.5647,.0295,.9438,.4333,.9357,1-.0054,.5532-.4383,.9519-.9921,.9192-.5781-.0353-.9465-.4282-.9303-.9923,.0162-.575,.4194-.957,.9867-.9269Zm9.3863,.0026c.7227,.0455,1.2117,.4865,1.1613,1.0487-.0468,.559-.64,.9295-1.3807,.8622-.7586-.068-1.2296-.484-1.1757-1.0436,.054-.5487,.64-.916,1.3915-.8673h.0036Zm-15.2343,99.9942c-.5646-.032-.9776-.5506-.8989-1.125,.0646-.4564,.5449-.8449,.9747-.7917,.5421,.0705,.9972,.6269,.9326,1.1455-.0505,.409-.559,.7949-1.0084,.7712Zm16.3992-113.5044c0,.65-.762,1.3481-1.4414,1.3256-.6044-.0224-1.1374-.6013-1.1224-1.2256,.0188-.7462,.6982-1.4,1.3851-1.3333,.5743,.0558,1.1824,.691,1.1787,1.2333h0Zm-12.5493,111.5846c.546-.032,.9572,.3455,1.0065,.9224,.0493,.5705-.329,.9987-.8848,.9987-.5822,0-1.0065-.3647-1.0328-.891-.0263-.5199,.398-1.0019,.9078-1.0301h.0033Zm51.8704,24.3647c.5494-.0699,1.0429,.3385,1.0628,.9212,.0128,.4686-.1577,.8519-.6846,.9718-.5263,.1205-1.141-.2654-1.2269-.75-.0853-.5032,.3391-1.0763,.8519-1.1398l-.0032-.0032h0Zm2.0609-.0077c-.5968-.0064-1.0256-.4263-.9962-.9795,.0301-.5686,.5179-.9981,1.066-.9378,.5276,.0596,.9038,.5654,.8506,1.1404-.0391,.4327-.4487,.7769-.9167,.7737l-.0038,.0032h0Zm-2.9205,2.9616c-.0103,.5461-.4353,.9115-1.0173,.8833-.5333-.0289-.9455-.4865-.9026-1.0071,.0455-.55,.4936-.9532,1.0199-.9115,.5173,.0378,.9128,.4955,.9,1.0385v-.0032h0Zm-.8968-2.9647c-.5712,.0032-.9987-.3692-1.025-.8962-.0263-.518,.4013-1.0006,.9077-1.0231,.5423-.0218,.95,.3506,1.009,.9282,.0558,.5429-.343,.991-.8917,.9942v-.0032h0Zm4.7372,3.0814c-.0423,.4058-.4865,.7744-.9269,.7679-.5744-.0096-1.0186-.4539-.9891-.9904,.0327-.5519,.5353-.9897,1.0705-.9263,.4994,.057,.9045,.6058,.8455,1.1519v-.0032h0Zm-2.7974-6.9211c.5205,.041,.893,.4872,.8795,1.0494-.0128,.5756-.4115,.9135-1.0212,.866-.5372-.041-.9494-.5058-.8968-1.0147,.0558-.5494,.5109-.9449,1.0385-.9006h0Zm-3.9705,.0006c.5269-.0474,.9545,.3462,1.0006,.9218,.0462,.5718-.3321,.9942-.8853,.9974-.5827,0-1.0103-.3686-1.0333-.8865-.0199-.5083,.4013-.9852,.9147-1.0295l.0032-.0032h0Zm-46.0459-16.6724c-.5715,.0019-.9992-.2462-1.0253-.5981-.0262-.3449,.4016-.6667,.9078-.6814,.542-.0148,.9503,.2333,1.009,.6186,.0555,.3622-.3428,.6609-.8914,.6628,0,0,0-.0019,0-.0019Zm-4.8725-.3051c.0092-.4955,.4152-.9359,.8976-.9724,.5801-.0455,1.0655,.4744,1.0228,1.0968-.0336,.5077-.4732,.8628-1.0105,.8205-.519-.0398-.9189-.4526-.9098-.9417v-.0032Zm7.6922-2.4622c-.0264,.491-.3529,.8186-.8444,.8442-.6003,.032-1.0687-.3628-1.0786-.9141-.0099-.5449,.4585-1.0135,1.0093-1.0071,.541,.0032,.9433,.4814,.9104,1.0769h.0033Zm98.0737-5.8032c0,.5532-.4346,.9263-1.0064,.8756-.5391-.0474-.9474-.5026-.9115-1.0083,.0397-.5436,.4968-.9487,1.0231-.9077,.5128,.0417,.8981,.4904,.8981,1.0404h-.0032Zm2.8308,.8776c-.5385-.0353-.9468-.491-.9013-1.0077,.0494-.5545,.5-.9539,1.0256-.9096,.5122,.0417,.8974,.491,.8942,1.0455,0,.5545-.4179,.9096-1.0154,.8718h-.0032Zm-51.8282,46.1596c.5474,.0064,.9756,.4821,.9186,1.0622-.0468,.475-.3109,.7987-.8455,.8526-.5846,.057-1.0654-.3551-1.0724-.9096-.0064-.5551,.4481-1.0115,1.0026-1.0083l-.0032,.0032h0Zm-54.8456-43.1904c-.0065,.5487-.4278,.9173-1.0155,.8763-.5388-.0378-.9469-.4885-.9045-1.0058,.0424-.5487,.4931-.9519,1.022-.9115,.5159,.041,.9045,.4891,.898,1.041Zm59.6148,28.2038c-.0167,.5763-.4987,.9564-1.0936,.868-.525-.0795-.7737-.418-.8237-.8808-.0596-.5289,.425-1.0135,.9737-1.0289,.5385-.016,.9635,.4494,.9436,1.0417Zm-2.9551,.8852c.5609-.0539,1.0359,.3667,1.0327,.9449,0,.4769-.2244,.8276-.7327,.9506-.5179,.1263-1.1288-.2846-1.1846-.7833-.0596-.5372,.3564-1.0583,.8846-1.1122h0Zm-5.7718,14.1019c.5538-.0474,1.025,.3705,1.0353,.95,.0096,.4846-.2359,.8237-.7308,.9474-.5103,.1237-1.1231-.2949-1.1853-.7891-.0686-.5256,.3603-1.0641,.8808-1.1083Zm1.0321-11.1398c-.0032,.5513-.4276,.9173-1.0122,.8763-.5359-.0378-.9474-.4917-.9045-1.0058,.0423-.5487,.4929-.9519,1.0218-.9115,.516,.041,.9013,.4891,.8981,1.041h-.0032Zm2.9654-1.0372c.5038,.0442,.884,.4968,.884,1.0539,0,.5442-.432,.9058-1.025,.859-.534-.0442-.9429-.5064-.8942-1.016,.0526-.5474,.5077-.9436,1.0353-.9v.0032h0Zm3.9352,1.9102c-.5462,.0635-1.0827-.3455-1.125-.8647-.0455-.5353,.4058-1.0423,.9353-1.0519,.5397-.009,.8244,.3077,.9487,.7538,.157,.5577-.2192,1.0994-.7558,1.1628h-.0032Zm-9.8333,1.9256c-.5404-.0378-.9532-.4942-.9064-1.0077,.0494-.5513,.4974-.9468,1.0321-.909,.5244,.0378,.8968,.475,.8872,1.0423-.0103,.5763-.4058,.9186-1.0128,.8744h0Zm8.7032,7.4506c-.0372,.5789-.5096,.9558-1.0994,.8756-.5327-.0731-.7705-.4218-.8179-.8821-.0532-.5308,.4256-1.0071,.9788-1.0295,.5429-.0224,.975,.4539,.9385,1.0359Zm-4.8564-9.368c.5468-.032,.959,.3455,1.0083,.9224,.0462,.5705-.3327,.9955-.8865,.9987-.5833,0-1.0051-.3647-1.0314-.8942-.0263-.5199,.3987-.9987,.9096-1.0269h0Zm3.7891,1.916c-.5308-.0474-.9667-.5949-.8276-1.116,.1154-.4359,.3724-.7891,.9199-.8019,.5577-.0096,.9962,.4423,.9763,1.0083-.0199,.5756-.4782,.9641-1.0686,.9096h0Zm-4.7064,.9186c.0622,.5423-.3295,.9936-.8744,1.009-.5673,.016-1.0045-.3564-1.0404-.8865-.0359-.5141,.3917-1.009,.8936-1.0346,.5417-.0282,.9558,.3442,1.0212,.9122Zm2.8352-.9122c.5359-.0282,.957,.3538,1.0128,.9199,.0519,.534-.3494,.9859-.8917,1.0013-.5622,.016-.9994-.3667-1.0256-.8942-.0263-.518,.3981-1.0013,.9045-1.0269h0Zm-.9064,7.3686c.0231,.5936-.3981,.9904-.9897,.9622-.5494-.0256-.809-.3654-.9141-.8064-.1186-.5077,.3519-1.0635,.8711-1.1109,.559-.0513,1.0096,.3615,1.0327,.9551h0Zm-4.7276-.9564c.5179,.041,.9013,.4936,.8814,1.0442-.0231,.566-.4295,.9083-1.0269,.8731-.5282-.0314-.9436-.5064-.891-1.0154,.0564-.5474,.5083-.9436,1.0397-.9019h-.0032Zm9.5667-.0032c-.5724,0-1.0173-.443-.991-.9865,.0263-.566,.5167-.9961,1.0564-.9295,.5103,.0628,.916,.6006,.8603,1.1378-.0423,.4019-.4904,.7782-.9256,.7782h0Zm-3.8135-.0032c-.5628,.0128-.9974-.3667-1.0237-.8974-.0263-.5154,.4013-.9955,.9083-1.0211,.5404-.0282,.9449,.3449,1.0077,.9263,.059,.534-.3423,.9795-.8923,.9955v-.0032h0Zm-3.8449,0c-.5712,.0032-.9987-.3692-1.025-.8962-.0263-.518,.4013-1.0006,.9077-1.0231,.5423-.0218,.95,.3506,1.009,.9282,.0558,.5429-.343,.991-.8917,.9942v-.0032h0Zm-1.9032-3.8404c.5205,.0269,.893,.3244,.8763,.6994-.0128,.3833-.4115,.609-1.0218,.5769-.5372-.0269-.9487-.3365-.8962-.6763,.0558-.3667,.5109-.6301,1.0417-.6h0Zm11.8263-.0019c.3481,.0148,.6192,.3583,.5865,.7378-.0269,.2923-.2782,.5256-.591,.5423-.393,.0211-.6994-.2583-.6885-.6276,.0115-.3667,.3308-.6673,.6904-.6526h.0026Zm-4.1885,1.2808c-.5731,.0148-1.0231-.2833-.9897-.6538,.0359-.3808,.5192-.6712,1.0654-.6224,.5135,.0468,.7846,.2628,.8474,.5782,.0731,.3699-.3571,.6833-.9263,.6981h.0032Zm-2.9147-.5878c-.0096,.384-.409,.6135-1.0096,.5865-.5442-.0256-.9532-.325-.9103-.6712,.0462-.3647,.4949-.6308,1.0256-.6077,.5282,.0231,.9006,.3147,.891,.6923h.0032Zm5.7641-2.3282c.0564,.5558-.366,.9904-.9603,.9936-.4391,0-.9013-.3647-.9506-.7551-.066-.5237,.343-1.0891,.8385-1.159,.5442-.0756,1.0167,.3269,1.0724,.9205h0Zm-5.7731-5.5526c-.0526,.5077-.566,.8596-1.1192,.7603-.5397-.0968-.8744-.5577-.7782-1.084,.0891-.5109,.6423-.9064,1.1192-.8071,.4968,.1058,.8346,.5917,.7814,1.1308h-.0032Zm56.9904-33.2025c-.3532-.0481-.6449-.5898-.5545-1.116,.075-.4365,.2385-.8019,.6071-.8019,.3647,0,.6603,.4526,.6583,1.0167,0,.5551-.318,.9558-.7135,.9013h.0026Zm-5.0583-2.5609c-.1955,.1558-.4699,.5289-.8179,.6167-.5622,.1429-1.0558-.3147-1.1019-.8635-.0468-.5359,.4404-1.0583,.9596-1.0327,.5596,.0295,.9539,.4615,.9603,1.2763v.0032h0Zm-98.626,10.2487c-.7688,.0654-1.3223-.2167-1.3702-.5609-.0512-.3603,.4237-.7224,.9362-.7115,.5399,.0109,1.0592,.3186,.9738,.6897-.0546,.2359-.3997,.4442-.5364,.5853l-.0034-.0026Zm44.0093,14.7596c.4904,.0519,.8494,.4314,.7558,.7968-.091,.3519-.6551,.5577-1.2397,.4506-.4263-.0776-.7288-.3795-.6583-.6564,.0904-.3545,.6519-.6436,1.1423-.591h0Zm-3.7179,4.9442c-.0173,.4269-.2776,.7872-.5878,.816-.4032,.0385-.7122-.3731-.6923-.9212,.0199-.5679,.3327-1.0237,.6833-.9981,.3372,.0218,.6186,.5449,.5968,1.1064v-.0032h0Zm1.6865,2.7385c-.6013,.0096-1.0269-.3455-1.0436-.8686-.0199-.5385,.3891-1.0141,.8942-1.0487,.5513-.0353,.9667,.3327,1.0231,.9096,.0532,.5705-.3192,1.0013-.8737,1.0109v-.0032h0Zm-1.6853,13.4737c-.1513,.157-.3577,.5263-.6141,.6128-.384,.1288-.6904-.4173-.6667-1.0205,.0192-.4628,.3071-.8865,.5974-.8833,.3737,.0064,.6929,.5039,.6833,1.2942v-.0032h0Zm2.5577-10.5032c-.066,.5622-.6891,1.0173-1.1994,.8397-.4968-.1705-.7103-.5654-.7173-1.0506-.0032-.4352,.4442-.8263,.9167-.8333,.591-.0096,1.0667,.4852,1,1.0442h0Zm-2.559-2.0199c.0231,.5583-.284,1.0173-.6615,.9724-.3506-.041-.5494-.3474-.609-.8-.0686-.5295,.2218-1.0686,.5679-1.116,.359-.0481,.6795,.3827,.7006,.9436h.0019Zm8.3346-7.9577c-.0141,.3788-.4859,.6429-1.0699,.5942-.5096-.0442-.7865-.2551-.8468-.5673-.068-.3455,.4282-.6974,.9449-.709,.5263-.0109,.9853,.3103,.9718,.6846v-.0026Zm-63.0637-18.6288c.5292-.0173,.8679,.2667,.8835,.6148,.0177,.3724-.2746,.6628-.6665,.6654-.383,.0045-.6863-.2974-.6-.6981,.0509-.2385,.2834-.4385,.383-.584v.0019Zm18.1919-114.1833c-.0985,.1487-.1692,.3449-.2985,.4436-.7324,.5853-1.511,.207-1.6218-.8109-.0246-.2256,.12-.6109,.2801-.709,.5785-.3532,1.354,.0686,1.5972,.7962,.0277,.0872,.0277,.1853,.0431,.2763v.0038Zm42.0199,157.7711c.4173,.4686,.8147,.7378,.9064,1.0558,.1494,.5032-.4776,.9314-1.0974,.8596-.4821-.0583-.9333-.475-.7686-.8654,.134-.3212,.5199-.5814,.9596-1.0468v-.0032h0Zm7.8795-3.8423c.3718-.05,.7218,.4071,.741,.9718,.0167,.4308-.2494,.8917-.5442,.9417-.3667,.0635-.7122-.3974-.7359-.9852-.0192-.4641,.225-.8885,.5391-.9314v.0032h0Zm-13.3635-4.9122c-.1494,.1045-.3571,.343-.618,.4058-.3859,.0955-.707-.2756-.6564-.6724,.0436-.3346,.275-.532,.618-.5885,.3526-.0583,.6904,.3237,.6564,.8551Zm13.4083-5.35c-.309-.0263-.5808-.4365-.5853-.8795-.0045-.5833,.3391-1.1167,.6974-1.0333,.3391,.0833,.5571,.3872,.5827,.9,.0301,.5731-.3019,1.0461-.6949,1.0128h0Zm-15.334-4.4942c-.15,.159-.3673,.5481-.634,.6365-.3628,.1237-.7179-.6154-.6288-1.1705,.0711-.4526,.4192-.7923,.7423-.732,.3256,.0603,.5628,.516,.5205,1.2622v.0039h0Zm-41.6631-26.2769c.0271,.3288-.3049,.6013-.7858,.6397-.5792,.0474-1.1008-.2359-1.1347-.6192-.0237-.2968,.3455-.5942,.8061-.6487,.5555-.0654,1.0804,.2314,1.111,.6282h.0034Zm98.0746-6.366c.0513,.8462-.4083,1.2827-1.0442,1.2385-.5218-.0372-.875-.3955-.875-.8904,0-.6077,.5-1.157,1.0513-1.0032,.3827,.1058,.6731,.4981,.868,.6551Zm7.6917,.2872c.0455,.5256-.2538,.884-.7795,.9455-.6301,.075-1.1596-.3346-1.1385-.8981,.0212-.5122,.2891-.8705,.7968-.9936,.5365-.1327,1.0692,.3385,1.1211,.9462h0Zm-114.6313,6.7237c-.5302-.0615-.8014-.4173-.7403-.7859,.0464-.2808,.3909-.5301,.6768-.4923,.3615,.0487,.7012,.4417,.5668,.7679-.0928,.2231-.3713,.3821-.5033,.5102h0Zm2.4481-3.1718c.0557,.7288-.1748,1.1577-.5217,1.2378-.3267,.0769-.666-.2583-.7395-.7288-.0861-.5545,.2862-1.3115,.6205-1.1647,.2761,.1218,.4913,.4949,.6408,.6558h0Zm56.4159,20.6884c-.2365,.1058-.5712,.3365-.9769,.4167-.466,.0917-.9359-.2378-.9436-.5699-.0109-.4237,.5115-.7506,1.1013-.6891,.4923,.0513,.8564,.3506,.8192,.8397v.0026h0Zm49.1243-27.132c.2103,.191,.6526,.4295,.8212,.7808,.2442,.5045-.341,1.1391-.9301,1.1423-.4724,0-.9038-.416-.9333-.8968-.034-.5115,.3109-.941,1.0423-1.0231v-.0032h0Zm-46.1525,30.1282c.2045,.1224,.6423,.2795,.8218,.5135,.2404,.316-.3513,.75-.9365,.7679-.4558,.0141-.8974-.2679-.9301-.5955-.0282-.3244,.3487-.6429,1.0449-.6859Zm-.0904,5.7692c-.5071,.0103-.9442-.3917-.9551-.8808-.0147-.5237,.334-.9673,.8083-1.0333,.5949-.0833,1.1391,.4199,1.1135,1.0263-.0224,.4782-.4558,.8769-.9667,.8878h0Zm4.8128,6.8615c.0199,.5654-.3365,.9167-.7481,.8128-.2058-.0519-.4468-.2782-.5122-.4737-.1205-.3583,.2962-.8699,.625-.7801,.2686,.0731,.4821,.3301,.6353,.441h0Zm-28.9667,3.4026c.3327-.0558,.6795,.1897,.75,.525,.068,.3308-.1583,.6442-.5256,.734-.3295,.0801-.6872-.1673-.7372-.5102-.0506-.35,.1833-.6923,.5154-.7462l-.0026-.0026Zm-1.7494,3.8353c-.4763-.1077-.725-.566-.6904-1.0173,.0321-.441,.3564-.9058,.6295-.9026,.3436,0,.7718,.7205,.6167,1.1583-.1205,.3436-.4128,.5763-.5558,.7647v-.0032Zm5.0667-.6705c-.2308,.1628-.5545,.5365-.9673,.6538-.5135,.1487-1.0494-.5737-.9301-1.1519,.0968-.4699,.625-.8301,1.0827-.7365,.5058,.1038,.8891,.5603,.8147,1.2346Zm27.5731-.4141c-.1667,.1192-.3808,.3769-.643,.4385-.3449,.0795-.6994-.4103-.6301-.7788,.0571-.3,.4282-.5603,.7135-.4801,.3385,.0936,.5526,.3045,.5571,.8205h.0026Zm-30.8891,1.1c.3212-.0859,.6833,.2942,.7494,.7891,.066,.5019-.1571,.9718-.5218,1.1013-.3263,.1147-.691-.2654-.7417-.7712-.0506-.5167,.1872-1.0333,.5167-1.1192h-.0026Zm42.4,5.7571c.3103-.0032,.6635,.4846,.6686,.9308,.0051,.4602-.3103,.959-.6282,.991-.3205,.0314-.641-.425-.6532-.9308-.0128-.4923,.2923-.984,.6154-.991h-.0026Zm-3.1814,.9737c-.0115,.4487-.5205,.9423-.9808,.9494-.4673,.007-.9346-.4731-.9385-.9699-.0038-.466,.5019-.9705,.9615-.9526,.4558,.0173,.9692,.5391,.9615,.9731h-.0038Zm-4.6192,.9461c-.716-.0141-1.157-.5006-1.1461-1.0051,.0077-.4789,.5218-.9513,.9936-.9128,.4833,.0391,1.0622,.5853,.9026,.9904-.1526,.3878-.5481,.6949-.75,.9308v-.0032h0Zm-3.7128-.9461c-.0077,.4449-.3474,.9423-.6538,.9494-.3115,.007-.6231-.4731-.6256-.9699-.0026-.466,.3346-.9705,.641-.9526,.3038,.0173,.6462,.5391,.641,.9731h-.0026Zm-3.8462,0c-.0077,.4487-.3474,.9423-.6538,.9494-.3115,.007-.6231-.4731-.6256-.9699-.0026-.466,.3346-.9705,.641-.9526,.3038,.0173,.6462,.5391,.641,.9731h-.0026Zm-3.8474,0c-.0115,.4487-.5205,.9423-.9808,.9494-.4673,.007-.9346-.4731-.9385-.9699-.0038-.466,.5019-.9705,.9615-.9526,.4558,.0173,.9692,.5391,.9615,.9731h-.0038Zm-3.8436-.3128c.0308,.8083-.5494,1.3538-1.1186,1.2494-.5917-.1077-.7955-.5173-.8032-1.0135-.0077-.4442,.5423-1.0064,.9378-.8782,.4154,.1353,.7455,.4789,.984,.6423h0Zm37.8218-1.6558c0,.491-.4372,.9609-.9359,.993-.4994,.0327-.9673-.4077-.9865-.9243-.016-.4942,.4333-.9821,.9205-.9968,.4718-.0141,.9942,.4731,.9981,.9282h.0038Zm-3.8532,.3916c-.2558,.1513-.6282,.5006-1.059,.5923-.4692,.0994-.9-.5039-.8538-1.0301,.0468-.5147,.5551-.9417,1.0519-.875,.5077,.066,.9423,.5846,.8571,1.3128h.0038Zm-4.4801-.3859c.0103,.4756-.2949,.9551-.6256,.9872-.3333,.0327-.6462-.4032-.6564-.9224-.0103-.4942,.2923-.9878,.6128-.9987,.3103-.0109,.659,.4756,.6667,.934h.0026Zm-5.1282,.0256c0-.4705,.334-.9737,.6397-.9596,.3058,.0148,.6474,.532,.6423,.9744-.0051,.4596-.334,.9378-.6526,.9487-.3186,.0103-.6295-.4641-.6295-.9635Zm-2.5833,.4006c-.2712,.1455-.6538,.4776-1.0872,.5558-.4686,.082-.8788-.5481-.809-1.0731,.0699-.518,.5923-.9173,1.091-.8314,.5263,.0929,.9173,.6077,.8051,1.3487Zm-3.8462,0c-.2712,.1455-.6538,.4776-1.0872,.5558-.4686,.082-.8788-.5481-.809-1.0731,.0699-.518,.5923-.9173,1.091-.8314,.5263,.0929,.9173,.6077,.8051,1.3487Zm-4.4705-.4808c.0333,.4878-.241,.9756-.5859,1.0372-.3301,.0622-.6603-.3532-.691-.8699-.0308-.5096,.2455-1.0122,.5756-1.0449,.3224-.0327,.6654,.3968,.6987,.8776h.0026Zm-3.8442,.132c-.0179,.4776-.3494,.9224-.6776,.9115-.3314-.0109-.6141-.4776-.6038-1.0019,.0077-.4885,.3468-.9583,.6654-.9186,.3256,.0398,.634,.5423,.616,1.009h0Zm-3.85,.3083c-.1705,.1513-.4192,.5006-.7064,.5923-.3128,.0994-.6-.5039-.5686-1.0301,.0308-.5147,.3699-.9417,.7006-.875,.3391,.066,.6288,.5846,.5718,1.3128h.0026Zm-8.9205,.5974c-.3327,.0583-.6577-.3538-.6885-.8718-.0282-.5109,.2481-1.0109,.5788-1.0436,.3224-.0333,.6654,.4051,.6987,.8827,.0333,.4891-.2436,.9712-.5917,1.0365l.0026-.0039h0Zm-3.8487,0c-.3327,.0583-.6577-.3532-.6859-.8737-.0282-.5102,.2481-1.009,.5788-1.0417,.3224-.0327,.6654,.4038,.6987,.8814,.0333,.4878-.2436,.9686-.5917,1.034h0Zm-3.7654,.0019c-.491-.0141-.7763-.4878-.7686-1.0019,.0077-.4808,.3494-.9513,.6654-.9154,.3212,.0359,.7045,.5782,.5987,.9949-.0974,.3878-.3647,.6929-.4955,.9263v-.0039Zm50.0045-1.9192c-.4859-.025-.7756-.5013-.7731-1.0064,.0051-.4763,.3494-.9532,.6647-.9147,.3205,.0391,.7039,.5756,.6,.9923-.0955,.3853-.3622,.6923-.4942,.9288h.0026Zm-3.9423-1.9077c.1583,.2538,.5288,.6205,.5981,1.0346,.0808,.475-.5397,.9071-1.0494,.8712-.4936-.0327-.9058-.5449-.8635-1.0673s.5513-.9404,1.3147-.8385Zm-3.8962,1.3366c-.1789,.1468-.434,.4865-.7224,.5635-.309,.0846-.5821-.5526-.5417-1.0756,.0436-.516,.3936-.918,.7256-.8269,.3519,.0955,.618,.6109,.5385,1.3391h0Zm-3.841-.0391c-.1686,.1551-.4141,.5019-.7032,.5994-.3045,.1006-.5961-.509-.5679-1.032,.0282-.5128,.3686-.9385,.7006-.8737,.3404,.0686,.6346,.5923,.5705,1.3032v.0032Zm-4.5058-1.3128c.3103-.007,.6635,.4846,.6686,.9308,.0051,.4602-.3103,.959-.6282,.991-.3205,.0314-.641-.425-.6532-.9308-.0128-.4923,.2923-.984,.6154-.991h-.0026Zm-3.1814,.9737c-.0115,.4487-.5205,.9423-.9808,.9494-.4673,.007-.9346-.4731-.9385-.9699-.0038-.466,.5019-.9705,.9615-.9526,.4558,.0173,.9692,.5391,.9615,.9731h-.0038Zm-5.7654-.0173c-.0077-.4692,.4949-.9699,.9558-.9564,.457,.0141,.9788,.5359,.9673,.9667-.0115,.4449-.5218,.9455-.9788,.9564-.4609,.0103-.9365-.4763-.9442-.9667Zm-2.5667-.0846c.0327,.4724-.2506,.9808-.5865,1.0455-.3237,.0609-.6551-.3583-.6904-.8737-.0327-.5083,.2429-1.0135,.5737-1.0417,.3212-.0327,.6705,.4006,.7032,.8731v-.0032h0Zm-3.8442,.1353c-.0205,.4686-.3603,.9263-.6776,.916-.3199-.0109-.609-.4904-.6038-1.0051,.0051-.4859,.3449-.9545,.6622-.9154,.3269,.0423,.6391,.5461,.6192,1.0006v.0039Zm-12.8474-1.0071c.3103-.0032,.6635,.4846,.6686,.9308,.0051,.4602-.3103,.959-.6282,.991-.3205,.0314-.641-.425-.6532-.9308-.0128-.4923,.2923-.984,.6154-.991h-.0026Zm-3.5808,.0154c.1051,.2538,.3519,.6205,.3987,1.0346,.0538,.475-.3603,.9071-.6994,.8712-.3295-.0327-.6045-.5449-.5763-1.0673,.0282-.5224,.368-.9404,.8769-.8385h0Zm-4.3308,1.9019c-.4853,.0609-.982-.3609-1.0314-.8756-.0494-.5077,.368-1.0083,.8647-1.0404,.4821-.0289,1.0051,.4038,1.0506,.8756,.0494,.4718-.3833,.9724-.8872,1.0365l.0032,.0039h0Zm-3.9186-1.9173c.4167,.4487,.8295,.7141,.9365,1.0455,.157,.4821-.4929,.934-1.1045,.8718-.4737-.0461-.925-.4731-.7603-.8814,.1295-.3308,.5199-.5936,.9321-1.0359h-.0038Zm52.8833-.9635c0-.4705,.5013-.9737,.9596-.9596,.4583,.0148,.9712,.532,.9635,.9744-.0077,.4596-.5013,.9378-.9788,.9487-.4782,.0103-.9442-.4641-.9442-.9635Zm-3.0545-.9494c.5032-.0776,1.025,.291,1.1167,.7917,.0917,.4936-.2551,.9718-.7968,1.1006-.484,.1141-1.0288-.2686-1.1013-.7801-.0763-.5192,.2859-1.0346,.7853-1.1122h-.0039Zm-3.3583,.9692c-.0051,.4609-.3359,.9365-.6538,.9436-.3231,.007-.6256-.4577-.6256-.9647,0-.4686,.3385-.9724,.6436-.9583,.3026,.0148,.6436,.5365,.6385,.9795h-.0026Zm-3.8462,0c-.0051,.4609-.3359,.9365-.6538,.9436-.3231,.007-.6256-.4577-.6256-.9647,0-.4686,.3385-.9724,.6436-.9583,.3026,.0148,.6436,.5365,.6385,.9795h-.0026Zm-5.7667-.0199c0-.4705,.5013-.9737,.9596-.9596,.4583,.0148,.9712,.532,.9635,.9744-.0077,.4596-.5013,.9378-.9788,.9487-.4782,.0103-.9442-.4641-.9442-.9635Zm-2.8103,.9577c-.4994,.0583-.9865-.3538-1.0327-.8718-.0423-.5109,.3724-1.0109,.8673-1.0436,.484-.0333,.9987,.4013,1.0487,.8827,.05,.4891-.3647,.9712-.8872,1.0365l.0038-.0039h0Zm-3.6045-.5975c-.1705,.1513-.4192,.5006-.7064,.5923-.3128,.0994-.6-.5039-.5686-1.0301,.0308-.5147,.3699-.9417,.7006-.875,.3391,.066,.6288,.5846,.5718,1.3128h.0026Zm-20.6218-1.3096c.3359-.0776,.684,.291,.7449,.7917,.0609,.4936-.1731,.9718-.5314,1.1006-.3224,.1141-.6859-.2686-.734-.7801-.0513-.5192,.1904-1.0346,.5231-1.1122h-.0026Zm-4.3737,.9494c0-.4705,.334-.9737,.6397-.9596,.3058,.0148,.6474,.532,.6423,.9744-.0051,.4596-.334,.9378-.6526,.9487-.3186,.0103-.6295-.4641-.6295-.9635Zm-2.5731-.1269c.0724,.4897-.3,.9692-.8359,1.075-.4942,.0987-1.0147-.2962-1.0718-.8154-.0609-.5308,.3154-1.0314,.8173-1.0865,.5051-.0583,1.0179,.3295,1.0904,.8269Zm-8.3276,.0487c.0359,.4821-.2333,.95-.5917,1.0327-.3353,.0756-.6628-.3346-.6859-.8603-.0231-.518,.2462-1.0077,.5769-1.0506,.3224-.0436,.6628,.3846,.6981,.8782h.0026Zm57.7314-2.7891c.1577,.2538,.5282,.6205,.5974,1.0346,.0846,.475-.5436,.9071-1.0487,.8712-.4936-.0327-.9058-.5449-.8635-1.0673s.5513-.9404,1.3147-.8385Zm-4.4737,1.9019c-.3237,.0609-.6551-.3609-.6878-.8756-.0327-.5077,.2455-1.0083,.5763-1.0404,.3212-.0289,.6705,.4038,.7006,.8756,.0327,.4718-.2526,.9724-.5917,1.0365l.0026,.0039h0Zm-4.5365-.9609c-.0051-.4692,.3301-.9699,.6372-.9564,.3045,.0141,.6526,.5359,.6449,.9667-.0077,.4449-.3481,.9455-.6526,.9564-.3071,.0103-.6244-.4763-.6295-.9667Zm-2.5647,.0506c-.0205,.4686-.3603,.9263-.6776,.916-.3199-.0109-.609-.4904-.6038-1.0051,.0051-.4859,.3449-.9545,.6622-.9154,.3269,.0423,.6391,.55,.6192,1.0045h0Zm-4.6224,.9128c-.716-.0141-1.157-.5006-1.1461-1.0045,.0077-.4795,.5218-.9519,.9936-.9135,.4833,.0391,1.0622,.5853,.9026,.9904-.1526,.3878-.5481,.6949-.75,.9308v-.0032h0Zm-3.0731-.9462c-.0115,.4487-.5205,.9423-.9808,.9494-.4673,.007-.9346-.4731-.9385-.9699-.0038-.466,.5019-.9705,.9615-.9526,.4558,.0173,.9692,.5391,.9615,.9731h-.0038Zm-24.9192,.3006c-.325,.0577-.6673-.207-.7128-.5532-.0455-.3481,.2115-.6872,.5468-.7179,.3346-.034,.6769,.2282,.725,.5526,.0455,.3173-.2192,.6558-.559,.7186Zm-4.4115-1.2679c.5-.0506,1.0301,.1974,1.1167,.525,.0865,.318-.2705,.6507-.7968,.7372-.4699,.0769-1.0192-.1833-1.1019-.5224-.0827-.3423,.2821-.6891,.7782-.7397h.0038Zm42.7961-1.2763c-.0051,.3071-.3365,.6237-.6551,.6288-.3237,.0045-.6269-.3051-.6269-.6436,0-.3122,.3391-.6481,.6423-.6385,.3032,.0096,.6449,.3577,.6397,.6532Zm-5.1282-.0135c0-.3135,.334-.6494,.6397-.6397s.6474,.3545,.6423,.6494c-.0051,.3071-.334,.6256-.6526,.6327-.3186,.007-.6295-.309-.6295-.6423Zm-2.5641,.0135c-.0077,.3071-.5051,.6237-.9827,.6288-.4859,.0045-.9404-.3051-.9404-.6436,0-.3141,.509-.6481,.9635-.6385,.4545,.0096,.9673,.3577,.9596,.6532Zm-4.8442-.6532c.466-.0045,.9865,.3218,.9981,.625,.0115,.3173-.4474,.6346-.9442,.6558-.4968,.0218-.9667-.2737-.9782-.6173-.0154-.3295,.4429-.6564,.9244-.6635Zm-3.4949,.5545c.0481,.3276-.2038,.6558-.5532,.7192-.3256,.059-.675-.2058-.7186-.5455-.0429-.35,.2115-.6878,.5455-.725,.3365-.0365,.6776,.2231,.7263,.5513h0Zm-19.866,.068c.0103,.3173-.2949,.6365-.6256,.6583-.3333,.0218-.6462-.2692-.6564-.6148-.0103-.3295,.2923-.659,.6128-.666,.3103-.007,.659,.3199,.6667,.6224h.0026Zm-4.3596,.6596c-.4936-.0096-.7788-.3263-.7686-.6692,.0077-.3212,.3494-.6353,.6654-.6115,.3212,.0237,.7045,.3859,.5987,.6641-.0974,.2596-.3647,.4635-.4955,.6167Zm-3.334-.6077c-.0269,.318-.5237,.6148-1.0167,.6077-.4968-.0077-.9199-.3186-.9045-.6679,.0115-.3256,.5199-.6391,.9974-.6128,.4885,.0269,.9506,.3622,.9237,.6731Zm37.8218-1.9468c-.0077,.2955-.3545,.6314-.65,.6314-.3032,0-.632-.3359-.632-.6455,0-.2891,.3571-.641,.6474-.6365,.2904,.0045,.6423,.3641,.6346,.6507Zm-4.7295,.6288c-.4769,.0333-.9731-.2513-1.034-.5878-.0609-.3301,.3673-.6718,.8635-.691,.4814-.0167,.9962,.2699,1.0494,.5859,.0532,.3173-.3827,.6596-.875,.6929h-.0038Zm-3.966-1.2795c.4654-.0045,.9955,.3231,1.0032,.6205,.0077,.3064-.4654,.6391-.9423,.6603-.4808,.0211-.9609-.2827-.9801-.6205-.0192-.3276,.4385-.6558,.9231-.6603h-.0038Zm-4.766,.8385c.041-.4942,.1994-.7538,.5628-.8282,.3846-.0769,.7673,.2955,.7141,.6865-.05,.368-.3147,.6199-.6372,.5814-.2474-.0314-.4667-.3122-.6397-.4397h0Zm-18.5955-.2853c.0481,.3167-.2141,.6558-.5538,.7205-.3167,.0603-.6718-.209-.7173-.5474-.0449-.3487,.209-.6897,.541-.7231,.3353-.034,.6801,.2231,.7276,.55h.0026Zm-3.8442,.0961c-.0115,.2987-.5205,.6282-.9808,.6327-.4673,.0045-.9346-.3154-.9385-.6468-.0038-.3103,.5019-.6468,.9615-.6353,.4558,.0122,.9692,.3596,.9615,.6494h-.0038Zm-3.8423-.0314c.0109,.3064-.4596,.6391-.9385,.6628s-.9615-.2808-.984-.6179c-.0192-.3276,.4333-.6583,.9154-.6628,.4673-.0045,.9955,.3205,1.0032,.6179h.0038Zm36.8256-2.5385c.4615-.0051,.9744,.318,.9942,.6282,.0231,.318-.4308,.6359-.9359,.6507-.5045,.0167-.9667-.2744-.9859-.6192-.016-.3276,.4462-.657,.9237-.6622l.0038,.0026h0Zm-4.7744,.6372c0-.3135,.5013-.6494,.9596-.6397s.9712,.3545,.9635,.6494c-.0077,.3071-.5013,.6256-.9788,.6327-.4782,.007-.9442-.309-.9442-.6423Zm-3.0776,.6423c-.4936-.0096-.7788-.3263-.7686-.6692,.0077-.3212,.3494-.6353,.6654-.6115,.3212,.0237,.7045,.3859,.5987,.6641-.0974,.2596-.3647,.4635-.4955,.6167Zm-20.6404-.6423c0-.3135,.334-.6494,.6397-.6397s.6474,.3545,.6423,.6494c-.0051,.3071-.334,.6256-.6526,.6327-.3186,.007-.6295-.309-.6295-.6423Zm-2.5769,.2673c-.1808,.0968-.4359,.318-.725,.3699-.3122,.0551-.5853-.3647-.5391-.7154,.0462-.3449,.3949-.6109,.7276-.5539,.3506,.0622,.6115,.4051,.5365,.8994Zm-3.8346-.2327c-.0269,.318-.5237,.6148-1.0167,.6077-.4968-.0077-.9199-.3186-.9045-.6679,.0115-.3256,.5199-.6391,.9974-.6128,.4885,.0269,.9506,.3622,.9237,.6731Zm33.9718-2.2647c-.0115,.4449-.5205,.9423-.9808,.9494-.4673,.007-.9346-.4731-.9385-.9699-.0038-.466,.5019-.9705,.9615-.9526,.4558,.0173,.9692,.5391,.9615,.9731h-.0038Zm-5.7654-.0173c-.0077-.4692,.4949-.9699,.9558-.9564,.457,.0141,.9788,.5359,.9673,.9667-.0115,.4449-.5218,.9455-.9788,.9564-.4609,.0103-.9365-.4763-.9442-.9667Zm-3.3173-.309c.3333-.0506,.6872,.1974,.7449,.525,.0571,.318-.1808,.6507-.5314,.7372-.3135,.0769-.6795-.1833-.7346-.5224-.0551-.3423,.1878-.6891,.5192-.7397h.0019Zm-16.5545,.309c-.0051-.4692,.3301-.9699,.6372-.9564,.3045,.0141,.6526,.5359,.6449,.9667-.0077,.4449-.3481,.9455-.6526,.9564-.3071,.0103-.6244-.4763-.6295-.9667Zm-2.5667-.0846c.0327,.4724-.2506,.9808-.5865,1.0455-.3237,.0609-.6551-.3583-.6904-.8737-.0327-.5083,.2429-1.0135,.5737-1.0417,.3212-.0327,.6705,.4006,.7032,.8731v-.0032h0Zm-3.8647,.4801c-.2679,.1468-.6513,.4865-1.084,.5635-.4635,.0846-.8731-.5526-.8115-1.0756,.0647-.516,.5897-.918,1.0872-.8269,.5288,.0955,.9269,.6109,.8083,1.3391h0Zm30.1423-1.9551c-.2558,.1513-.6282,.5006-1.059,.5923-.4692,.0994-.9-.5039-.8538-1.0301,.0468-.5186,.5551-.9417,1.0519-.875,.5077,.066,.9423,.5846,.8571,1.3128h.0038Zm-4.4801-.3859c.0103,.4756-.2949,.9551-.6256,.9872-.3333,.0327-.6462-.4032-.6564-.9224-.0103-.4936,.2923-.9878,.6128-.9987,.3103-.0109,.659,.4763,.6667,.934h.0026Zm-19.8718,0c.0103,.4756-.2949,.9551-.6256,.9872-.3333,.0327-.6462-.4032-.6564-.9224-.0103-.4936,.2923-.9878,.6128-.9987,.3103-.0109,.659,.4763,.6667,.934h.0026Zm-4.3596,.9891c-.4936-.0141-.7788-.4891-.7686-1.0039,.0077-.4821,.3494-.9532,.6654-.9173,.3212,.0359,.7045,.5795,.5987,.9968-.0974,.3885-.3647,.6942-.4955,.9243h0Zm26.7917-2.9743c.0494,.4724-.3756,.9808-.8801,1.0455-.4853,.0609-.982-.3583-1.0353-.8737-.0494-.5083,.3641-1.0135,.8609-1.0417,.4821-.0327,1.0051,.4006,1.0545,.8731v-.0032Zm-4.4833,.0551c.0077,.4602-.3064,.959-.6256,.9942s-.641-.4212-.6558-.9269c-.0128-.4917,.2885-.9872,.6103-.9942,.3115-.007,.6635,.4814,.6686,.9269h.0026Zm-20.4359,.984c-.325,.0865-.6673-.3096-.7128-.8288-.0455-.5224,.2115-1.0308,.5468-1.0776,.3346-.0506,.6769,.3423,.725,.8288,.0455,.4756-.2192,.984-.559,1.0776Zm21.6936-3.834c.3109-.007,.6577,.4833,.6654,.9372,.0077,.4756-.2981,.9519-.6295,.984-.3314,.0327-.6449-.4109-.6526-.9263-.0103-.4936,.2955-.984,.6167-.9949Zm-3.5814,.0186c.1038,.2583,.3487,.6244,.3955,1.0378,.0571,.484-.3487,.9013-.6994,.8641-.3353-.0327-.6083-.5353-.575-1.0635,.034-.5244,.3692-.9417,.8788-.8423v.0039Zm6.1699-.966c-.0083,.4968-.3231,.9615-.6436,.9474-.3288-.0148-.6301-.4718-.6385-.9686-.0051-.4647,.334-.9647,.6468-.9545,.3096,.0109,.6404,.5218,.6327,.9756h.0026Zm-3.8468,.0314c-.0205,.4686-.3603,.9263-.6776,.916-.3199-.0109-.609-.4904-.6038-1.0051,.0051-.4859,.3449-.9545,.6622-.9154,.3269,.0423,.6391,.5461,.6192,1.0006v.0039Zm-3.8609-.0833c-.1859,.0929-.4455,.2949-.7333,.3513-.3205,.0648-.5878-.3462-.5237-.7109,.0609-.3564,.3968-.6148,.7224-.5558,.3436,.0622,.6135,.4218,.5372,.9154h-.0026Zm5.784-2.1724c-.0179,.318-.3494,.6148-.6776,.6077-.3314-.0077-.6141-.3186-.6038-.6679,.0077-.3256,.3468-.6391,.6654-.6128,.3256,.0269,.634,.3622,.616,.6731h0Zm-4.5109-.6744c.3109-.0045,.6577,.3218,.6654,.625,.0077,.3173-.2981,.6346-.6295,.6558-.3314,.0218-.6449-.2737-.6526-.6173-.0103-.3295,.2955-.6564,.6167-.6635Zm1.3064-1.2853c-.0051-.3128,.3301-.6468,.6372-.6378,.3045,.0096,.6526,.3577,.6449,.6449-.0077,.2962-.3481,.6301-.6526,.6372-.3071,.007-.6244-.318-.6295-.6442Zm-3.1558,.6404c-.3237,.0404-.6551-.241-.6878-.584-.0327-.3385,.2455-.6718,.5763-.6936,.3212-.0186,.6705,.2692,.7006,.584,.0327,.3147-.2526,.6481-.5917,.691l.0026,.0026Zm6.3455-2.8243c.0814,.509-.1679,.834-.5321,.8968-.3404,.0583-.6917-.2051-.7308-.55-.0391-.3519,.2333-.7705,.5526-.7192,.2859,.0455,.5372,.2763,.7077,.3724h.0026Zm-5.1128,.2628c0-.3135,.334-.6494,.6397-.6397s.6474,.3545,.6423,.6494c-.0051,.3071-.334,.6256-.6526,.6327-.3186,.007-.6295-.309-.6295-.6423Zm-2.5686,.2404c-.1705,.1006-.4192,.3333-.7064,.3949-.3128,.066-.6-.3359-.5686-.6865,.0308-.3436,.3699-.6282,.7006-.584,.3391,.0442,.6288,.3897,.5718,.8756h.0026Zm-37.816-14.3641c.0038,.3141-.4551,.6378-.9404,.6615-.4929,.0263-.9635-.2712-.982-.616-.0154-.3308,.4353-.657,.9173-.6641,.466-.007,.9974,.3192,1.0013,.6167,0,0,.0038,.0019,.0038,.0019Zm-4.5012,.2827c-.1788,.0974-.4341,.3244-.7226,.3756-.309,.0564-.5822-.368-.5413-.7173,.0435-.3436,.3933-.6122,.7252-.5506,.3524,.0628,.6179,.4071,.5388,.8923Zm-4.3501,.3782c-.4771-.009-.7715-.3333-.7639-.6692,.0051-.3199,.3477-.6346,.6624-.609,.3223,.0263,.7081,.3904,.6015,.6603-.1015,.259-.3654,.4628-.4999,.6205v-.0026h0Zm6.2826-2.3224c-.1707,.1006-.419,.3333-.7061,.3949-.3129,.066-.6001-.3359-.569-.6865,.031-.3436,.3699-.6282,.701-.584,.3388,.0442,.6288,.3897,.5716,.8756h.0026Zm-4.6095,.3943c-.3288-.0564-.5614-.4026-.5058-.7487,.0556-.3442,.4072-.5898,.7385-.5109,.3439,.0808,.5867,.425,.526,.7436-.0607,.3147-.4376,.5724-.7587,.516Zm-3.5918,.0077c-.4933-.0096-.7784-.3263-.7681-.6692,.0103-.3212,.3494-.6353,.6654-.6115,.3212,.0237,.7039,.3859,.5986,.6641-.0976,.2596-.3648,.4635-.4958,.6167Zm1.9187-1.9256c-.4771-.009-.7715-.3333-.7639-.6692,.0051-.3199,.3477-.6346,.6624-.609,.3223,.0263,.7081,.3904,.6015,.6603-.1015,.259-.3654,.4628-.4999,.6205v-.0026h0Zm-3.3422-.3782c-.1788,.0974-.4341,.3244-.7226,.3756-.309,.0564-.5822-.368-.5413-.7173,.0409-.3436,.3933-.6122,.7252-.5506,.3524,.0628,.6179,.4071,.5388,.8923Zm-16.0129-.2551c-.0362,.3808-.2994,.5731-.6581,.6314-.3071,.0487-.64-.3167-.6219-.6333,.0181-.2853,.3665-.6263,.6606-.6436,.3019-.0173,.6451,.3436,.6194,.6455h0Zm17.2847-3.2102c.3108-.007,.6576,.4833,.6653,.9372,.0077,.4756-.2979,.9519-.6293,.984-.3313,.0327-.6447-.4109-.6524-.9263-.0103-.4936,.2954-.9878,.6164-.9949Zm-3.2001,1.3609c-.2709,.1449-.654,.4769-1.0873,.5551-.4682,.082-.8784-.5481-.8087-1.0737,.0696-.518,.592-.9167,1.0912-.8308,.5262,.0929,.9171,.6077,.8049,1.3494h0Zm-4.4258-1.3436c.1556,.2577,.5214,.6263,.5915,1.0391,.0817,.4827-.5176,.891-1.0546,.8654-.5059-.0218-.9106-.5231-.8561-1.0609,.0545-.5231,.5565-.943,1.3153-.8474l.0039,.0039h0Zm122.3899-1.0686c.0494,.4724-.3801,.9808-.8814,1.0455-.4865,.0609-.9846-.3583-1.034-.8737-.0494-.5083,.3647-1.0135,.8628-1.0417,.4827-.0327,1.0071,.4006,1.0564,.8731l-.0039-.0032Zm-3.8506-.0423c.0718,.4756-.3212,.984-.8308,1.0808-.4756,.0904-1.0083-.3135-1.0763-.8212-.0679-.5224,.3135-1.034,.8122-1.0846,.5019-.0506,1.0192,.3353,1.091,.825h.0038Zm-4.4846,0c.0481,.4756-.2141,.984-.5538,1.0808-.3167,.0904-.6718-.3135-.7173-.8212-.0449-.5224,.209-1.034,.541-1.0846,.3353-.0506,.6801,.3353,.7276,.825h.0026Zm-107.6865,.15c0,.4397-.3499,.9506-.6487,.9436-.3039-.007-.6257-.5-.6333-.9718-.0051-.4474,.3447-.9686,.6435-.9506,.2937,.0173,.6385,.5423,.6385,.9789Zm-3.8476,.0276c-.0304,.4686-.5403,.9263-1.016,.916-.4794-.0109-.9132-.4904-.9056-1.0051,.0076-.4859,.5174-.9545,.9931-.9154,.4909,.0423,.9589,.5461,.9285,1.0006,0,0,0,.0039,0,.0039Zm-5.1546-1.0071c.3103-.007,.6637,.4846,.6688,.9308,.0051,.4602-.3103,.959-.6281,.991-.3204,.0314-.6408-.425-.6535-.9308-.0127-.4923,.2924-.984,.6154-.991h-.0026Zm126.2893-1.9231c.3083-.007,.6507,.4821,.6615,.9462,.0103,.4897-.2833,.9462-.6282,.9756-.3449,.0289-.6462-.3949-.6538-.9243-.0077-.4968,.2987-.9897,.6173-.9974h.0032Zm-3.1885,.8795c.0494,.4878-.3609,.9756-.8795,1.0372-.4949,.0622-.9904-.3526-1.0365-.8699-.0455-.5096,.3686-1.0122,.8641-1.0449,.4833-.0327,.9981,.3968,1.0481,.8776h.0039Zm-4.9968,1.0436c-.4936-.0141-.7788-.4891-.7686-1.0039,.0103-.4821,.3494-.9532,.6654-.9173,.3212,.0359,.7045,.5795,.5987,.9968-.0974,.3885-.3647,.6942-.4955,.9243h0Zm-3.3353-1.0436c.0333,.4878-.241,.9756-.5859,1.0372-.3301,.0622-.6603-.3526-.691-.8699-.0308-.5096,.2455-1.0122,.5756-1.0449,.3224-.0327,.6654,.3968,.6987,.8776h.0026Zm-17.3051,.0859c0-.4769,.3365-.9795,.6397-.9654,.3032,.0148,.6449,.5353,.6423,.9795,0,.4667-.3237,.9327-.6551,.9436-.3288,.0109-.6295-.4481-.6269-.9615v.0039Zm-17.4218,52.8904c.3333-.0756,.6865,.2962,.7468,.7865,.0577,.4756-.1833,.9769-.5314,1.1064-.3135,.1154-.6795-.2776-.7346-.7859-.0551-.5122,.1878-1.0314,.5192-1.107Zm-72.9821-52.4949c-.2709,.1455-.654,.4769-1.0873,.5551-.4682,.082-.8784-.5474-.8087-1.0731,.0696-.5173,.592-.9199,1.0912-.8308,.5262,.0936,.9171,.6077,.8049,1.3487Zm-3.8272-.4269c.0154,.4718-.4421,.9551-.9381,.9872-.4998,.0327-.9688-.4032-.9842-.9224-.0154-.4936,.4383-.9878,.9188-.9987,.4652-.0109,.9881,.4763,.9996,.934h.0038Zm120.6657-2.8474c.5-.0756,1.0301,.2962,1.1167,.7878,.0865,.4769-.2705,.975-.7968,1.1051-.4699,.1154-1.0192-.2744-1.1019-.784-.0827-.5128,.2821-1.0327,.7782-1.109h.0039Zm-2.7205,.9641c-.0115,.4487-.5205,.9423-.9808,.9494-.4673,.007-.9346-.4731-.9385-.9699-.0039-.466,.5019-.9705,.9615-.9526,.4558,.0173,.9692,.5391,.9615,.9731h-.0039Zm-4.8872-.9583c.1058,.2538,.3526,.6205,.3987,1.0346,.0564,.475-.3622,.9071-.6994,.8712-.3288-.0327-.6038-.5449-.5756-1.0673s.368-.9404,.8763-.8385Zm-3.4423,.9116c.0077,.4602-.3064,.959-.6256,.9942s-.641-.4212-.6558-.9269c-.0128-.4917,.2885-.9872,.6103-.9942,.3115-.007,.6635,.4814,.6686,.9269h.0026Zm-3.8487-.0558c.0327,.4724-.2506,.9776-.5865,1.0455-.3237,.0641-.6551-.3577-.6904-.8737-.0327-.5077,.2429-1.0128,.5737-1.041,.3212-.0327,.6705,.4006,.7032,.8731v-.0039h0Zm-8.9994-.8712c.3103-.0032,.6635,.4846,.6686,.9308,.0051,.4602-.3103,.959-.6282,.991-.3205,.0314-.641-.425-.6532-.9308-.0128-.4923,.2923-.984,.6154-.991h-.0026Zm-90.9989,.7083c.0223,.7526-.3655,1.3455-.6863,1.1897-.2344-.1141-.4827-.4711-.5663-.7981-.1339-.5173,.2315-1.2167,.5412-1.0833,.3013,.1288,.5413,.5167,.7115,.6955v-.0039h0Zm-4.4502-.6929c.1581,.2538,.5284,.6205,.5978,1.0346,.081,.475-.5438,.9071-1.049,.8712-.4937-.0327-.9063-.5449-.8639-1.0673s.5515-.9404,1.3151-.8385Zm114.0664-1.2641c-.0179,.3218-.3481,.6199-.6776,.607-.3321-.0122-.6045-.3147-.6045-.6712,0-.3417,.3269-.6417,.6564-.6077,.3378,.0372,.641,.3641,.6231,.6692l.0026,.0026Zm-4.6-.6673c.3353-.0519,.684,.1936,.7449,.5276,.0583,.3288-.1731,.6481-.5314,.734-.3231,.0763-.6865-.1795-.7346-.5205-.0513-.3462,.1904-.6897,.5237-.741h-.0026Zm-3.0949,.5789c.0333,.3256-.241,.6507-.5859,.6923-.3301,.041-.6603-.2359-.691-.5801-.0308-.3404,.2455-.675,.5756-.6968,.3224-.0218,.6654,.2647,.6987,.5846h.0026Zm-4.8417-.5859c.466-.0045,.9865,.3218,.9981,.625,.0115,.3173-.4474,.6346-.9442,.6558-.4968,.0218-.9667-.2737-.9782-.6173-.0154-.3295,.4429-.6564,.9244-.6635Zm-3.6186,1.2821c-.7397-.0096-1.1673-.3263-1.1519-.6692,.0115-.3212,.5237-.6353,.9981-.6115,.4814,.0237,1.0558,.3859,.8974,.6641-.1462,.2596-.5468,.4635-.7436,.6167Zm-96.5118-1.2763c.5164-.0455,1.0251,.1942,1.1137,.5276,.0925,.3327-.2582,.6583-.7938,.7365-.4817,.0711-1.0174-.1814-1.1022-.525-.0848-.3481,.2813-.6936,.7823-.7391h0Zm110.0099-1.9288c.4865,.0429,.7731,.3942,.7295,.709-.0462,.3314-.3712,.5955-.7064,.5718-.3256-.0218-.6686-.3846-.5455-.6853,.1026-.2519,.3814-.4417,.5224-.5955Zm-4.3942,.809c-.0103-.4974,.3147-.8205,.632-.8083,.3192,.0141,.6603,.3519,.65,.6442-.0109,.2949-.391,.7122-.65,.6256-.2776-.0917-.4891-.35-.632-.4615h0Zm-2.5667-.1596c-.0077,.2987-.3474,.6282-.6538,.6327-.3115,.0045-.6231-.3154-.6256-.6468-.0026-.3103,.3346-.6468,.641-.6353,.3038,.0122,.6462,.3596,.641,.6494h-.0026Zm-4.6801-.6423c.5128,.0577,.9083,.4019,.8256,.725-.0833,.318-.6147,.5827-1.1045,.5468-.4827-.0365-.8705-.3904-.7994-.7276,.0718-.3346,.5923-.5974,1.0782-.5442Zm5.3237-1.2865c.0051-.3109,.3417-.6462,.6449-.6436,.3006,.0026,.6449,.3545,.6372,.6507-.0103,.3205-.3237,.6218-.6526,.6314-.3314,.0096-.6346-.2987-.6269-.6365l-.0026-.0019Zm2.6058-1.2846c-.2942-.2577-.5474-.3923-.6474-.5865-.1404-.2692,.1615-.6186,.5096-.6846,.3564-.066,.8045,.1801,.7288,.4724-.0622,.2513-.3346,.4635-.5936,.7962l.0026,.0026ZM72.7563,110.2076c-.1578,.8494-.6502,1.284-1.2888,1.3295-.3847,.0269-.6848-.3769-.6271-.8417,.0924-.7244,.5348-1.1853,1.1773-1.0596,.3039,.0571,.5501,.4154,.7387,.5679v.0038Zm61.5384,105.3519c-.1122,.0981-.2788,.3494-.5237,.4378-.3635,.1295-.7391-.2026-.7577-.6192-.0122-.3006,.1064-.557,.5-.6244,.4-.0699,.7391,.2199,.7814,.8058h0Zm-8.2058-4.6596c.2346,.3147,.5545,.5705,.509,.7263-.0647,.225-.3647,.4615-.6135,.5365-.3622,.1115-.7974-.3699-.625-.6647,.1244-.2141,.4045-.3417,.7295-.6006v.0026Zm-43.0763-15.3827c-.5192,.2788-.8333,.5494-1.209,.6269-.4099,.0827-.7924-.3923-.7002-.7622,.0786-.3288,.5704-.6026,1.0451-.4808,.2733,.0692,.4747,.3288,.8641,.616Zm111.5384-4.2994c-.1006,.7994-.5263,1.2404-.8385,1.043-.2776-.1776-.5-.4744-.4308-1.0301,.0737-.6019,.4654-1.0308,.7878-.7667,.2199,.1769,.368,.5686,.4814,.7538Zm-7.0782-6.6026c.4872,.2353,.9827,.3814,1.2494,.6263,.2622,.2455-.3955,.6686-.941,.6558-.5327-.0135-.9994-.3372-.9115-.7128,.0372-.1647,.3122-.3058,.6032-.5692h0Zm-15.5667-1.9263c-.4615-.3891-.8372-.5833-.9923-.8647-.2487-.4545,.1026-.8955,.7026-1.0269,.584-.1288,1.241,.2013,1.1269,.6455-.0981,.3853-.4654,.7186-.8372,1.2494v-.0032h0Zm-54.5051-83.9673c.1859,.0269,.3917,.0077,.5462,.0955,.1442,.0801,.3468,.3173,.3192,.4205-.0615,.2596-.2026,.634-.3846,.6917-.3295,.1032-.7314,.0917-1.0609-.0231-.2096-.0724-.4154-.3974-.4737-.6532-.0244-.1109,.3019-.3712,.5045-.4821,.1545-.084,.3641-.0378,.5494-.0532v.0038h0Zm59.8423,76.8897c.3538-.2962,.55-.582,.7667-.6083,.2686-.0333,.5808,.2224,.5032,.625-.0513,.2731-.325,.6256-.5237,.6526-.1808,.0263-.3949-.3359-.7462-.6692Zm2.6853,2.5936c-.3192-.275-.5904-.416-.7032-.6231-.1583-.2878,.0147-.534,.3724-.6308,.4256-.1147,.9173,.1365,.8429,.4583-.0564,.2353-.2769,.4423-.5122,.7955Zm-6.1513,1.918c-.0987-.1147-.3353-.2654-.3712-.4519-.0872-.4615,.4853-.9564,.9314-.7936,.1647,.0609,.3417,.3532,.3417,.5429,0,.4282-.3955,.7359-.9019,.7058v-.0032h0Zm6.6635,1.1032c.0699,.3513-.341,.9199-.6551,.8115-.25-.0853-.5269-.3718-.5994-.6237-.0936-.3314,.1538-.5923,.5269-.6391,.3461-.0436,.666,.1583,.7244,.4513h.0032Zm-114.3916,7.2352c-.1534-.1-.2788-.1147-.3003-.2064-.0412-.1769-.0643-.4301-.0198-.5859,.0512-.1859,.1716-.3333,.2804-.4423,.061-.0615,.1782-.0648,.2326,0,.0577,.0705,.1221,.2949,.099,.3833-.0808,.309-.1979,.5859-.292,.8513Zm-1.6303,1.0045c.0303,.4974-.1126,.8115-.341,.9141-.0806,.0385-.2621-.1763-.2872-.3397-.0656-.4327,.2537-1.0263,.4804-.9269,.0588,.0256,.0974,.2244,.1478,.3526h0Zm-2.5442,2.8417c-.2814-.1103-.49-.134-.5794-.241-.0828-.0981-.106-.3212-.0365-.4224,.1324-.1962,.3278-.3744,.5363-.5115,.1292-.0833,.4569-.134,.4801-.0923,.1159,.1936,.2814,.4673,.2053,.6276-.1192,.259-.4171,.4494-.6092,.6397h.0033Zm-1.2979,.8205c-.0399,.8532-.4367,1.225-.8848,1.0673-.1684-.0596-.3739-.2974-.3939-.4724-.0485-.4462,.4367-.8442,.8934-.7641,.2026,.0359,.391,.1724,.3824,.1692h.0029Zm84.9929,37.641c.3615,.3186,.6885,.5205,.8833,.8032,.132,.1923-.3897,.5865-.6756,.4513-.2455-.1173-.459-.3788-.5782-.6231-.0506-.1019,.1853-.3308,.3705-.6314h0Zm-76.6596-45.2282c-.2925,.1385-.4897,.2737-.7504,.3449-.2512,.0667-.6137-.1724-.5151-.3397,.1017-.1724,.3147-.3237,.7027-.2833,.178,.0199,.3115,.15,.5628,.2782Zm0-2.3795c.3415-.1974,.5937-.4321,.8645-.4686,.1261-.018,.3969,.3333,.4153,.5385,.04,.5013-.4584,.9115-.7814,.6737-.1754-.1282-.2738-.3993-.4984-.7436Zm106.4102-5.5384c.334-.3128,.5199-.5603,.7558-.6846,.2096-.1083,.6128,.375,.5096,.6135-.1167,.2692-.3314,.5974-.5494,.65-.1641,.0404-.4006-.3096-.716-.5789Zm-44.8718,34.232c-.1141,.0801-.2314,.2301-.4179,.2859-.4212,.1244-.9058-.0718-.8615-.3321,.016-.084,.1237-.2,.241-.2321,.3859-.1096,.95,.0244,1.0385,.2782h0Zm21.7923,21.7455c-.0859,.1622-.141,.2679-.1981,.3737-.1513-.1115-.3103-.209-.4378-.3455-.0237-.025,.1353-.3013,.1513-.2955,.1667,.0699,.3231,.1731,.4872,.2673h-.0026Zm-29.4846-21.6615c-.3731,.0936-.691,.1897-1.0237,.2404-.059,.0077-.2821-.1974-.2564-.2808,.0955-.3263,.4679-.4071,.8853-.3365,.1205,.0205,.1904,.1744,.3949,.3769h0Zm-36.9051-16.4263c.1295,.1372,.2692,.2583,.3654,.4058,.0167,.0256-.1372,.1526-.2141,.2353l-.4256-.3538c.0769-.0801,.1513-.1603,.2744-.2872Zm95.4371-15.3846c-.1-.459-.2397-.7756-.1872-.9615,.0526-.182,.3006-.2647,.4744-.3205,.0288-.0077,.1846,.384,.15,.5064-.0654,.2378-.2263,.4192-.4397,.7756h.0026Zm-93.7884,17.6224c-.1026,.1109-.2051,.2186-.3122,.3263-.1192-.1051-.3244-.207-.3288-.3147-.0077-.1051,.1891-.2186,.2962-.3263,.1147,.1051,.2301,.2103,.3449,.3122v.0026Zm57.0513-120.4512c-.0103,.5314-.4532,.9365-.9968,.9038-.5096-.0295-.9628-.5231-.9237-1.0064,.041-.5205,.4917-.9224,1.0199-.9147,.5147,.0058,.9109,.4532,.9006,1.0173h0Zm-2.5641,2.5821c-.0295,.5795-.4154,.9179-1.0167,.8859-.5487-.0269-.9314-.4615-.9051-1.0173,.0295-.5506,.4635-.934,1.025-.9019,.559,.0321,.9237,.4506,.8942,1.0308l.0026,.0026Zm0-4.5494c.0026,.4917-.5032,.95-1.0436,.95-.4744,0-.8763-.3795-.8795-.8269-.0026-.5571,.4051-1.059,.891-1.0942,.4801-.0359,1.0263,.4801,1.0288,.9712h.0032Zm5.1186-.1314c.1019,.4583-.6346,1.0788-1.2885,1.0814-.5038,0-1.1724-.4609-1.2551-.8718-.0865-.4276,.3603-.9051,.9583-1.0282,.6385-.1288,1.4724,.3019,1.5853,.8212v-.0026h0Zm1.9269-2.4032c-.0571,.5167-.4814,.9321-.9423,.9205-.5705-.0154-1.0494-.5891-.9654-1.1628,.0686-.466,.5468-.8013,1.0853-.7564,.5321,.0449,.8788,.4692,.8224,.9987Zm-4.4897-.0032c-.084,.5981-.6667,1.0327-1.2045,.9-.4474-.1122-.7744-.6372-.6994-1.1353,.0718-.4891,.5436-.8244,1.0628-.7551,.5378,.0756,.9103,.5103,.841,.9904Zm-63.4532,45.4237c-.4921,.3103-.9521,.6891-1.4798,.9167-.6668,.2891-1.3372-.0974-1.6296-.834-.2104-.5269-.0642-.9853,.3423-1.3282,.5456-.4622,1.3408-.3936,1.8329,.159,.3209,.3571,.5848,.7654,.8736,1.1513l.0606-.0686s0,.0038,0,.0038Z" fill="#19132d"></path></svg> 