<svg width="111" height="111" viewBox="0 0 111 111" fill="none" xmlns="http://www.w3.org/2000/svg">
<path d="M82.4789 47.7403C82.4789 45.3653 82.4538 42.9896 82.4931 40.6156C82.5055 39.8421 82.6649 39.0665 82.7964 38.2986C82.9166 37.6 83.323 37.0789 83.9432 36.733C84.2999 36.5336 84.6496 36.3146 85.0261 36.1589C85.3862 36.0103 85.5007 35.7601 85.5708 35.4015C85.9299 33.5812 86.2879 31.7609 86.7071 29.9532C86.9158 29.0517 87.2461 28.1779 87.5384 27.2971C87.6189 27.0527 87.7575 26.8279 87.8743 26.5962C88.3049 25.7373 89.0136 25.2473 89.9396 25.049C90.0852 25.0179 90.2329 24.9776 90.3795 24.9788C90.7916 24.9845 90.9591 24.7251 91.0802 24.3874C91.3679 23.5827 91.6347 22.7688 91.9625 21.9814C92.58 20.4942 93.3502 19.1005 94.6536 18.0814C94.8869 17.8992 95.1235 17.7102 95.3856 17.5799C96.7769 16.8881 97.7639 17.2617 98.5204 18.4883C98.8677 19.0521 99.1288 19.6849 99.3285 20.3179C99.6644 21.382 99.8078 22.4806 99.8574 23.6069C99.9299 25.2567 99.6933 26.8637 99.4473 28.48C99.258 29.7273 99.1148 30.9828 98.9936 32.2382C98.8332 33.9006 98.6751 35.5664 98.7523 37.2415C98.7627 37.464 98.7409 37.6923 98.7812 37.9079C99.0134 39.1472 99.2557 40.3852 99.5017 41.6222C99.6034 42.1306 99.7336 42.6323 99.8306 43.1408C99.9914 43.9797 100.126 44.8238 100.288 45.6617C100.492 46.7259 100.562 47.7981 100.524 48.8795C100.512 49.2137 100.465 49.5537 100.507 49.8812C100.592 50.5336 100.43 51.14 100.22 51.7361C99.6148 53.4516 98.9973 55.1612 98.3771 56.871C97.5677 59.1041 96.7008 61.3163 95.9595 63.5712C95.5209 64.9062 95.253 66.2989 94.9527 67.6752C94.6607 69.0149 94.4379 70.3707 94.1573 71.7138C94.0939 72.0182 94.0835 72.2776 94.2057 72.5726C94.5141 73.3149 94.544 74.1059 94.393 74.8758C94.2993 75.3534 94.3916 75.752 94.5799 76.1614C95.0313 77.139 95.485 78.1153 95.9377 79.0919C96.8139 80.9803 97.5449 82.9261 98.2214 84.8916C99.5628 88.7882 100.863 92.7 102.221 96.5909C102.918 98.5877 103.703 100.553 104.444 102.535C104.6 102.952 104.746 103.373 104.877 103.798C104.942 104.009 104.985 104.233 104.998 104.452C105.023 104.829 104.82 105.081 104.488 105.24C104.198 105.378 103.774 105.318 103.575 105.047C103.38 104.783 103.219 104.481 103.1 104.174C102.39 102.338 101.651 100.51 101.007 98.6521C99.5835 94.5481 98.2177 90.4253 96.8139 86.3142C95.6859 83.0116 94.455 79.7466 93.0871 76.5349C92.7857 75.8282 92.5837 75.155 92.8005 74.3861C92.9334 73.9146 92.9139 73.4085 92.676 72.9702C92.4243 72.5068 92.4589 72.0319 92.5213 71.5557C92.8156 69.2743 93.1287 66.9973 93.7116 64.7632C94.0405 63.5031 94.4668 62.2822 94.9054 61.0579C95.933 58.1886 97.1546 55.3998 98.2986 52.5788C98.4107 52.3033 98.5376 52.0338 98.6231 51.7502C98.6856 51.5415 98.7235 51.3143 98.7154 51.0964C98.6762 50.0601 98.6208 49.0248 98.5641 47.9895C98.51 46.9864 98.3403 46.0021 98.151 45.0151C97.7375 42.8653 97.3738 40.7057 97.0009 38.5489C96.9445 38.2215 96.9455 37.8837 96.9351 37.5494C96.8532 35.0535 97.1026 32.5807 97.4707 30.1182C97.6244 29.091 97.8137 28.0684 97.966 27.0413C98.2294 25.274 98.3207 23.5021 98.0308 21.7278C97.8912 20.8747 97.5979 20.0758 97.1324 19.3449C96.8485 18.8988 96.5414 18.8215 96.1014 19.1305C95.2678 19.7162 94.6201 20.469 94.154 21.3832C93.4093 22.8449 92.8629 24.3805 92.4173 25.9519C91.7279 28.3832 91.2245 30.8526 90.9672 33.3692C90.944 33.5906 90.9165 33.8131 90.9027 34.0344C90.8299 35.1446 90.7849 36.2582 90.6833 37.3661C90.4822 39.5483 90.3034 41.7343 90.0161 43.906C89.754 45.8924 89.3496 47.8593 88.7771 49.788C88.5126 50.678 88.2656 51.568 87.8455 52.4036C87.3709 53.3466 86.7602 54.1746 85.9218 54.8236C84.9808 55.5508 84.0341 56.2704 83.0934 56.9989C82.3739 57.5557 81.5705 57.9178 80.6735 58.0769C80.4922 58.1091 80.3143 58.1655 80.1351 58.2141C79.2361 58.4585 78.3642 58.3685 77.5282 57.9732C76.2181 57.354 74.9237 56.7003 73.6051 56.1009C71.9634 55.3548 70.2478 54.8846 68.4225 54.9608C66.8291 55.0276 65.3525 55.5186 64.0064 56.3509C63.6436 56.5747 63.3309 56.9563 63.1241 57.3345C62.6543 58.192 62.4362 59.1316 62.5204 60.1206C62.5526 60.5012 62.7731 60.7331 63.1567 60.7757C63.4141 60.8045 63.6762 60.7985 63.9369 60.7962C65.0165 60.7881 66.0961 60.8032 67.1744 60.7596C68.6198 60.7005 69.8689 61.2103 71.0351 61.9919C72.0349 62.6618 72.8765 63.4964 73.5578 64.4867C74.2736 65.5277 74.9526 66.5929 75.6858 67.6212C76.5909 68.8914 77.5064 70.1516 78.7602 71.1282C79.4874 71.6953 80.2761 72.0595 81.1812 72.1782C81.6235 72.2359 82.0682 72.289 82.5135 72.2994C83.4049 72.3202 83.9801 72.7652 84.3009 73.5663C84.563 74.221 84.8217 74.8781 85.057 75.5422C86.0742 78.4173 86.7947 81.3756 87.5105 84.3362C88.2955 87.5848 89.1107 90.8253 89.904 94.0718C90.5215 96.5965 91.2581 99.0833 92.1693 101.519C92.2857 101.83 92.3851 102.155 92.4347 102.483C92.5109 102.979 92.228 103.424 91.8135 103.541C91.429 103.651 90.9903 103.474 90.7514 103.108C90.6913 103.015 90.6487 102.911 90.6037 102.809C90.4997 102.57 90.3913 102.334 90.2977 102.092C89.5459 100.149 88.9664 98.1517 88.4573 96.1364C87.768 93.403 87.1055 90.6619 86.4772 87.9133C85.9151 85.4531 85.4255 82.9757 84.8862 80.5098C84.4982 78.7321 84.114 76.9521 83.5216 75.2265C83.473 75.0859 83.4337 74.9429 83.383 74.8046C83.0642 73.9445 83.0642 73.9676 82.1235 74.0217C80.4284 74.1197 78.9102 73.7059 77.5722 72.584C76.1291 71.3749 74.9525 69.965 73.9424 68.3914C73.2796 67.3604 72.5845 66.3483 71.8697 65.3523C71.3261 64.5948 70.6669 63.9438 69.8712 63.433C69.003 62.8749 68.0748 62.5682 67.0324 62.5785C65.9538 62.5889 64.8756 62.5577 63.7973 62.5255C63.4671 62.5151 63.1358 62.4517 62.8089 62.3967C62.3065 62.3111 61.9683 62.0057 61.628 61.6299C60.8484 60.7734 60.7121 59.8153 60.941 58.733C61.1337 57.8185 61.3474 56.9124 61.9015 56.1425C62.1589 55.7851 62.4475 55.4059 62.81 55.1787C63.5617 54.7071 64.3352 54.2195 65.1665 53.9336C68.2977 52.858 71.3872 53.0966 74.4018 54.4326C75.6579 54.9893 76.8966 55.5877 78.1715 56.0952C78.8538 56.367 79.5891 56.5345 80.3153 56.6519C80.612 56.7002 80.9596 56.5123 81.2677 56.3915C81.508 56.2969 81.7157 56.1274 81.949 56.0133C82.4329 55.777 82.6359 55.4368 82.6071 54.8662C82.5285 53.3466 82.5101 51.8237 82.4812 50.3011C82.4651 49.4467 82.4789 48.5926 82.4789 47.7382H82.4765L82.4789 47.7403ZM21.2302 36.1439C21.2141 34.0931 20.9497 32.0745 20.5248 30.072C20.2246 28.6574 19.9371 27.2406 19.6185 25.8307C19.5134 25.3626 19.3668 24.8957 19.1775 24.4542C18.5136 22.9082 17.6905 21.4637 16.432 20.304C16.0371 19.9397 15.5973 19.6757 15.0777 19.5731C14.8283 19.5235 14.5559 19.52 14.3065 19.5638C13.7996 19.6515 13.5191 19.9696 13.5248 20.493C13.5318 21.1236 13.578 21.7554 13.6473 22.3814C13.7373 23.1929 13.9035 23.9965 13.9705 24.8092C14.0259 25.4733 14.0259 26.1477 13.9809 26.8129C13.817 29.2581 13.6231 31.7009 13.4406 34.1449C13.4325 34.2556 13.4083 34.3674 13.4106 34.4781C13.4487 36.6858 13.0354 38.8393 12.6382 40.9952C12.6047 41.1771 12.569 41.3593 12.5182 41.5382C11.9316 43.6098 11.4618 45.709 11.0069 47.8129C10.7875 48.8264 10.8683 49.7647 11.2493 50.748C12.3253 53.5241 13.6646 56.1722 14.9773 58.8375C16.1273 61.172 17.1676 63.556 17.9018 66.0589C18.1316 66.8405 18.2736 67.6476 18.4641 68.4406C18.6626 69.2695 18.7319 70.1306 19.0922 70.9193C19.2088 71.174 19.1753 71.4509 19.0033 71.6593C18.172 72.6624 18.1524 73.837 18.2528 75.0418C18.2713 75.2643 18.2724 75.4881 18.3013 75.7093C18.4457 76.8161 18.1616 77.8443 17.7275 78.8451C17.6386 79.0491 17.5209 79.2428 17.4458 79.4501C16.5822 81.8204 15.729 84.1955 14.8631 86.5645C14.1115 88.6223 13.3563 90.6778 12.5875 92.7297C11.5207 95.5786 10.4469 98.4248 9.36164 101.266C9.12383 101.888 8.81325 102.483 8.55578 103.1C8.28445 103.75 8.04549 104.414 7.77762 105.065C7.68065 105.301 7.57209 105.544 7.41625 105.742C7.18302 106.036 6.87128 106.074 6.51453 105.915C6.12776 105.742 5.97995 105.538 6.00193 105.148C6.01463 104.928 6.03887 104.7 6.10814 104.491C6.28365 103.963 6.44411 103.423 6.68889 102.927C7.82495 100.623 8.71282 98.2197 9.60526 95.8172C10.7425 92.7575 11.8763 89.6956 13.0043 86.6326C13.9025 84.1932 14.7915 81.7514 15.6828 79.3086C15.9241 78.6468 16.1054 77.9584 16.4056 77.3245C16.7277 76.6442 16.7461 75.9445 16.6445 75.2515C16.4667 74.032 16.6803 72.8859 17.1213 71.7633C17.2345 71.4774 17.2807 71.2133 17.1999 70.9032C16.9205 69.8252 16.6157 68.7497 16.4194 67.6556C15.8952 64.7262 14.5363 62.1196 13.3102 59.4614C12.5793 57.8761 11.7446 56.3383 11.0346 54.7449C10.3857 53.2891 9.83387 51.789 9.25659 50.303C8.93446 49.473 9.00835 48.6025 9.19425 47.7715C9.63763 45.7805 10.044 43.7779 10.6409 41.8228C10.8348 41.1852 10.9353 40.52 11.0808 39.8676C11.4433 38.234 11.5853 36.5705 11.7793 34.9138C12.0217 32.8491 12.2711 30.7855 12.3588 28.7047C12.4281 27.07 12.4442 25.4456 12.1649 23.8224C12.0078 22.9094 11.9524 21.9767 11.8808 21.051C11.8555 20.7224 11.9374 20.387 11.9386 20.0538C11.9432 19.2123 12.9338 18.2024 13.7789 18.0421C14.9219 17.8254 16.0072 17.9165 16.9678 18.6393C17.8637 19.3126 18.6557 20.085 19.2861 21.0257C20.376 22.65 21.153 24.4024 21.5709 26.3103C21.6621 26.7288 21.8238 27.0539 22.2013 27.3052C22.6631 27.613 23.073 27.9992 23.5037 28.352C24.5428 29.2051 25.0484 30.3221 25.12 31.6456C25.1547 32.2762 25.1789 32.908 25.1893 33.5397C25.1974 34.0551 25.3671 34.4344 25.8289 34.7398C26.2538 35.0212 26.6025 35.4258 26.9616 35.797C27.5873 36.4437 27.8702 37.2334 27.8609 38.1257C27.8563 38.5338 27.8263 38.9421 27.8021 39.3488C27.7536 40.1271 27.6947 40.904 27.6508 41.6822C27.6046 42.4974 27.5504 43.3136 27.5365 44.1297C27.5192 45.1684 27.525 46.2084 27.5446 47.2481C27.5965 49.9966 27.66 52.7448 27.7189 55.4944C27.7224 55.6799 27.734 55.8655 27.734 56.0511C27.734 56.4098 27.891 56.6864 28.1508 56.9273C28.7915 57.5223 29.4762 57.9915 30.4079 57.9982C31.3743 58.0062 32.3406 58.1009 33.3058 58.0985C34.4742 58.0952 35.5768 57.7619 36.6344 57.2767C38.2219 56.5481 39.799 55.7977 41.473 55.2765C42.4717 54.9664 43.4785 54.7382 44.5292 54.6791C46.2159 54.5858 47.762 54.9858 49.2225 55.8252C50.7649 56.7118 51.6308 57.9958 51.6955 59.7818C51.7069 60.1091 51.6482 60.447 51.5744 60.7685C51.475 61.2007 51.1978 61.5018 50.7431 61.5629C50.3585 61.6145 50.0595 61.827 49.7259 61.9884C48.9926 62.3445 48.255 62.6844 47.4351 62.8331C46.5589 62.9925 45.6917 63.208 44.8316 63.4442C42.5307 64.0748 40.7722 65.3823 39.7043 67.5623C39.2794 68.4278 38.7934 69.2648 38.3154 70.1031C37.3259 71.8358 35.9601 73.2433 34.473 74.5541C33.0379 75.819 31.4181 76.7885 29.7197 77.6426C29.49 77.7581 29.2417 77.8722 28.9924 77.903C28.6137 77.9504 28.4959 78.1926 28.4359 78.4967C28.2708 79.335 28.1092 80.173 27.9603 81.0133C27.4141 84.0847 26.7422 87.1269 25.9814 90.1533C25.0935 93.6807 24.2749 97.226 23.6157 100.805C23.5083 101.39 23.3675 101.968 23.2266 102.545C23.1747 102.758 23.0916 102.968 22.9911 103.164C22.8225 103.494 22.5328 103.624 22.1575 103.571C21.78 103.517 21.4348 103.208 21.4256 102.844C21.4175 102.514 21.4556 102.176 21.5202 101.852C22.2845 97.9915 23.1689 94.1569 24.1526 90.3456C24.5509 88.7999 25.0185 87.2722 25.4457 85.7332C26.1118 83.333 26.5413 80.8821 26.9904 78.4356C27.0308 78.2168 27.1036 78.001 27.1174 77.7808C27.1694 76.967 27.6578 76.5093 28.3655 76.2384C29.378 75.8498 30.3282 75.3357 31.2184 74.7306C33.3508 73.2815 35.3482 71.6834 36.6794 69.4124C37.1493 68.6114 37.5996 67.7995 38.0545 66.9904C38.163 66.7968 38.2519 66.5914 38.3593 66.3954C39.701 63.9422 41.7814 62.4378 44.4517 61.7209C45.4561 61.4511 46.4851 61.2759 47.4976 61.0336C48.1107 60.8873 48.7178 60.7098 49.3195 60.5195C49.6726 60.4077 49.779 60.2141 49.7639 59.8439C49.7293 58.9284 49.3508 58.1931 48.5862 57.6813C47.2053 56.7567 45.7045 56.3336 44.0339 56.6124C42.668 56.8406 41.3692 57.2856 40.097 57.8102C39.4099 58.0937 38.7276 58.3938 38.0649 58.729C36.333 59.6076 34.5008 60.0053 32.5669 59.9083C31.6767 59.8647 30.7901 59.7563 29.901 59.6778C29.3677 59.6308 28.8885 59.4381 28.4613 59.1224C27.4753 58.3914 26.4882 57.6628 25.5195 56.9111C25.2598 56.7094 25.0208 56.4567 24.8395 56.1825C23.9332 54.813 23.2173 53.3568 22.8294 51.7486C22.4438 50.1566 22.2545 48.5333 22.0224 46.9171C21.6033 44.0085 21.5028 41.0723 21.235 38.1498C21.1738 37.487 21.2258 36.8137 21.2258 36.145L21.2302 36.1439ZM71.2305 24.5095C71.2305 28.2609 71.2177 32.0122 71.2361 35.7635C71.2442 37.359 70.7314 37.5182 69.4581 37.4985C67.1153 37.464 64.7729 37.4466 62.4304 37.4501C59.1939 37.4547 55.9578 37.5066 52.7206 37.4985C50.6749 37.4928 48.6287 37.4075 46.5829 37.3729C46.0728 37.3637 45.657 37.2023 45.268 36.8679C44.1109 35.8753 42.9347 34.9058 41.7604 33.9351C40.8449 33.1777 39.9442 32.3984 38.993 31.6894C37.8477 30.8352 37.3708 29.7203 37.4205 28.3197C37.454 27.357 37.4251 26.391 37.4263 25.4272C37.4286 23.3117 37.4239 21.1974 37.4378 19.082C37.4551 16.4074 37.4817 13.7317 37.5163 11.0571C37.5336 9.68291 37.5786 8.30989 37.611 6.93686C37.611 6.89997 37.6017 6.86192 37.6075 6.82502C37.7714 5.68372 38.0716 5.19376 39.3612 5.05888C40.1717 4.97358 40.9962 5.0266 41.8147 5.02429C45.649 5.01159 49.4831 4.99316 53.3163 4.99316C56.4058 4.99316 59.4943 5.0139 62.5838 5.0266C62.7328 5.0266 62.8818 5.0266 63.0308 5.03468C63.6426 5.07273 64.1967 5.24909 64.6447 5.6918C65.2001 6.24054 65.7518 6.79159 66.3187 7.32767C66.962 7.93635 67.4815 8.68569 68.3081 9.09151C68.3705 9.12148 68.4444 9.18834 68.4571 9.25059C68.5715 9.78663 69.1139 9.92729 69.4152 10.2927C69.7203 10.6616 70.0653 11.0098 70.4418 11.3049C71.0157 11.7557 71.2465 12.2837 71.2395 13.0319C71.214 15.8921 71.2569 18.7534 71.2717 21.6136C71.2764 22.5785 71.2717 23.5446 71.2717 24.5095H71.2305ZM67.4423 35.0949L67.4966 35.2551L67.5832 35.1767C67.5288 35.1559 67.4758 35.1363 67.4214 35.1156C67.2885 34.6418 66.919 34.3973 66.5163 34.1864L66.5566 34.2256C66.3234 33.8913 66.126 33.5212 65.6978 33.3851L65.729 33.4174C65.4391 33.06 65.1944 32.6577 64.7531 32.4525L64.5061 32.2104C64.3665 32.0409 64.2373 31.8622 64.085 31.7066C63.9175 31.5371 63.7927 31.5498 63.6889 31.8115C63.5731 32.1032 63.406 32.2508 63.1057 32.1758C62.7962 32.0986 62.7258 31.8577 62.7744 31.5671C62.7858 31.4945 62.7953 31.4196 62.7915 31.3469C62.7905 31.3158 62.7546 31.2605 62.7318 31.2593C62.4073 31.2431 62.0828 31.2281 61.7582 31.242C61.7398 31.242 61.7237 31.4979 61.7214 31.6351C61.711 32.0744 61.4606 32.3026 61.1166 32.17C60.881 32.0789 60.7884 31.8876 60.8012 31.642C60.8082 31.5048 60.821 31.3676 60.8314 31.2304C60.6881 31.2385 60.5461 31.2477 60.4028 31.2535C60.329 31.2558 60.2551 31.25 60.1813 31.2477C59.9172 31.24 59.7836 31.353 59.7806 31.5866C59.7806 31.6604 59.7967 31.7354 59.7876 31.8068C59.7551 32.0466 59.5729 32.1953 59.3269 32.1919C59.0913 32.1884 58.91 32.0282 58.8882 31.7792C58.8788 31.672 58.9091 31.5602 58.9285 31.4506C58.9621 31.2627 58.8906 31.1509 58.7 31.2016C58.4355 31.2731 58.1896 31.2362 57.9335 31.1728C57.8895 31.1624 57.7636 31.2881 57.7603 31.3538C57.7543 31.4968 57.8247 31.6432 57.8247 31.7873C57.8247 32.0351 57.6402 32.193 57.3932 32.1884C57.1458 32.1838 56.9599 32.0282 56.9438 31.7919C56.9357 31.6835 56.9579 31.5717 56.983 31.4644C57.0421 31.2108 56.9579 31.1209 56.7014 31.1901C56.5951 31.2189 56.4833 31.2431 56.3746 31.2396C55.3483 31.2085 54.3231 31.1624 53.2965 31.1405C52.971 31.1335 52.6364 31.2373 52.3199 31.1924C51.8014 31.1186 51.3017 31.1474 50.7842 31.1924C50.2439 31.2396 49.6909 31.1416 49.1425 31.1082C49.1069 31.1059 49.0663 31.1163 49.0351 31.1335C48.7465 31.2926 48.4753 31.1762 48.1806 31.1255C47.7571 31.0517 47.3044 30.9076 46.8876 31.1969C46.8322 31.235 46.7319 31.2604 46.6751 31.2373C46.0231 30.9698 45.3754 31.062 44.7263 31.2408C44.6941 31.2499 44.6525 31.2327 44.6179 31.22C44.1179 31.0309 43.6135 30.9998 43.0984 31.1612C42.5869 31.3203 42.0916 30.9733 41.5791 31.107C41.5087 31.1254 41.4127 31.1163 41.37 31.1589C41.2996 31.2304 41.2617 31.3353 41.2096 31.4263C41.2986 31.4541 41.4069 31.5301 41.4741 31.5036C42.0812 31.2604 42.0962 31.2488 42.31 31.8252C42.3976 32.0627 42.5084 32.208 42.7661 32.2276C43.0108 32.2472 43.1641 32.3971 43.2796 32.6022C43.3513 32.7302 43.4158 32.8777 43.5245 32.9654C44.2427 33.5464 44.9666 34.1228 45.7033 34.682C45.9341 34.8572 46.211 34.9725 46.4664 35.1166L46.4399 35.097C46.8426 35.5512 46.8624 35.5812 47.2272 35.3495C47.5101 35.1696 47.7339 35.0901 48.0319 35.3034C48.4383 35.5927 48.8632 35.5927 49.272 35.2861C49.4703 35.1373 49.6771 35.1062 49.8885 35.2526C50.3328 35.5616 50.7785 35.5927 51.2299 35.2722C51.4342 35.1281 51.6399 35.1131 51.8477 35.2618C52.2887 35.5789 52.7286 35.6284 53.1776 35.2733C53.3763 35.1166 53.5817 35.1223 53.7941 35.2606C54.2351 35.5477 54.6785 35.64 55.1288 35.2733C55.3275 35.1119 55.5409 35.1166 55.7419 35.2687C56.1829 35.6054 56.6195 35.6296 57.0638 35.2768C57.2612 35.12 57.4702 35.1143 57.6803 35.2572C58.1213 35.5569 58.5626 35.6331 59.014 35.2734C59.2113 35.1166 59.4308 35.1039 59.6258 35.2676C60.0251 35.6008 60.4537 35.6008 60.8588 35.3333C61.1487 35.142 61.3725 35.1212 61.6659 35.3172C62.0259 35.557 62.4347 35.6169 62.8065 35.3367C63.0884 35.1246 63.3193 35.1281 63.6123 35.3195C63.9751 35.5547 64.3919 35.6031 64.7553 35.3344C65.0453 35.12 65.2738 35.1373 65.5624 35.3195C65.9769 35.58 66.3914 35.5616 66.8129 35.2722C66.9837 35.1558 67.2307 35.1512 67.4431 35.0958L67.4423 35.0949ZM51.1699 29.107C53.6986 29.107 56.2256 29.1093 58.7543 29.107C59.9447 29.1059 61.1337 29.0978 62.324 29.0874C62.5908 29.0852 62.7234 28.9445 62.7362 28.6782C62.7456 28.4926 62.7418 28.307 62.7418 28.1213C62.7385 21.5894 62.7338 15.0562 62.7294 8.5243C62.7294 8.26491 62.7281 8.00437 62.7247 7.74499C62.72 7.2977 62.7442 7.12476 62.0585 7.11322C61.4269 7.10283 60.7954 7.09479 60.1638 7.0971C57.0444 7.10634 53.9257 7.12707 50.8063 7.12938C47.9105 7.13054 45.0149 7.11096 42.1194 7.10403C41.3781 7.10172 40.6371 7.09941 39.8968 7.12015C39.5378 7.13054 39.4339 7.23199 39.4316 7.60086C39.4247 8.5266 39.4478 9.4523 39.4524 10.378C39.4859 15.869 39.5159 21.3611 39.5505 26.8521C39.554 27.4827 39.5736 28.1133 39.5887 28.7439C39.5934 28.9595 39.7121 29.0909 39.9199 29.1174C40.1404 29.1451 40.3646 29.1589 40.5861 29.1601C41.7372 29.1682 42.893 29.1105 44.0394 29.1866C46.4191 29.3434 48.7938 29.2039 51.1711 29.1082L51.1699 29.107ZM67.5194 31.9695C67.4953 32.0399 67.4697 32.109 67.4479 32.1794C67.404 32.3211 67.4919 32.38 67.6073 32.3846C67.6754 32.3869 67.7422 32.3258 67.8141 32.3108C68.3312 32.2013 68.5124 32.3304 68.5275 32.8238C68.5309 32.9333 68.4836 33.0463 68.494 33.1536C68.4987 33.2031 68.5795 33.2769 68.6349 33.2861C68.8554 33.3253 69.1903 33.1074 69.248 32.9045C69.3286 32.6255 69.2581 32.3777 69.0457 32.229C68.9571 32.1667 68.8393 32.1414 68.7584 32.0722C68.5342 31.8797 68.5342 31.5892 68.7584 31.399C68.8403 31.3298 68.9557 31.2998 69.0504 31.2433C69.2316 31.1338 69.2698 30.9516 69.2618 30.7626C69.2524 30.5354 69.1672 30.3764 68.9487 30.2299C68.449 29.8922 68.4675 29.7261 68.9407 29.3261C69.3229 29.0034 69.3323 28.6667 68.9675 28.3405C68.9407 28.3163 68.898 28.3093 68.8715 28.2851C68.4836 27.9382 68.4906 27.7571 68.9027 27.409C68.9303 27.386 68.9662 27.3709 69.0007 27.3571C69.2665 27.2453 69.2306 27.0043 69.2377 26.7876C69.2444 26.5824 69.1209 26.4867 68.95 26.3714C68.4836 26.0567 68.4731 25.8399 68.8379 25.5206C69.3782 25.0468 69.3749 24.837 68.8161 24.3597C68.5332 24.1188 68.5158 23.8444 68.7769 23.6092C68.8299 23.5608 68.9118 23.5458 68.9685 23.4997C69.3309 23.2046 69.3357 22.7977 68.9799 22.5025C68.8957 22.4322 68.7873 22.3896 68.7097 22.3135C68.5436 22.1509 68.5507 21.8916 68.7239 21.7198C68.801 21.6437 68.9084 21.5976 68.9917 21.5261C69.3484 21.2229 69.3253 20.8828 68.9303 20.5542C68.8739 20.507 68.8034 20.4758 68.7528 20.4251C68.5333 20.2072 68.5323 19.9513 68.7561 19.7495C68.837 19.6769 68.9548 19.6446 69.0377 19.5731C69.3428 19.308 69.3287 18.9022 69.0089 18.6382C68.9535 18.592 68.8659 18.5852 68.8115 18.5379C68.5286 18.2981 68.5172 18.0111 68.7793 17.784C68.8333 17.7367 68.9179 17.7252 68.9757 17.6802C69.3079 17.422 69.3485 17.0312 69.0622 16.7487C68.9592 16.6473 68.8116 16.5896 68.7075 16.4882C68.5414 16.3256 68.5518 16.0651 68.7273 15.8945C68.8045 15.8195 68.9142 15.778 68.9985 15.7088C69.3012 15.4598 69.3163 15.0344 69.0297 14.7819C68.9478 14.7093 68.8334 14.6725 68.7538 14.5987C68.531 14.3888 68.5357 14.1353 68.7585 13.9266C68.8115 13.877 68.8854 13.8494 68.9408 13.8009C69.382 13.4251 69.376 13.1346 68.9237 12.7737C68.8381 12.7057 68.7159 12.6573 68.6706 12.5686C68.4988 12.2261 68.2817 11.9483 67.9145 11.7881C67.7944 11.7361 67.6884 11.5921 67.633 11.4641C67.4907 11.1379 67.2759 10.9246 66.94 10.7851C66.7957 10.7252 66.6688 10.5326 66.6121 10.3724C66.5141 10.0969 66.3523 9.94239 66.0694 9.88129C65.8271 9.82939 65.7036 9.65303 65.6563 9.41323C65.6355 9.30605 65.6076 9.19536 65.5556 9.10083C65.4761 8.95786 65.1411 8.88065 64.9462 8.94636C64.772 9.00515 64.766 9.1562 64.7593 9.30374C64.7371 9.72913 64.7545 9.75102 65.1737 9.91704C65.2751 9.9574 65.3815 9.99429 65.4681 10.0577C65.6758 10.2099 65.6644 10.6111 65.4486 10.7321C65.355 10.7851 65.2372 10.7943 65.1345 10.8324C64.8053 10.9534 64.7371 11.0479 64.7522 11.3915C64.7626 11.6209 64.7985 11.8353 65.0999 11.8641C65.3825 11.8907 65.6114 12.0071 65.6077 12.3356C65.6043 12.6608 65.3896 12.7703 65.0962 12.798C64.9959 12.8072 64.8274 12.8556 64.8147 12.9132C64.7684 13.1253 64.7452 13.3513 64.7673 13.5669C64.7925 13.8125 65.0257 13.7721 65.1989 13.8079C65.2707 13.8217 65.3399 13.854 65.4033 13.8897C65.6758 14.043 65.7 14.4731 65.4402 14.6321C65.3492 14.6887 65.2371 14.7405 65.1344 14.7417C64.8492 14.744 64.7418 14.8789 64.7451 15.151C64.7512 15.536 64.7649 15.5637 65.1978 15.7389C65.2659 15.7666 65.3455 15.7793 65.4022 15.8231C65.5593 15.9418 65.6667 16.1102 65.5962 16.3015C65.5522 16.4237 65.4358 16.5355 65.3237 16.6116C65.2395 16.6693 65.1103 16.6612 65.0029 16.6877C64.8341 16.7304 64.7626 16.8641 64.7626 17.0163C64.7626 17.1961 64.7626 17.3979 64.8421 17.5466C64.8931 17.6411 65.0928 17.655 65.2257 17.7034C65.2602 17.7161 65.2958 17.7253 65.3307 17.7403C65.521 17.821 65.617 17.9685 65.6113 18.1726C65.6053 18.3778 65.5015 18.5138 65.3005 18.5795C65.1331 18.6337 64.878 18.6579 64.825 18.772C64.7394 18.953 64.7545 19.2067 64.7995 19.413C64.8193 19.503 65.0166 19.5595 65.1378 19.6217C65.2026 19.6552 65.2811 19.6609 65.3469 19.6909C65.5338 19.7773 65.6261 19.9272 65.6066 20.1336C65.5868 20.3365 65.4784 20.4771 65.2798 20.5325C65.1737 20.5624 65.0582 20.5659 64.9542 20.6004C64.8931 20.6212 64.8029 20.6788 64.7995 20.7249C64.7834 20.9417 64.7593 21.1688 64.8109 21.3728C64.8331 21.457 65.0431 21.4881 65.1633 21.5527C65.2891 21.6219 65.4254 21.6853 65.5268 21.7832C65.6781 21.9308 65.6321 22.279 65.4519 22.3701C65.3227 22.4346 65.1747 22.4715 65.0304 22.4923C64.8539 22.5188 64.7616 22.626 64.7498 22.7794C64.7361 22.9615 64.7327 23.1575 64.7844 23.3293C64.8501 23.5483 65.0904 23.4757 65.2545 23.5345C65.5177 23.629 65.6354 23.7985 65.6123 24.0244C65.5914 24.2343 65.4586 24.338 65.2683 24.4072C64.7465 24.5974 64.6817 24.6908 64.7451 25.1542C64.7659 25.3006 64.8108 25.4401 65.0048 25.4551C65.1146 25.4632 65.2267 25.4839 65.3307 25.5185C65.529 25.5865 65.6193 25.741 65.6099 25.9462C65.6009 26.1503 65.4992 26.2944 65.2971 26.3521C65.2267 26.3716 65.1515 26.3832 65.0776 26.3832C64.841 26.3832 64.7682 26.5146 64.7555 26.7302C64.7303 27.1832 64.7256 27.1809 65.2267 27.3872C65.327 27.4288 65.4277 27.4852 65.5082 27.5556C65.6979 27.7193 65.6515 28.1204 65.423 28.2253C65.2948 28.2841 65.1424 28.2945 64.9981 28.3164C64.826 28.3417 64.7394 28.4386 64.736 28.6081C64.7327 28.7568 64.7347 28.9043 64.737 29.0531C64.7407 29.2248 64.8297 29.2871 64.9991 29.332C65.722 29.5211 65.7496 29.6122 65.3515 30.2647C65.3166 30.3223 65.2706 30.4215 65.2948 30.4561C65.3525 30.5391 65.476 30.6659 65.5247 30.6474C65.6563 30.5967 65.7566 30.4699 65.8815 30.3927C66.0523 30.2854 66.2265 30.282 66.3973 30.4111C66.5684 30.5403 66.5912 30.7132 66.5624 30.9045C66.5567 30.9403 66.5335 30.9737 66.5255 31.0094C66.4557 31.3115 66.5597 31.4272 66.8386 31.3564C67.3832 31.2181 67.6098 31.421 67.5175 31.9663L67.5194 31.9695Z" fill="#19132D"/>
<path d="M61.2249 33.2288C61.4501 33.2034 61.6659 33.3625 61.7122 33.5873C61.7686 33.8617 61.577 34.128 61.3139 34.1419C61.0565 34.1545 60.7977 33.9194 60.7977 33.6715C60.7977 33.4651 61.0008 33.2542 61.2249 33.2299V33.2288ZM53.5022 33.2207C53.769 33.2322 53.9938 33.4928 53.9583 33.7441C53.927 33.962 53.7133 34.1488 53.4985 34.1476C53.2344 34.1464 53.0196 33.8974 53.0471 33.6254C53.0679 33.4132 53.2955 33.2115 53.5032 33.2207H53.5022ZM47.6185 34.1419C47.353 34.1073 47.1463 33.8272 47.2074 33.5827C47.2608 33.3695 47.494 33.2011 47.7051 33.2254C47.9776 33.2565 48.1749 33.5274 48.1138 33.7856C48.0608 34.0081 47.8356 34.1695 47.6185 34.1419ZM50.5637 32.2408C50.8144 32.2408 51.0604 32.4945 51.05 32.7458C51.0419 32.9544 50.8305 33.1481 50.6019 33.1561C50.3398 33.1654 50.0915 32.9106 50.1227 32.6662C50.1516 32.4391 50.357 32.2419 50.5637 32.2408ZM56.8816 32.7873C56.8538 32.9936 56.6319 33.1608 56.3977 33.1504C56.1219 33.1389 55.9222 32.8922 55.9695 32.6224C56.0098 32.3988 56.2292 32.2235 56.4417 32.2455C56.6991 32.272 56.9148 32.5371 56.8816 32.7873ZM45.2136 32.7803C45.1905 32.9729 44.9364 33.1712 44.7297 33.1573C44.4633 33.14 44.2357 32.8703 44.2844 32.6282C44.3257 32.4218 44.5646 32.227 44.7623 32.2397C45.014 32.2558 45.2435 32.5302 45.2136 32.7792V32.7803ZM64.5386 32.1889C64.6158 32.2662 64.6933 32.3446 64.7705 32.4218C64.7128 32.5913 64.6725 32.77 64.5916 32.9291C64.5027 33.1043 64.3342 33.1723 64.1366 33.147C63.9174 33.1193 63.6922 32.9095 63.7382 32.7169C63.7755 32.5602 63.8838 32.3791 64.0154 32.2962C64.1564 32.2074 64.3617 32.2201 64.5386 32.1889ZM51.5638 33.2334C51.843 33.2449 52.0312 33.4709 51.9953 33.7499C51.9665 33.977 51.7678 34.1487 51.545 34.1384C51.2748 34.1257 51.0798 33.8905 51.1111 33.6161C51.1365 33.3902 51.3339 33.223 51.5624 33.2322L51.5638 33.2334ZM55.8782 33.6772C55.8839 33.9032 55.7074 34.1188 55.4983 34.1407C55.2479 34.1672 54.9869 33.9458 54.9708 33.6933C54.9546 33.4455 55.2107 33.2126 55.4751 33.2345C55.6899 33.2518 55.8725 33.4513 55.8782 33.6772ZM57.8247 33.721C57.8076 33.9609 57.632 34.1361 57.4035 34.1395C57.1377 34.1441 56.9196 33.9147 56.9347 33.6461C56.9474 33.4178 57.1296 33.2415 57.3629 33.2322C57.6344 33.2219 57.8431 33.4432 57.8247 33.721ZM63.2361 33.2322C63.5133 33.2461 63.6909 33.4732 63.6496 33.7626C63.617 33.9908 63.4116 34.1591 63.1922 34.1372C62.9197 34.1107 62.7317 33.8721 62.7697 33.6034C62.7995 33.3878 63.01 33.2207 63.2361 33.2311V33.2322ZM51.5231 32.1855C51.253 32.1635 51.0718 31.9249 51.1144 31.6482C51.1489 31.4281 51.3604 31.2678 51.5879 31.2885C51.8567 31.3139 52.0393 31.5537 51.9967 31.8281C51.9618 32.0506 51.7587 32.2039 51.5245 32.1855H51.5231ZM48.69 35.0987C48.4138 35.1264 48.2027 34.9304 48.2014 34.6468C48.2004 34.407 48.3645 34.2237 48.593 34.2122C48.8746 34.1972 49.0904 34.3944 49.0894 34.6664C49.0894 34.8981 48.9243 35.0768 48.691 35.0999L48.69 35.0987ZM50.521 34.211C50.8063 34.1822 51.0406 34.3794 51.0476 34.6526C51.0533 34.8739 50.8731 35.0745 50.6445 35.1022C50.3686 35.1356 50.132 34.935 50.1203 34.6595C50.1113 34.437 50.2925 34.2329 50.52 34.2111L50.521 34.211ZM54.913 34.6918C54.8992 34.9269 54.7281 35.0941 54.4939 35.1022C54.218 35.1114 54.0136 34.9016 54.025 34.6226C54.0354 34.3874 54.2042 34.2237 54.4465 34.2157C54.7261 34.2053 54.9291 34.414 54.913 34.693V34.6918ZM58.8153 34.7033C58.7959 34.9269 58.5938 35.1114 58.3696 35.1102C58.1018 35.1091 57.8719 34.867 57.8941 34.6099C57.9169 34.3436 58.171 34.1672 58.4562 34.2202C58.6743 34.2606 58.8351 34.4762 58.8153 34.7044V34.7033ZM47.6947 31.2909C47.9601 31.3105 48.1645 31.5734 48.1185 31.8339C48.0802 32.0449 47.8527 32.2098 47.6289 32.189C47.3668 32.1648 47.151 31.8951 47.1993 31.6506C47.2399 31.4489 47.4788 31.2737 47.6946 31.2898L47.6947 31.2909ZM64.6574 34.6503C64.663 34.8717 64.4819 35.0757 64.2567 35.1034C63.9855 35.1356 63.7405 34.9316 63.7278 34.6618C63.7177 34.4451 63.9023 34.2376 64.1285 34.211C64.4057 34.1788 64.6493 34.3805 64.6574 34.6503ZM45.6972 31.2979C45.9791 31.2933 46.1858 31.503 46.1697 31.7751C46.1556 32.008 45.9895 32.1694 45.7468 32.1844C45.47 32.2017 45.2713 31.9977 45.2817 31.7083C45.2897 31.4754 45.4663 31.3013 45.6972 31.2979ZM60.2711 35.0999C60 35.0722 59.8117 34.8313 59.8543 34.5673C59.8902 34.3529 60.0993 34.1972 60.3325 34.2134C60.6013 34.2318 60.7863 34.4716 60.7423 34.746C60.7064 34.9696 60.501 35.1241 60.2711 35.0999ZM49.6079 32.1844C49.3236 32.1706 49.1253 31.9561 49.1481 31.6863C49.1679 31.4696 49.3585 31.2967 49.5928 31.2863C49.8596 31.2736 50.0499 31.4927 50.0314 31.7878C50.0153 32.0414 49.8502 32.1947 49.6079 32.1832V32.1844ZM46.464 35.1149C46.3902 34.995 46.2758 34.882 46.2502 34.7517C46.1925 34.4508 46.3553 34.2445 46.6315 34.2122C46.8576 34.1857 47.0711 34.3309 47.1184 34.5442C47.1785 34.8128 47.0549 35.0203 46.7593 35.1034C46.6613 35.131 46.5459 35.0999 46.4384 35.0953L46.465 35.1149H46.464ZM65.6964 33.3845C65.6675 33.5263 65.6585 33.675 65.6074 33.8076C65.4991 34.0889 65.246 34.2042 65.0047 34.1027C64.7946 34.014 64.6886 33.8007 64.7383 33.5689C64.7842 33.3533 64.9806 33.1954 65.2208 33.2334C65.395 33.2611 65.5591 33.3534 65.7276 33.4167L65.6964 33.3845ZM59.3684 34.1373C59.112 34.1557 58.8788 33.924 58.8868 33.6577C58.8939 33.4329 59.0808 33.2415 59.305 33.2323C59.5302 33.2231 59.7389 33.3856 59.7795 33.6001C59.8302 33.8664 59.6386 34.1165 59.3684 34.1361L59.3684 34.1373ZM43.7786 32.1855C43.4957 32.1797 43.3051 31.9733 43.3249 31.6932C43.3397 31.4718 43.5246 31.3058 43.7622 31.2989C44.0361 31.2909 44.2277 31.5042 44.2058 31.7912C44.1874 32.0334 44.0176 32.19 43.7786 32.1855ZM49.6136 34.1396C49.3421 34.1315 49.1263 33.9021 49.1448 33.6404C49.1599 33.4213 49.3482 33.2484 49.5848 33.2334C49.8492 33.2173 50.0546 33.4433 50.0338 33.7269C50.0153 33.9712 49.8374 34.1465 49.6123 34.1396H49.6136ZM53.4535 31.2724C53.7099 31.2494 53.9337 31.4477 53.9569 31.7186C53.9744 31.9342 53.815 32.1417 53.6002 32.182C53.3267 32.2339 53.084 32.0679 53.0495 31.8051C53.0139 31.5364 53.1961 31.2955 53.4549 31.2724H53.4535ZM45.7345 33.2334C46.017 33.2542 46.2087 33.4836 46.1697 33.7534C46.1372 33.9724 45.9318 34.1476 45.7123 34.1419C45.4479 34.1349 45.2529 33.8963 45.2841 33.6162C45.3093 33.3879 45.5103 33.2173 45.7345 33.2334ZM62.22 32.2512C62.4858 32.2466 62.6982 32.4576 62.7049 32.7319C62.711 32.9499 62.5341 33.1251 62.2895 33.1446C62.0076 33.1666 61.7965 32.9602 61.8173 32.6824C61.8357 32.4368 62.0066 32.2546 62.2213 32.2512H62.22ZM58.3975 32.2466C58.656 32.2777 58.857 32.5475 58.813 32.8046C58.7785 33.0098 58.5405 33.1747 58.3153 33.1504C58.0418 33.1204 57.8388 32.8518 57.9022 32.604C57.9586 32.3827 58.1838 32.2201 58.3975 32.2466ZM52.4988 32.2524C52.7542 32.2362 52.9629 32.4564 52.9619 32.7435C52.9619 32.9752 52.7807 33.147 52.5414 33.1446C52.3038 33.1424 52.1004 32.9856 52.0659 32.7769C52.0243 32.5267 52.2367 32.2696 52.4978 32.2523L52.4988 32.2524ZM55.8712 31.7071C55.8886 31.948 55.7316 32.1601 55.5168 32.1855C55.2443 32.2177 55.0006 32.0206 54.9822 31.7543C54.9637 31.4949 55.1983 31.2598 55.4661 31.2678C55.6842 31.2747 55.8541 31.458 55.8712 31.7071ZM47.1279 32.7123C47.1417 32.9498 46.9765 33.1343 46.7409 33.1446C46.449 33.1573 46.2319 32.9625 46.2399 32.6973C46.2479 32.4656 46.413 32.28 46.6359 32.2523C46.8956 32.2201 47.1104 32.4206 47.1279 32.7134V32.7123ZM49.0885 32.7307C49.0965 32.9567 48.9267 33.1262 48.6784 33.1446C48.3921 33.1654 48.1867 32.9637 48.2062 32.6824C48.2236 32.4368 48.3911 32.2558 48.6079 32.25C48.8723 32.2431 49.0801 32.4506 49.0894 32.7319L49.0885 32.7307ZM54.9107 32.6881C54.9372 32.9198 54.7815 33.117 54.5483 33.1458C54.2677 33.1803 54.0332 32.989 54.0298 32.7238C54.0264 32.4875 54.1822 32.2846 54.3946 32.25C54.6453 32.2085 54.8795 32.4079 54.9117 32.6892L54.9107 32.6881ZM59.8581 32.7377C59.8463 32.4587 60.0635 32.2293 60.3209 32.2512C60.545 32.2696 60.7078 32.4333 60.7424 32.6754C60.7746 32.9025 60.6165 33.1193 60.396 33.1493C60.1222 33.1862 59.8695 32.9925 59.8591 32.7377H59.8581ZM52.9606 34.6364C52.9733 34.8693 52.8106 35.0779 52.5981 35.101C52.3313 35.1298 52.0938 34.9396 52.0672 34.6756C52.0417 34.4185 52.2679 34.204 52.5518 34.2167C52.7807 34.226 52.9478 34.3977 52.9605 34.6375L52.9606 34.6364ZM56.3528 34.2145C56.631 34.1925 56.8642 34.3862 56.8733 34.6479C56.8817 34.867 56.7129 35.0606 56.4843 35.0953C56.2152 35.1356 55.988 34.942 55.9739 34.6629C55.9638 34.4335 56.1323 34.2318 56.3515 34.2145L56.3528 34.2145ZM62.2606 34.2156C62.5435 34.2329 62.7398 34.4566 62.7039 34.7205C62.6727 34.9453 62.4882 35.0987 62.2468 35.0975C61.9753 35.0975 61.7837 34.8727 61.8116 34.5891C61.8344 34.3562 62.0227 34.2007 62.2606 34.2156ZM66.5163 34.1845C66.5254 34.3978 66.566 34.6157 66.5348 34.8232C66.5059 35.0215 66.3351 35.1079 66.1307 35.0976C65.8904 35.0849 65.7116 34.9327 65.685 34.7091C65.6619 34.5119 65.73 34.324 65.9183 34.271C66.119 34.2145 66.3418 34.2364 66.5556 34.2249L66.515 34.1856L66.5163 34.1845ZM67.5624 27.9603C67.4999 28.214 67.2241 28.373 66.9805 28.2958C66.7748 28.2301 66.62 28.0018 66.6456 27.8035C66.6768 27.5546 66.9563 27.3447 67.1835 27.3989C67.4446 27.4611 67.6201 27.7228 67.561 27.9615L67.5624 27.9603ZM66.1861 10.8891C66.4411 10.9214 66.6247 11.2016 66.5647 11.4679C66.515 11.6915 66.2817 11.8587 66.0774 11.8172C65.8052 11.763 65.6226 11.4956 65.6874 11.2443C65.7404 11.0402 65.9887 10.8638 66.1861 10.8891ZM67.1073 11.8783C67.3751 11.8829 67.597 12.1308 67.5668 12.3902C67.5416 12.6104 67.3359 12.7856 67.1073 12.781C66.8489 12.7764 66.6167 12.5228 66.6422 12.2714C66.6616 12.0743 66.8986 11.8737 67.1073 11.8771V11.8783ZM67.1086 17.6978C67.3741 17.7036 67.597 17.9503 67.5691 18.2097C67.5463 18.4276 67.3395 18.6016 67.1096 18.5982C66.8452 18.5947 66.619 18.3468 66.6478 18.0921C66.671 17.8892 66.9005 17.6932 67.1096 17.6978L67.1086 17.6978ZM67.1536 22.4613C66.8798 22.4798 66.6364 22.2584 66.6526 22.006C66.6663 21.7881 66.8613 21.5771 67.067 21.5598C67.314 21.5391 67.5563 21.7685 67.5668 22.0336C67.5762 22.2515 67.3893 22.4452 67.1546 22.4613H67.1536ZM67.5667 20.0462C67.5936 20.3136 67.3671 20.5649 67.1063 20.5592C66.8902 20.5534 66.6858 20.3666 66.6502 20.143C66.6157 19.9263 66.776 19.7037 67.0036 19.653C67.27 19.5943 67.5415 19.7833 67.5667 20.0462ZM68.1037 30.3191C68.3866 30.3433 68.5749 30.575 68.5322 30.8493C68.4973 31.0707 68.2849 31.2471 68.0691 31.2344C67.8047 31.2194 67.6107 30.9727 67.6442 30.6972C67.6721 30.4747 67.8845 30.2994 68.1037 30.3179V30.3191ZM67.1536 26.3752C66.8788 26.3948 66.6502 26.1873 66.6455 25.9129C66.6408 25.6985 66.8324 25.5013 67.0623 25.4829C67.3372 25.461 67.5751 25.6777 67.5657 25.9395C67.5577 26.17 67.3775 26.359 67.1536 26.3752ZM67.5705 24.0015C67.5601 24.2286 67.3751 24.4015 67.1352 24.4108C66.8604 24.4212 66.6261 24.1928 66.6479 23.9369C66.6674 23.7087 66.8557 23.5276 67.0832 23.5185C67.3476 23.5081 67.5832 23.7409 67.5715 24.0015L67.5705 24.0015ZM67.5691 14.23C67.5913 14.456 67.4352 14.6658 67.2067 14.72C66.9563 14.7788 66.6801 14.5759 66.6456 14.3084C66.618 14.0997 66.7912 13.8715 67.0127 13.8219C67.2677 13.7654 67.5439 13.9683 67.5691 14.23ZM67.0463 29.338C67.307 29.3057 67.5507 29.5144 67.5681 29.7853C67.5819 30.0089 67.4064 30.2038 67.1708 30.2257C66.8845 30.2533 66.6432 30.0539 66.6456 29.7933C66.6479 29.5732 66.8315 29.3645 67.0463 29.338ZM68.531 15.2376C68.5343 15.4728 68.3763 15.6573 68.1464 15.6849C67.8729 15.7195 67.6534 15.527 67.6433 15.2434C67.6349 15.007 67.7957 14.8168 68.0229 14.7972C68.3034 14.7719 68.5263 14.9644 68.53 15.2365L68.531 15.2376ZM68.5276 25.0563C68.4826 25.265 68.2433 25.4322 68.0299 25.4045C67.7678 25.371 67.5866 25.0967 67.649 24.8292C67.701 24.6079 67.9352 24.4396 68.1406 24.4788C68.4121 24.5295 68.5853 24.7877 68.5276 25.0563ZM66.5788 24.9168C66.5972 25.1232 66.4089 25.378 66.216 25.4079C65.969 25.446 65.6931 25.2212 65.6747 24.9676C65.6585 24.7554 65.8327 24.5272 66.0465 24.4788C66.2855 24.4246 66.5543 24.646 66.5788 24.918V24.9168ZM67.0912 16.6418C66.8546 16.628 66.6593 16.4493 66.6469 16.2337C66.6305 15.9836 66.8882 15.7196 67.1282 15.7391C67.3812 15.7599 67.6004 16.0262 67.5705 16.2764C67.5463 16.4816 67.3188 16.6557 67.0923 16.6418H67.0912ZM65.6733 17.1975C65.6562 16.9877 65.8385 16.7686 66.0589 16.7341C66.3271 16.6914 66.5717 16.8978 66.5774 17.1699C66.5822 17.3981 66.4043 17.6264 66.2046 17.6506C65.9553 17.6794 65.6955 17.4581 65.6733 17.1975ZM68.0634 17.6425C67.7956 17.6217 67.6107 17.3843 67.6453 17.1019C67.6721 16.8782 67.8808 16.711 68.1084 16.7329C68.398 16.7594 68.5782 16.9854 68.5309 17.2633C68.493 17.4869 68.2792 17.6598 68.0644 17.6426L68.0634 17.6425ZM65.6814 15.2711C65.6549 15.0521 65.8156 14.8446 66.0442 14.8031C66.3177 14.7535 66.5532 14.9368 66.5717 15.2123C66.5868 15.4521 66.4345 15.6596 66.2207 15.6884C65.9539 15.7242 65.714 15.5385 65.6827 15.2711H65.6814ZM68.5309 28.8596C68.5115 29.1375 68.2759 29.3299 68.0114 29.2838C67.798 29.2469 67.6442 29.0487 67.6442 28.8112C67.6442 28.5783 67.8174 28.4031 68.0517 28.395C68.3426 28.3858 68.5493 28.5864 68.5309 28.8584L68.5309 28.8596ZM66.2093 29.2838C65.9448 29.3138 65.7116 29.1236 65.6814 28.8538C65.6573 28.6359 65.82 28.4377 66.0546 28.3985C66.3328 28.3523 66.5624 28.5391 66.5694 28.8158C66.5751 29.059 66.4204 29.2596 66.208 29.2838H66.2093ZM66.1351 22.5721C66.3707 22.5721 66.558 22.7404 66.5704 22.9651C66.5868 23.258 66.3868 23.484 66.1271 23.4655C65.8592 23.4459 65.6585 23.2153 65.6804 22.9513C65.6978 22.7404 65.8985 22.5732 66.1351 22.5721ZM68.5323 13.3136C68.539 13.5419 68.3705 13.7125 68.1235 13.7275C67.8359 13.7459 67.6268 13.543 67.6466 13.2663C67.6637 13.0219 67.8302 12.8432 68.0507 12.834C68.3185 12.8225 68.5239 13.0265 68.5333 13.3125L68.5323 13.3136ZM66.1398 12.8375C66.3996 12.8433 66.5912 13.0727 66.5741 13.3574C66.5603 13.5822 66.3627 13.7448 66.1238 13.7286C65.8801 13.7113 65.6965 13.5464 65.6804 13.332C65.6596 13.0599 65.8721 12.8317 66.1389 12.8386L66.1398 12.8375ZM65.6724 19.1377C65.6596 18.8795 65.9066 18.6339 66.1607 18.6524C66.3778 18.6686 66.5533 18.8541 66.5775 19.0928C66.6007 19.3164 66.4251 19.547 66.2151 19.5689C65.9449 19.5977 65.6838 19.3913 65.6724 19.1377ZM66.5718 26.8629C66.5959 27.0981 66.4379 27.2987 66.2103 27.3195C65.9274 27.346 65.6918 27.1592 65.6804 26.8998C65.67 26.6785 65.8341 26.4744 66.0546 26.4352C66.3167 26.388 66.5415 26.5747 66.5718 26.8629ZM68.135 27.316C67.844 27.3379 67.6339 27.1477 67.6433 26.871C67.6513 26.6289 67.8165 26.4444 68.037 26.4317C68.3128 26.4167 68.5195 26.6081 68.5333 26.8917C68.5447 27.1234 68.382 27.2964 68.135 27.3148V27.316ZM68.0219 20.6191C68.2977 20.5938 68.5172 20.7828 68.5323 21.0595C68.5447 21.2924 68.3867 21.4757 68.1501 21.5034C67.8695 21.5356 67.6513 21.3489 67.6453 21.0688C67.6396 20.8278 67.798 20.6399 68.0219 20.6191ZM66.1791 20.6214C66.4365 20.641 66.6143 20.8912 66.5694 21.1691C66.5334 21.3869 66.32 21.5334 66.0868 21.5022C65.8525 21.4699 65.6884 21.2947 65.6814 21.0687C65.6747 20.8024 65.8999 20.6007 66.1791 20.6214ZM68.5286 23.0355C68.5054 23.3179 68.2678 23.5162 68.0125 23.4666C67.799 23.4251 67.65 23.2303 67.6466 22.9893C67.6433 22.7196 67.8846 22.5259 68.1615 22.5743C68.397 22.6158 68.5484 22.8049 68.5286 23.0355ZM68.0947 18.6582C68.3568 18.6801 68.5494 18.9106 68.5323 19.1815C68.5182 19.3925 68.3161 19.5574 68.0782 19.5527C67.8 19.547 67.605 19.3164 67.649 19.0466C67.6869 18.8161 67.888 18.6408 68.0947 18.657V18.6582Z" fill="#19132D"/>
</svg>
