<svg width="224" height="160" viewBox="0 0 224 160" fill="none" xmlns="http://www.w3.org/2000/svg">
<path fill-rule="evenodd" clip-rule="evenodd" d="M121.265 118.49C118.034 119.133 114.802 119.777 111.57 120.42C112.943 120.95 114.317 121.481 115.69 122.01C125.313 125.726 134.936 129.441 144.558 133.156L144.791 133.246C143.032 135.049 141.271 136.853 139.512 138.655C137.787 140.421 136.063 142.187 134.339 143.954L139.623 147.604L138.397 148.694C137.623 149.381 136.85 150.069 136.076 150.757C135.133 151.596 134.19 152.434 133.246 153.273C132.022 154.362 130.797 155.45 129.573 156.539L127.268 158.588C127.222 158.628 127.174 158.678 127.123 158.729C126.969 158.885 126.793 159.062 126.628 159.082C126.394 159.11 125.971 158.899 125.639 158.733C125.502 158.665 125.38 158.604 125.293 158.57C124.344 158.206 123.396 157.838 122.449 157.469C119.534 156.335 116.626 155.184 113.725 154.015C106.611 151.152 99.5004 148.234 92.5727 144.94C89.372 143.419 86.3529 141.778 83.6198 139.494C80.6126 136.981 77.9509 134.067 75.5061 131.011C73.4469 128.439 71.5361 125.748 69.7595 122.974C69.5878 122.706 69.3604 122.399 69.1167 122.07C68.4936 121.229 67.7667 120.247 67.605 119.425C67.5223 119.003 67.6594 118.401 67.7809 117.868C67.836 117.626 67.8882 117.398 67.9144 117.208L68.5233 112.869C68.5565 112.629 68.6116 112.367 68.6688 112.096C68.7875 111.529 68.9146 110.924 68.8673 110.415C68.8101 109.795 68.471 109.076 68.1588 108.412C68.0133 108.105 67.8741 107.809 67.7717 107.541C67.7321 107.437 67.6869 107.285 67.6361 107.111C67.4828 106.592 67.2744 105.885 66.9946 105.757C66.8159 105.674 66.3568 105.782 66.0149 105.862C65.8806 105.893 65.7648 105.921 65.6906 105.93C64.2905 106.117 62.8905 106.304 61.4904 106.491C60.7614 106.588 60.0324 106.686 59.3033 106.783L42.1755 109.069C41.6576 109.138 41.1236 109.233 40.5836 109.33C39.4848 109.526 38.361 109.727 37.296 109.72C36.096 109.712 35.1838 108.945 34.6126 107.943C32.8975 104.933 31.2277 101.86 29.8928 98.6604C28.6021 95.5671 28.6544 92.9364 29.3418 89.6742C29.9437 86.8197 30.7594 83.9418 31.8026 81.213C32.0558 80.5511 32.1164 80.5511 32.626 80.5511C32.7222 80.5518 32.8345 80.5518 32.967 80.5468C36.3907 80.4338 39.8146 80.3208 43.2384 80.2078C49.0343 80.0163 54.8304 79.8249 60.6264 79.6328C66.4182 79.4413 72.2107 79.2499 78.0032 79.0592C82.089 78.9242 86.1749 78.7886 90.26 78.6537C90.4436 78.648 90.6768 78.6184 90.9282 78.5873C91.4955 78.5159 92.1559 78.434 92.5537 78.5781C92.7649 78.6551 92.9775 78.9038 93.1633 79.1206C93.236 79.2061 93.3053 79.2866 93.3681 79.3502C94.3373 80.325 95.3058 81.2999 96.275 82.2747C100.442 86.4665 104.671 90.5968 108.899 94.7264C110.19 95.9881 111.482 97.2497 112.772 98.5128C116.353 102.019 119.934 105.527 123.515 109.033C126.063 111.53 128.611 114.025 131.16 116.521C127.862 117.177 124.564 117.834 121.265 118.49ZM145.262 100.53C153.941 98.6632 162.809 96.3632 170.91 92.6913C177.08 89.8954 182.957 85.5849 187.397 80.436C187.187 84.9025 186.76 90.5241 184.133 94.2864C183.212 95.6066 181.862 96.6577 180.592 97.6474C180.485 97.7301 180.38 97.8127 180.275 97.8947C178.276 99.4572 176.197 100.917 174.091 102.332C173.786 102.537 173.479 102.743 173.171 102.951C169.735 105.268 166.151 107.685 162.332 109.257C161.178 109.732 160.519 109.646 159.366 109.138C157.517 108.323 155.767 107.254 154.043 106.202C153.961 106.152 153.878 106.102 153.796 106.051C150.905 104.287 148.063 102.435 145.262 100.53Z" fill="#42347B"/>
<path fill-rule="evenodd" clip-rule="evenodd" d="M79.5162 1.03524C81.8071 1.52337 83.4594 3.86791 84.9541 5.50041C86.7484 7.45855 88.4409 9.5495 89.6503 11.9272C90.8893 14.3636 91.5872 17.1758 91.8443 19.8912C91.9574 21.0857 91.8677 22.2139 91.7716 23.4006C91.6685 24.6686 92.3685 25.2323 93.3928 25.8935C95.5205 27.2668 98.0176 28.137 99.7787 30.0111C101.271 31.5998 102.627 31.6641 104.726 31.2996C109.938 30.3947 114.972 29.1571 120.306 29.0575C121.66 29.032 123.018 29.0652 124.371 29.1366C124.815 29.1599 125.297 29.263 125.738 29.2108C126.375 29.1345 126.429 28.8632 126.844 28.5241C128.673 27.0308 131.494 27.4921 133.67 27.6355C139.161 27.9986 144.472 28.9522 149.728 30.5939C155.404 32.367 161.279 33.4308 166.926 35.2985C172.382 37.1027 177.5 39.7453 182.73 42.0934C188.048 44.4825 193.189 47.1979 198.252 50.0863C203.146 52.878 208.164 55.573 212.718 58.9044C216.871 61.9419 220.465 65.8193 223.246 70.1594C224.174 71.6083 224.02 72.6777 222.054 72.5527C222.228 74.1803 221.182 75.0986 219.605 75.0781C220.351 76.3164 221.792 77.9023 221.493 79.4691C221.096 81.5523 218.499 80.6495 217.212 80.1444C217.661 81.6554 218.845 84.012 217.839 85.5223C216.28 87.8633 212.44 86.1192 210.74 84.979C206.411 82.0729 203.177 78.0259 199.186 74.7461C194.238 70.6822 188.855 67.0032 183.496 63.5108C183.073 63.2353 178.244 59.8523 177.802 60.5453C180.122 63.022 182.157 65.8575 185.058 67.7075C185.856 65.8659 186.849 66.4791 187.403 68.0395C188.071 69.915 188.789 71.8866 188.845 73.897C188.954 77.8536 187.32 81.986 185.4 85.3746C183.393 88.9186 180.594 91.8869 177.464 94.4625C175.691 95.9212 173.899 97.3156 171.901 98.4508C171.005 98.9587 170.119 99.5161 169.178 99.9371C168.273 100.342 167.246 100.545 166.466 101.192C175.122 103.273 184.153 103.006 192.807 104.987C194.896 105.465 199.201 106.946 197.82 109.934C196.751 112.245 193.375 113.037 191.234 113.908C193.2 115.106 193.261 116.593 191.287 117.892C190.494 118.414 189.626 118.762 188.708 118.982C188.086 119.131 186.956 119.138 186.555 119.738C188.697 120.218 191.347 119.598 193.284 120.828C195.262 122.083 193.581 123.789 192.25 124.718C190.499 125.94 188.036 127.36 185.87 126.795C184.158 126.349 182.766 126.821 181.013 126.98C179.204 127.145 177.38 127.138 175.571 126.992C168.681 126.436 161.955 124.127 155.486 121.824C149.023 119.523 142.843 116.662 136.945 113.152C135.489 112.286 134.192 111.163 132.718 110.339C131.166 109.471 129.775 109.659 128.105 110.034C124.311 110.886 120.37 111.016 116.662 112.271C123.002 115.228 129.549 117.628 136.084 120.106C138.571 121.049 141.27 122.437 143.973 122.504C145.158 122.534 147.617 122.198 148.287 123.51C148.777 124.466 147.945 124.821 147.542 125.483C146.958 126.441 148.075 126.482 148.923 126.648C149.991 126.855 150.914 126.799 151.958 126.462C153.556 125.947 154.849 125.73 156.52 126.106C159.145 126.697 161.838 126.743 164.465 127.308C165.552 127.543 166.096 128.814 166.767 129.613C167.821 130.869 168.978 132.032 170.121 133.206C172.275 135.42 174.224 137.754 176.943 139.308C179.327 140.67 181.893 141.778 184.403 142.887C188.323 144.62 193.289 146.735 193.221 151.783C193.153 156.772 188.111 157.309 184.171 157.257C182.513 157.236 180.138 156.696 178.643 157.505C177.353 158.203 176.418 158.465 174.921 158.445C173.186 158.42 171.467 158.53 169.735 158.627C166.103 158.831 162.367 158.688 158.758 158.226C157.026 158.005 155.52 157.538 154.006 156.655C153.556 156.393 153.178 155.967 152.678 156.077C152.252 156.171 151.754 157.068 151.48 157.401C150.615 158.451 149.61 159.389 148.212 158.655C147.32 158.186 146.354 156.96 147.313 156.078C148.048 155.402 149.705 155.645 150.108 154.577C150.531 153.458 148.816 152.33 148.203 151.624C147.062 152.813 145.488 155.062 143.619 153.874C142.121 152.924 143.344 151.894 144.404 151.263C145.715 150.482 147.363 150.196 146.242 148.46C145.604 147.474 144.745 146.651 144.391 145.503C144.122 144.63 144.196 143.718 144.015 142.833C143.691 141.252 141.704 140.254 140.146 140.194C139.194 140.157 139.09 140.986 138.661 141.695C138.031 142.738 137.128 143.61 136.211 144.397C134.705 145.689 133.075 146.808 131.45 147.937C130.373 148.686 128.421 149.782 129.586 151.109C131.291 153.053 128.17 152.613 127.02 152.334C124.343 151.686 121.654 151.095 118.994 150.377C113.539 148.903 108.352 146.754 103.282 144.272C98.3065 141.836 93.3871 139.17 88.7058 136.202C86.4383 134.764 84.2329 133.214 82.1914 131.467C79.998 129.592 78.0356 127.469 75.8147 125.623C73.5104 123.705 71.2415 121.853 69.4952 119.386C67.8769 117.1 66.0501 114.552 65.4426 111.791C64.7715 108.742 64.2008 105.995 64.5879 102.851C64.7496 101.539 64.9856 100.158 65.4928 98.9333C65.6383 98.5808 66.5234 97.2944 66.2069 96.9243C66.2246 96.9448 63.7762 97.8695 63.517 97.9507C61.8717 98.4685 60.1206 98.5398 58.4139 98.739C53.367 99.3296 48.4087 100.564 43.3341 100.932C41.4209 101.072 39.4613 101.769 37.5467 101.683C36.6423 101.642 36.3269 101.196 35.6118 100.928C35.2853 100.806 34.9907 100.932 34.6691 100.734C34.2926 100.502 34.1333 100.086 33.9121 99.7266C32.7304 97.8059 31.089 96.2158 29.9137 94.2894C28.5921 92.1229 28.1136 89.6879 27.6532 87.2275C26.4502 87.585 25.1666 87.8661 23.9133 87.6146C23.6057 90.7235 19.6039 91.5196 17.1038 91.8198C13.9816 92.1956 10.3281 92.6703 8.12188 89.926C5.52903 86.6998 4.7171 82.2876 3.65806 78.3904C2.4143 73.8144 1.34135 69.1288 0.583803 64.4461C-0.0604351 60.4634 -0.0319674 56.1812 1.85165 52.5107C3.5136 49.2726 7.06044 46.8305 10.668 48.7555C13.3795 50.2029 15.1249 53.4771 15.8926 56.3493C16.2834 57.8108 16.4966 59.153 18.2289 58.3569C18.8949 58.0503 19.4765 57.6604 20.1448 58.2686C20.7341 58.8033 20.7195 59.7619 20.244 60.3567C19.8132 60.8964 18.7825 61.0398 18.5604 61.7533C18.3406 62.4604 19.116 63.3533 19.8147 63.3391C20.6102 63.3236 20.99 62.216 21.8567 62.5084C22.6509 62.7761 22.4484 63.6351 22.0729 64.1925C21.6288 64.853 21.1142 65.0804 21.6961 65.8525C22.1423 66.4445 22.8489 66.7518 23.2723 67.3904C24.3172 68.9649 25.0666 71.3879 24.6787 73.2782C26.0208 73.1454 29.5207 74.022 30.2853 72.5485C30.5628 72.0137 30.4654 71.3356 30.7711 70.7853C31.1306 70.1383 31.7462 69.7638 32.4316 69.5265C33.8968 69.0186 35.5342 69.1486 37.0591 69.133C39.5871 69.1076 42.1169 69.0179 44.6435 68.9331C49.7276 68.7622 54.8007 68.3171 59.886 68.214C64.9608 68.1109 70.0377 68.2649 75.1104 68.4153C77.7707 68.4944 80.4353 68.652 83.0963 68.6442C85.5835 68.6364 88.1428 68.4768 90.5834 69.0603C89.569 66.4431 87.8172 64.2123 86.4983 61.7547C85.1413 59.2265 84.3494 56.5838 84.2018 53.7144C84.0669 51.0859 84.1425 48.4878 84.9626 45.9645C85.2939 44.9445 85.6789 43.9173 86.2786 43.0237C86.7046 42.3887 87.3686 41.7946 87.6618 41.0826C87.95 40.3804 87.8306 40.2568 87.0168 40.1353C86.564 40.0667 86.1727 40.1006 85.7283 39.9643C85.32 39.84 84.9273 39.5391 84.4822 39.5603C83.4565 39.609 82.2112 40.8784 81.3755 41.4138C80.2346 42.1436 79.0429 42.8358 77.7502 43.2597C73.5062 44.6492 67.8196 43.2244 64.193 40.8049C62.9829 39.9975 60.2039 38.1404 60.8008 36.3899C61.1159 35.4659 62.0314 35.4751 62.6869 34.946C63.7126 34.1188 62.7781 33.3058 62.0639 32.6552C60.1192 30.8814 58.6039 28.7014 57.035 26.602C55.4378 24.4652 53.4889 22.666 51.7723 20.6336C50.5403 19.1756 49.1266 17.5523 48.3319 15.8068C47.3613 13.6756 48.8077 13.0377 50.5902 12.3242C56.2276 10.0659 61.7015 7.47903 67.2326 4.97766C69.4373 3.98093 71.6519 2.9729 73.8876 2.04752C75.6296 1.32628 77.6097 0.629769 79.5162 1.03524ZM160.548 129.636C157.562 130.433 154.667 131.749 155.319 135.292C157.107 141.897 162.515 145.969 168.049 149.426C169.445 150.298 170.831 151.243 172.303 151.983C173.17 152.419 174.034 152.519 174.935 152.818C175.156 152.892 175.577 153.205 175.772 153.225C176.235 153.273 176.239 153.108 176.651 152.974C177.551 152.681 177.857 153.287 178.669 153.662C180.208 154.375 182.56 153.723 184.185 153.703C185.686 153.684 191.859 154.543 190.965 151.607C190.093 148.739 186.674 147.982 184.201 147.144C180.754 145.975 177.181 144.678 174.077 142.746C171.127 140.91 168.841 138.026 166.572 135.441C165.158 133.83 164.544 132.339 163.814 130.358C163.505 129.52 163.432 129.24 162.555 129.274C161.877 129.3 161.2 129.463 160.548 129.636ZM149.942 131.383C148.319 132.319 147.299 133.997 146.768 135.764C146.495 136.667 146.414 137.538 146.46 138.475C146.518 139.667 146.349 140.988 146.917 142.078C147.948 144.056 149.968 146.026 151.556 147.573C153.34 149.314 155.582 151.218 157.983 152.007C160.293 152.767 162.843 152.558 165.064 153.63C164.72 152.854 163.831 152.416 163.125 152.036C162.097 151.483 161.178 150.912 160.251 150.19C158.199 148.594 156.39 146.777 155.008 144.564C153.669 142.419 152.629 139.906 152.21 137.405C152.01 136.214 151.946 134.919 152.227 133.735C152.414 132.944 152.887 132.204 152.987 131.392C153.215 129.532 150.753 130.916 149.942 131.383ZM99.4933 82.0574C97.1176 82.8514 94.8035 83.8325 92.3989 84.5799C87.5388 86.0916 82.4513 87.4557 78.4623 90.7786C72.6585 95.6139 66.7558 104.861 70.735 112.434C75.4354 121.38 82.9896 128.767 91.5886 133.976C97.0781 137.302 102.913 140.111 108.738 142.794C114.371 145.39 120.503 146.576 126.237 148.903C125.514 143.831 127.682 138.578 130.72 134.607C132.354 132.473 134.101 130.39 136.046 128.534C137.002 127.621 138.019 126.806 139.059 125.993C139.848 125.376 140.684 124.53 141.68 124.268C141.507 123.534 139.601 123.655 139.053 123.59C137.165 123.366 135.28 122.808 133.461 122.266C129.499 121.086 125.716 119.422 121.932 117.776C120.083 116.971 118.215 116.206 116.377 115.373C114.723 114.622 113.163 113.521 111.435 112.95C109.657 112.363 107.747 112.568 105.91 112.603C103.704 112.645 101.515 112.602 99.3089 112.696C95.6257 112.853 91.8232 111.472 88.2417 110.742C87.0373 110.496 85.2671 110.437 84.2329 109.707C83.2955 109.046 83.2241 107.732 84.0817 106.96C85.556 105.633 88.626 106.302 90.3489 106.591C93.5348 107.125 96.6747 107.541 99.9213 107.471C104.367 107.375 108.752 108.034 113.201 107.92C117.998 107.798 122.824 107.755 127.583 107.074C125.949 105.04 123.64 103.552 121.718 101.808C119.512 99.8057 117.309 97.8016 115.115 95.7863C111.25 92.2324 107.038 88.7314 103.792 84.5856C102.679 83.1643 101.504 81.3856 99.4933 82.0574ZM134.557 138.355C133.903 138.607 133.535 139.393 133.17 139.938C132.039 141.627 130.935 143.296 130.119 145.168C131.755 144.027 132.938 142.394 134.485 141.157C135.042 140.711 137.096 139.544 136.467 138.766C136.113 138.329 135.039 138.169 134.557 138.355ZM141.612 131.022C140.109 132.595 138.507 134.057 136.874 135.495C138.28 135.712 139.724 136.118 140.982 136.787C141.557 137.093 142.815 138.079 143.457 137.628C144.053 137.208 144.064 135.509 144.258 134.856C144.752 133.183 145.589 131.525 146.56 130.082C144.461 129.242 143.199 129.361 141.612 131.022ZM112.884 68.8484C111.56 69.5392 110.255 70.264 108.932 70.9577C106.292 72.3429 103.562 73.6116 100.63 74.2354C100.387 75.0541 101.785 76.0084 102.255 76.4937C103.489 77.7681 104.611 79.1781 105.77 80.5223C108.228 83.372 110.82 86.0619 113.55 88.6509C116.308 91.266 118.893 94.0704 121.694 96.6382C124.405 99.1233 127.307 101.481 130.163 103.797C141.293 112.821 155.175 117.725 168.682 121.91C172.469 123.082 176.348 124.001 180.315 124.237C181.954 124.335 183.609 124.361 185.25 124.344C186.354 124.333 188.215 124.437 189.044 123.546C185.729 122.984 181.622 123.368 178.653 121.549C176.816 120.422 178.263 118.983 179.764 118.382C182.671 117.218 186.076 117.868 188.857 116.386C187.756 115.102 185.496 115.655 184.033 115.576C182.182 115.476 181.93 114.606 183.468 113.651C185.361 112.475 187.81 112.374 189.918 111.783C190.948 111.495 195.282 110.392 193.536 108.669C192.161 107.313 189.538 107.409 187.758 107.18C185.262 106.858 182.735 106.064 180.234 105.935C177.789 105.809 175.35 105.93 172.898 105.769C170.338 105.601 167.799 105.35 165.286 104.815C160.443 103.785 155.772 101.981 151.382 99.704C146.859 97.3573 142.712 94.4469 138.78 91.2173C136.711 89.5184 134.708 87.7432 132.676 86.0005C130.714 84.3178 128.571 82.7722 126.87 80.8155C124.989 78.6518 122.752 76.7869 120.825 74.6423C119.781 73.4795 118.684 72.3549 117.685 71.1526C116.975 70.2979 116.331 68.9607 115.47 68.2698C114.66 67.6206 113.661 68.4436 112.884 68.8484ZM54.4842 113.75C55.0472 114.081 55.0069 114.275 55.0324 114.842C55.0846 116.003 55.1136 117.148 55.269 118.305C55.8009 122.261 57.2081 126.183 58.6322 129.899C60.0535 133.607 62.2631 136.842 65.1812 139.539C68.0083 142.152 71.1531 144.044 74.9303 144.818C75.5788 144.951 78.131 145.402 78.1656 146.311C78.1917 146.995 76.892 146.881 76.4335 146.88C69.9367 146.869 63.476 142.369 59.2242 137.807C57.4638 135.918 56.1598 133.894 54.9335 131.653C54.754 131.326 52.1965 126.694 52.6915 126.524C51.524 123.188 50.5067 119.047 51.4525 115.529C51.806 114.215 53.0054 112.883 54.4842 113.75ZM43.7997 116.792C43.7822 119.497 44.5302 122.095 45.2118 124.687C45.336 125.158 45.921 126.571 45.1262 126.71C44.5646 126.809 43.8178 125.481 43.6035 125.144C42.3042 123.105 41.4795 120.672 41.397 118.249C41.3705 117.482 41.3772 116.543 42.1355 116.114C42.7952 115.74 43.6898 115.967 43.7997 116.792ZM186.469 73.9938C186.155 74.2368 186.069 74.5907 186.04 74.9658C183.802 77.8769 181.066 80.8155 178.219 83.1396C175.676 85.215 172.501 86.5367 169.525 87.8633C162.721 90.8973 155.755 93.0193 148.229 92.5644C151.703 94.6271 155.095 97.6286 159.119 98.5575C161.119 99.0195 163.024 98.0792 164.744 97.1525C166.854 96.0144 168.976 94.8595 170.968 93.5222C174.733 90.9962 178.746 88.2327 181.605 84.6654C182.872 83.0845 183.793 81.2669 184.545 79.3942C184.976 78.3212 185.296 77.203 185.736 76.1356C185.99 75.5203 186.655 74.6868 186.469 73.9938ZM145.97 32.7859C146.147 34.1337 145.603 35.413 145.146 36.6478C144.835 37.4877 144.112 38.5741 144.723 39.3215C145.449 40.2087 147.221 40.497 148.214 40.9985C149.685 41.7402 151.096 42.5928 152.491 43.4667C154.993 45.0363 157.557 46.5275 160.024 48.1494C162.369 49.6893 164.664 51.2787 167.381 52.0911C173.345 53.8755 178.917 56.9554 184.412 59.8425C190.014 62.7853 195.601 65.9436 200.714 69.6854C203.45 71.6881 205.865 74.0114 208.059 76.5898C209.189 77.9157 210.369 79.1971 211.5 80.5231C212 81.1094 212.542 81.6667 213.013 82.2771C213.363 82.7306 213.695 83.5147 214.223 83.7937C214.692 81.6349 212.753 79.3236 211.573 77.7194C210.766 76.623 209.969 75.5196 209.169 74.4183C208.607 73.6462 207.598 72.7837 207.352 71.8407C206.755 69.5484 210.09 70.5798 211.065 71.1484C213.479 72.5549 215.233 75.0682 217.15 77.0433C217.101 75.1572 212.893 73.1228 214.052 71.224C214.972 69.7179 217.783 72.191 218.616 72.8452C218.595 70.5056 216.961 68.5587 215.36 67.0223C213.576 65.31 211.601 63.7404 209.609 62.2802C204.952 58.8676 199.855 56.0321 194.815 53.2327C189.801 50.4473 184.694 47.8386 179.6 45.2037C174.653 42.6444 169.643 40.0992 164.347 38.3346C161.378 37.345 158.333 36.6364 155.331 35.7619C152.186 34.8457 149.133 33.6392 145.97 32.7859ZM108.087 35.497C107.971 35.5535 107.276 35.7909 107.237 35.8644C107.062 36.1872 107.56 37.0059 107.868 37.1069C107.073 38.0139 106.149 38.8821 104.971 39.2466C105.884 39.8273 107.595 40.819 107.626 42.0616C107.668 43.7711 105.448 43.0379 104.541 42.7108C103.087 42.1845 101.595 41.6159 100.399 40.6114C99.6395 39.9735 99.2637 39.2063 98.6421 38.478C98.3044 38.0825 98.428 37.9715 97.8841 38.0549C97.2632 38.1503 96.3364 38.9563 95.8164 39.3081C95.0133 39.8527 94.244 40.4475 93.5171 41.0896C92.1749 42.275 90.9698 43.6228 89.9802 45.1154C87.9302 48.2066 86.8861 51.9166 87.4406 55.6182C89.2321 55.0092 90.861 53.8352 92.1997 52.5171C93.1526 51.579 94.102 50.513 94.7187 52.4577C94.9589 53.215 95.1256 55.0622 94.7886 55.7595C94.4736 56.4108 94.1896 55.9975 93.811 56.4284C93.373 56.9271 93.7665 57.4273 93.8823 57.9719C93.587 57.8151 93.2918 57.6583 92.9965 57.5007C92.6687 58.1895 93.1145 57.7635 93.3617 58.0856C93.5065 58.2728 92.9506 59.0202 92.8368 59.1558C92.6016 59.4363 92.4066 59.2872 92.1509 59.6729C91.987 59.9208 91.8606 60.4259 91.6897 60.729C90.8059 62.2923 92.7846 64.0279 93.6902 65.2937C94.3613 66.2318 95.0684 67.1403 95.755 68.065C96.2579 68.7417 96.633 69.5929 97.2363 70.187C98.433 71.3667 100.348 70.1764 101.666 69.7201C103.455 69.102 105.209 68.4853 107.01 67.9216C108.067 67.591 109.151 66.7051 107.595 66.1873C106.05 65.6745 101.272 66.5307 100.802 64.4651C100.301 62.2704 103.282 61.2538 104.858 61.1168C107.161 60.9162 108.732 61.1747 110.627 62.5423C109.596 59.3847 106.737 57.1998 105.536 54.0676C105.21 53.2164 103.629 47.881 106.244 49.7755C107.644 50.7906 108.945 52.5001 110.091 53.7738C111.826 55.7029 113.416 57.7522 115.059 59.7577C116.626 61.6727 118.692 63.3928 119.956 65.5156C120.667 66.7094 121.852 69.2842 123.381 69.6452C124.36 69.8769 125.745 69.0073 126.635 68.6774C127.186 68.474 127.722 68.2748 128.14 67.8439C128.356 67.6199 128.512 67.1276 128.82 67.0103C129.707 66.6734 130.242 68.0247 130.316 68.6831C130.432 69.6989 130.029 70.0542 129.125 70.3671C130.853 70.8008 128.952 73.7105 128.733 74.7567C128.7 74.7122 128.283 74.099 128.079 74.1428C127.674 74.2304 130.011 77.1239 130.183 77.3231C131.38 78.7048 132.765 79.8823 134.121 81.1023C134.9 81.803 136.186 83.5804 137.373 83.1346C138.032 82.8874 139.146 81.1878 139.884 82.034C140.55 82.797 139.259 84.0416 139.181 84.777C139.05 86.0111 140.722 86.9245 141.684 87.3525C144.232 88.4863 147.175 88.2567 149.891 88.1854C149.249 87.6181 148.084 87.4832 147.857 86.5239C147.703 85.8712 148.09 85.4156 147.626 84.7685C147.243 84.2359 146.524 84.0325 146.198 83.4433C145.839 82.7948 146.006 81.9352 146.265 81.2803C147.365 78.5063 151.192 78.75 153.545 79.4041C153.403 79.5058 153.295 79.633 153.219 79.7849L153.202 79.8237L153.206 79.8181C153.443 79.5941 154.732 79.8654 154.901 79.9396C155.436 80.1755 156.228 80.8219 156.651 81.2365C158.013 82.5723 158.563 84.4351 158.401 86.3113C164.861 84.9381 170.579 81.9238 175.776 77.951C176.963 77.044 178.174 76.3673 179.257 75.3133C180.37 74.2304 181.4 73.0719 182.482 71.9608C183.499 70.9174 183.291 70.4646 182.258 69.5074C181 68.3433 179.838 67.0633 178.49 65.9995C178.402 66.3922 178.489 67.1219 178.184 67.4172C177.847 67.7428 177.387 67.336 177.163 67.574C177.183 67.5528 176.628 69.0172 176.426 68.7247C176.948 69.4813 175.452 69.2454 175.174 69.1436C175.397 69.9094 174.892 70.7161 174.309 69.754C173.514 70.8659 171 70.5367 171.966 68.8773C172.442 68.0579 173.042 67.5486 173.243 66.5688C173.468 65.4718 173.379 64.3034 173.204 63.2063C172.79 60.6202 171.152 59.7203 169.064 58.4304C167.898 57.7098 166.7 57.0458 165.512 56.362C164.469 55.7616 163.503 54.9478 162.429 54.4138C161.657 54.0302 161.098 53.9913 160.554 54.5826C160.329 54.8263 160.294 55.0827 159.993 55.3356C159.608 55.6591 158.993 55.9396 158.521 56.1035C156.147 56.925 153.147 56.6891 150.72 56.2638C150.056 56.1473 149.677 55.8082 149.083 55.6153C148.707 55.4938 148.446 55.6712 148.042 55.5157C146.985 55.111 146.826 54.134 147.341 53.2376C148.549 51.1361 151.159 52.2402 152.473 50.472C154.111 48.2681 150.23 46.5275 148.642 45.7293C147.37 45.09 146.398 45.0999 145.022 45.1535C144.733 45.1648 142.776 45.025 143.584 45.653C142.143 45.92 141.44 46.0761 140.477 47.2155C140.224 47.5143 139.868 47.8216 139.87 48.2391C139.871 48.4595 140.315 48.4093 140.315 48.4072C140.287 48.5612 139.904 48.9123 139.851 48.9709C140.607 48.901 140.724 50.3901 140.535 50.4388L140.524 50.4403L140.549 50.4544C140.936 50.691 140.309 51.3148 140.08 51.4462C139.427 51.8191 138.659 51.4737 138.088 51.0866C136.808 50.2205 135.654 48.5301 135.4 47.0071C135.044 44.8689 136.174 43.3451 136.984 41.5134C137.59 40.143 136.18 39.7828 135.133 39.2261C133.853 38.5452 132.137 37.7384 131.471 36.3624C130.864 35.1085 131.67 34.4643 132.911 34.6162C134.588 34.8217 136.147 35.9357 137.716 36.5065C139.108 37.0137 140.993 38.252 142.515 38.0224C142.031 37.0999 140.688 37.494 140.005 36.8781C139.103 36.0636 140.095 35.4045 140.938 35.3409C141.592 35.2908 143.693 36.2522 143.316 34.7094C143.114 33.8829 141.667 33.8992 141.012 33.7868C137.683 33.2175 134.361 33.0522 130.985 33.1786C129.891 33.2196 129.649 33.4054 129.341 34.4664C129.237 34.8267 128.931 36.4472 128.38 35.5331C128.106 36.4366 128.16 37.3252 127.259 37.8571C126.113 38.5324 124.396 38.2576 123.158 38.0245C122.096 37.8246 121.047 37.4502 120.236 36.712C119.832 36.3454 119.503 35.9131 119.247 35.4313C119.03 35.023 118.937 34.2976 118.627 33.95C118.11 33.3693 117.24 33.7028 116.532 33.7847C114.95 33.967 113.392 34.1591 111.829 34.472C110.531 34.732 109.278 34.9164 108.087 35.497ZM154.134 86.406C153.676 86.6885 154.683 87.0947 154.958 86.9633C154.799 86.7959 154.465 86.2011 154.134 86.406ZM153.202 79.8237L153.19 79.8364C153.176 79.8555 153.169 79.8781 153.169 79.9035C153.176 79.883 153.184 79.8626 153.192 79.8428L153.202 79.8237ZM159.805 62.1291C160.334 62.4109 160.338 63.3222 160.76 63.7933C161.888 65.055 163.671 66.1563 165.251 66.727C166.954 67.3409 167.923 68.4019 168.651 70.0153C168.802 70.3488 169.135 70.7853 169.1 71.171C169.067 71.5313 168.711 71.7248 168.658 72.0505C168.634 72.2002 169.084 73.2189 169.058 73.2281C168.931 73.2711 168.439 72.8148 168.442 72.8169C168.371 73.221 168.513 73.6328 168.151 73.9175L168.106 73.95L168.114 73.9535C168.231 74.01 168.771 74.294 168.68 74.4014C168.552 74.5504 168.161 74.5497 167.985 74.6585C167.706 74.8302 167.546 75.1445 167.283 75.331C166.577 75.8304 165.659 75.918 164.813 75.9745C163.033 76.0932 160.957 75.8884 159.436 74.874C157.593 73.6455 157.611 71.9622 157.105 70.252C156.537 68.3334 157.316 65.0769 158.125 63.3243C158.401 62.7253 158.99 61.6961 159.805 62.1291ZM32.296 73.3665C32.2474 73.618 32.4214 73.9571 32.4179 74.2234C32.4113 74.7609 32.209 75.2738 32.014 75.7662C31.6489 76.6866 31.2661 77.5413 31.0935 78.5289C30.6696 80.9547 30.3477 83.5401 30.4208 86.0005C30.5784 91.2837 34.5535 94.8234 35.7745 99.7414C36.8735 97.95 39.0117 97.4209 40.9293 97.009C43.4813 96.4602 46.0336 96.03 48.6246 95.7128C53.5814 95.1067 58.5919 94.223 63.5819 95.0212C64.1308 95.1088 64.5299 95.1131 65.0626 95.1116C65.6475 95.1095 65.295 94.911 65.7746 95.1547C65.9039 95.2211 66.0162 95.5334 66.1554 95.6224C66.8752 96.078 67.1479 95.6061 67.5194 94.8736C68.5416 92.8575 69.5948 90.9997 71.0966 89.2824C74.2959 85.624 78.2779 83.4024 82.8787 81.9818C85.515 81.168 88.1103 80.4701 90.8158 79.9219C93.3991 79.3992 96.1308 78.8672 98.7692 79.2706C97.7923 77.6614 96.424 76.3242 95.2407 74.8711C94.6664 74.1654 94.1126 73.4131 93.4408 72.7943C92.851 72.2504 92.0542 71.8725 91.5844 71.2077C91.5597 71.3667 91.5349 71.5256 91.5095 71.6845C86.2482 71.3179 80.9721 71.6393 75.7144 71.9078C70.4333 72.1776 65.1487 72.1183 59.8677 72.3316C57.2159 72.439 54.5916 72.7223 51.9518 72.9773C49.4108 73.2231 46.9017 73.1807 44.3559 73.2323C41.7776 73.2853 39.2442 73.2231 36.6693 73.0882C35.5896 73.031 34.5424 72.8593 33.4783 72.7406C32.6296 72.6467 32.4375 72.6283 32.296 73.3665ZM143.882 59.0732C144.16 59.6496 143.853 60.5347 143.824 61.1443C143.791 61.8359 143.474 62.1778 143.406 62.8143C143.347 63.3674 144.235 66.0454 142.738 65.5078C142.82 65.6957 143.095 65.9196 143.155 66.0906C143.229 66.3032 143.088 66.6825 143.19 66.8577C143.282 67.016 143.968 67.3896 144.169 67.6425C144.961 68.6378 145.626 69.8359 146.157 70.9909C146.711 72.1946 147.43 73.8723 146.569 74.9679C146.362 75.2307 146.155 75.3338 145.95 75.6404C145.969 75.8799 145.904 76.0953 145.753 76.2861C145.659 76.3348 145.574 76.327 145.497 76.262C145.215 76.5029 145.166 75.7534 144.942 76.5397C144.887 76.7297 145.176 77.2793 145.082 77.2369C144.911 77.1599 144.369 76.7911 144.223 76.813C143.994 77.3195 143.907 76.8717 143.58 77.0059C143.605 77.191 143.528 77.3118 143.349 77.369C143.198 77.3662 143.048 77.3633 142.898 77.3612C142.033 77.5505 140.677 77.4587 139.797 77.4057C138.116 77.3047 136.752 76.4535 136.056 74.8725C134.606 71.5786 136.589 66.6536 138.129 63.7072C138.655 62.7012 142.445 56.0879 143.882 59.0732ZM160.082 67.2342C160.122 67.5288 160.303 67.942 159.985 68.0431C159.929 67.7139 159.703 67.3246 160.082 67.2342ZM137.397 71.5433C137.722 72.3465 137.655 71.8626 137.442 72.5082C137.257 72.1939 137.242 71.8725 137.397 71.5433ZM161.198 65.3594C161.361 65.493 161.946 65.8207 161.545 66.022C161.194 66.1972 161.224 65.5608 161.198 65.3594ZM142.089 63.3752C142.111 64.309 142.575 63.9862 143.241 63.674C142.857 63.5744 142.473 63.4748 142.089 63.3752ZM4.5518 54.7507C1.80821 58.3435 2.77718 63.3999 3.74445 67.4299C5.05878 72.9066 6.56674 78.3572 8.26436 83.7266C9.03144 86.1531 10.0061 87.2642 12.6279 87.5744C15.468 87.9106 18.2843 87.13 20.9981 86.3869C19.6044 82.4134 17.4337 77.2574 20.9535 73.6674C21.2756 73.3389 21.5796 73.0825 22.0311 72.9617C22.3292 72.8826 22.8195 73.0642 23.076 72.8635C23.5946 72.4574 23.0932 71.7262 22.8073 71.313C21.9382 70.0577 20.6042 69.1881 19.4636 68.2091C18.0311 66.9792 17.077 67.2229 15.4425 67.7598C14.7909 67.9738 12.2305 68.8307 12.4444 67.2971C12.5995 66.1817 14.7161 66.003 15.5004 65.5855C16.0947 65.269 16.2068 65.1616 16.0421 64.5202C15.7844 63.5186 15.1463 63.3667 14.2527 63.5857C13.1033 63.8668 11.231 64.9081 10.0742 64.2031C8.42239 63.1957 10.2691 61.8522 11.2659 61.4559C12.3095 61.0412 13.7935 60.9014 13.7585 59.5076C13.7247 58.1789 12.7215 56.7752 11.9552 55.7609C11.2138 54.7804 10.2219 53.5406 9.0188 53.1133C7.32132 52.51 5.57629 53.4085 4.5518 54.7507ZM22.6892 76.0388C21.3913 76.6343 20.9843 78.5755 21.0897 79.8506C21.1919 81.0832 21.6603 82.7744 22.7365 83.5097C24.1489 84.4747 26.1454 83.9653 27.6301 84.8371C27.5997 81.986 28.0589 79.1385 28.8774 76.4111C27.7591 76.3447 26.6496 76.1872 25.5361 76.0706C24.7215 75.9858 23.4687 75.6814 22.6892 76.0388ZM111.43 63.3328C111.791 63.5291 111.905 63.5878 112.071 63.9812C111.355 64.1819 111.524 63.9021 111.43 63.3328ZM114.493 42.3562C115.634 42.1443 116.242 42.3986 117.268 42.749C117.998 42.9983 118.696 42.4141 118.906 43.3981C120.448 41.5495 124.699 44.5729 126.206 45.2814C127.795 46.0281 129.403 46.9633 129.948 48.7837C130.11 49.3227 130.116 49.909 130.314 50.4381C130.464 50.8358 130.812 51.1918 130.858 51.6284C130.911 52.1342 130.554 52.5121 130.557 52.9974C130.557 53.1903 130.766 53.5322 130.718 53.6982C130.211 55.3964 129.413 56.8706 127.624 57.4082C126.066 57.8765 124.193 57.683 122.802 56.8219C121.568 56.0583 120.644 54.7168 120.086 53.3979C119.989 53.1698 119.961 52.6061 119.84 52.4217C119.663 52.1526 119.491 52.1836 119.299 51.9767C118.79 51.4271 118 50.3555 118.34 49.5608C117.199 50.0863 115.741 47.7107 115.134 47.0566C114.679 46.5671 113.777 46.3 113.436 45.802C112.969 45.1189 114.008 44.5623 113.514 44.1222C113.249 43.887 112.188 44.3115 112.147 43.5889C112.11 42.9213 114.058 42.4367 114.493 42.3562ZM140.485 50.4226C140.499 50.4339 140.513 50.4395 140.524 50.4403L140.519 50.4374L140.485 50.4226ZM136.129 45.4933C136.214 45.3817 136.651 44.6993 136.806 45.1083C136.934 45.4439 136.295 45.458 136.129 45.4933ZM74.7975 12.6096C73.6037 12.9402 72.8033 14.4752 72.0482 15.3519C70.9207 16.6601 69.491 17.7494 68.0273 18.6543C66.3221 19.7068 64.5511 20.6972 62.7632 21.6014C60.9499 22.5183 58.9706 23.0474 57.1678 23.9827C58.4838 25.5156 59.8006 27.0492 61.1173 28.5821C61.4112 27.9216 61.1314 27.3056 61.7283 26.749C62.1423 26.3633 62.8211 26.1775 63.3354 25.9585C64.7666 25.3468 66.3503 24.7378 67.9313 24.7195C68.952 24.7082 70.2002 25.2302 69.4973 26.4791C69.0537 27.2667 67.7589 27.3642 67.8804 28.4401C67.9962 29.4707 69.212 30.1192 69.1992 31.2325C69.1809 32.7965 67.5943 32.6665 66.7261 31.8421C65.9512 31.1075 65.8502 29.5293 64.8054 29.1027C64.1824 28.8484 62.6975 29.0243 62.1783 29.4658C63.6794 31.2268 66.2959 33.2344 65.5726 35.8743C65.3501 36.6852 64.5843 37.1387 65.29 37.7392C66.1038 38.4321 68.0895 38.7232 69.0156 38.2612C69.8823 37.8289 70.7138 36.5722 71.8539 36.8639C72.9312 37.1401 72.4148 38.1065 72.662 38.8468C73.4073 41.0755 77.8145 38.7769 79.0218 38.2033C80.2332 37.6283 81.408 36.6096 82.7191 36.2995C83.9553 36.0071 85.236 36.361 86.369 36.8526C87.2174 37.2214 88.7708 38.4971 89.7167 38.3495C90.6654 38.2019 91.7002 36.5305 92.4384 35.9336C93.7636 34.8634 95.3403 34.3004 96.8075 33.4626C97.0406 33.3298 98.0847 32.8735 98.0268 32.5047C97.971 32.1501 96.5179 31.6585 96.2629 31.5377C93.9353 30.4336 92.0202 28.6372 89.6326 27.6482C88.5681 27.2074 87.4696 26.9701 86.3231 26.9136C85.6867 26.8825 84.0012 27.016 83.7758 26.1662C86.5619 25.0677 85.8682 21.4474 84.2145 19.6623C83.1634 18.5272 81.8297 18.1648 80.3703 18.7666C78.256 19.6404 78.196 21.3365 78.0985 23.3554C76.0923 22.7592 73.622 20.7799 73.0668 18.6917C72.4494 16.3698 74.7551 14.8249 74.7975 12.6096ZM131.834 16.9724C134.986 16.8904 138.111 17.0098 141.242 17.3856C143.171 17.6173 145.9 17.5883 147.7 18.4092C148.226 18.6494 148.955 19.2675 148.666 19.947C148.417 20.5326 147.514 20.5814 146.98 20.6117C144.557 20.7495 142.048 20.2557 139.613 20.2197C133.142 20.1236 126.669 20.8081 120.268 21.6982C118.503 21.944 116.739 22.2061 114.975 22.4533C113.505 22.6596 111.923 23.0439 110.435 23.0177C109.262 22.9973 108.809 22.2343 109.449 21.1309C110.074 20.0558 111.474 19.9053 112.533 19.5083C118.808 17.7395 125.338 17.1412 131.834 16.9724ZM119.722 11.8495C121.936 12.1215 119.597 12.9734 118.678 13.0907C118.367 13.1302 114.246 13.588 114.273 13.7123C113.467 13.8833 111.467 14.9521 110.715 14.2605C109.908 13.5181 112.503 12.6457 113.032 12.4931C115.068 11.9046 117.589 11.5875 119.722 11.8495Z" fill="black"/>
</svg>
